<?xml version="1.0" standalone="no"?>
<!DOCTYPE svg PUBLIC "-//W3C//DTD SVG 1.1//EN" "http://www.w3.org/Graphics/SVG/1.1/DTD/svg11.dtd" >
<svg xmlns="http://www.w3.org/2000/svg" xmlns:xlink="http://www.w3.org/1999/xlink" version="1.1">
<metadata>
Created by FontForge 20160407 at Wed Nov  2 12:37:05 2016
 By Jimmy Warting
Copyright (c) Ivan Zeifert works, 2006. All rights reserved.
</metadata>
<defs>
<font id="Patience" horiz-adv-x="315" >
  <font-face 
    font-family="Patience"
    font-weight="400"
    font-stretch="normal"
    units-per-em="1000"
    panose-1="2 0 0 0 0 0 0 0 0 0"
    ascent="800"
    descent="-200"
    x-height="485"
    cap-height="760"
    bbox="-6 -159 770 766"
    underline-thickness="20"
    underline-position="-143"
    unicode-range="U+0020-2026"
  />
<missing-glyph horiz-adv-x="162" 
 />
    <glyph glyph-name=".notdef" horiz-adv-x="162" 
 />
    <glyph glyph-name="exclam" unicode="!" horiz-adv-x="210" 
d="M184 584q0 -21 -12.5 -52.5t-12.5 -56.5q0 -150 -2 -207q5 -26 18 -50v-4q-35 -29 -35 -108l-5 -2l-7 14q2 42 6 55q5 23 26 48q-14 34 -14 49v218q0 9 14 45t14 53q0 1 -11 41l5 2q6 0 11 -17.5t5 -27.5zM150 595q0 -15 -15 -54.5t-15 -64.5v-173q0 -35 13 -67
q-19 -26 -23.5 -51t-8.5 -51h-6q-14 42 -39 105q13 26 13 65l-1 172q-1 33 -17.5 71.5t-16.5 51.5q0 22 18 44.5t39 22.5q23 0 41 -23.5t18 -47.5zM171 36q0 -30 -15 -51q-16 -25 -45 -25q-18 0 -28 10q3 4 6 4t10.5 -2.5t10.5 -2.5q48 0 48 73q0 7 -3.5 19t-3.5 16q1 1 2 4
h5q13 -8 13 -45zM137 51q0 -56 -39 -56q-37 0 -37 52q0 53 39 53q37 0 37 -49z" />
    <glyph glyph-name="quotedbl" unicode="&#x22;" horiz-adv-x="254" 
d="M95 431h-21l-16 106q-6 42 -6 65q0 41 15 50q20 12 35 0q14 -9 14 -57q0 -32 -5 -61zM197 431h-21l-16 106q-7 40 -7 64q0 42 16 51q20 12 34 0q14 -9 14 -57q0 -32 -4 -61z" />
    <glyph glyph-name="numbersign" unicode="#" horiz-adv-x="387" 
d="M371 399l-76 -1l-29 -158h83l-13 -62l-80 1l-31 -180l-46 1l28 178l-66 1l-28 -178l-46 1l31 179l-79 1l15 58l75 -1l28 161l-85 1l15 64h81l32 188h46l-32 -191h61l36 190l46 -1l-31 -185l80 -1zM180 398l-25 -159l68 1l27 159z" />
    <glyph glyph-name="dollar" unicode="$" horiz-adv-x="287" 
d="M109 530q-14 -3 -20 -16.5t-3 -31.5q2 -13 9 -35q9 -25 14 -29v112zM161 200q0 50 -23 64v-136q23 13 23 72zM143 714q-18 -16 -28 -59q23 -4 37 -30q10 10 42 28v-232h-33v64q-3 43 -31 45l-1 -140q0 -38 37 -38q2 0 6.5 1.5t7.5 1.5q15 0 15 -13q0 -11 -11 -11
q-4 0 -8.5 5t-7.5 5q-5 0 -5 -10q38 -51 50 -107q8 -39 8 -85q0 -104 -41 -134q-19 -13 -43 -11q1 -35 16 -35q6 0 19 6q6 -5 6 -14q0 -24 -19 -24q-10 0 -21 7v-6q0 -11 19 -26q-11 -8 -24 -27q-16 20 -27 27q20 14 20 33q-9 -8 -21 -8q-21 0 -21 21q0 6 9 18q8 -8 17 -8
q16 0 20 36q-32 6 -46 51q-6 -19 -50 -46v249q25 -2 37 -1q1 -64 17 -96q13 -26 29 -23v161q0 7 -9.5 14t-15.5 5q4 7 4 19q0 13 -19 40q-52 71 -52 172q0 44 20 77q24 40 65 37q-9 47 -28 60q20 20 31 47q8 -21 30 -46zM101 187q-5 14 -8 41l7 1q2 -24 8 -45q-3 1 -7 3z
M178 384q3 -6 25 -18q18 -9 18 -33q0 -10 -4 -19q48 -70 48 -164q0 -118 -50 -159l-9 5q49 39 49 149q0 104 -45 167v3q4 9 4 18q0 21 -21 29t-25 23l1 7h57l-1 232q8 -1 13 4q-3 -32 -1 -245q-42 3 -59 1z" />
    <glyph glyph-name="percent" unicode="%" horiz-adv-x="430" 
d="M416 172q0 -3 -6 -11.5t-6 -15.5v-89q0 -32 -24 -48t-58 -14q-30 1 -44 21l2 5q27 -20 47 -20q26 0 47.5 14t21.5 38v77q0 18 12 43q0 1 -5 9t-5 10q0 118 -10 131l7 3q10 -17 10 -47v-80q0 -10 5.5 -17t5.5 -9zM392 187q-12 -14 -12 -26v-82q0 -60 -57 -60q-68 0 -71 58
q1 -8 1 90q0 7 -6 14.5t-6 9.5q12 17 12 28q0 7 -1 35q-1 22 0 35q2 67 67 67q62 0 61 -69v-71q0 -16 6 -21.5t6 -7.5zM339 120v127q0 33 -24 33q-22 0 -22 -33v-128q0 -9 8 -16.5t16 -7.5q22 0 22 25zM186 472q0 -3 -6 -11.5t-6 -15.5v-89q0 -32 -24 -48t-58 -14
q-30 1 -44 21l2 5q27 -20 47 -20q26 0 47.5 14t21.5 38v77q0 18 12 43q0 1 -5 9t-5 10q0 118 -10 131l7 3q10 -17 10 -47v-80q0 -10 5.5 -17t5.5 -9zM162 487q-12 -14 -12 -26v-82q0 -60 -57 -60q-68 0 -71 58q1 -8 1 90q0 7 -6 14.5t-6 9.5q12 17 12 28q0 7 -1 35
q-1 22 0 35q2 67 67 67q62 0 61 -69v-71q0 -16 6 -21.5t6 -7.5zM109 420v127q0 33 -24 33q-22 0 -22 -33v-128q0 -9 8 -16.5t16 -7.5q22 0 22 25zM396 649l-343 -651l-22 13l343 649z" />
    <glyph glyph-name="ampersand" unicode="&#x26;" horiz-adv-x="349" 
d="M271 537q-2 -87 -66 -156l9 -42q-9 -7 -9 -3q-12 56 -12 50q0 2 10 12q26 27 43 69t14 72q-6 47 -6 48q-3 13 -19 37l3 3t2 3q32 -25 31 -93zM331 205q-30 5 -32 -2q-21 -84 -25 -84t-4 2q0 25 21 98h29l-1 97q13 -7 12 -13v-98zM301 253q-3 -3 -16 -3t-16 -13
q-29 -113 -29 -120q0 -19 50 -15v-108h-27q-23 0 -35 7t-29 31q-30 -43 -68 -43q-65 0 -95 98q-20 63 -20 130q0 125 79 209q-22 89 -22 133q0 95 79 95q47 0 65 -28q14 -23 14 -77q0 -39 -15 -70q-12 -25 -52 -77q-2 -3 -2 -7l37 -173q1 2 9 40q1 5 16 49q9 30 55 30
q11 0 22 -2q-1 -34 0 -86zM325 -47h-60q-32 0 -47 19q-48 -23 -60 -23q-52 0 -77 44h6q17 -11 32 -21t28 -10q40 0 71 28q18 -26 49 -26h45l1 104h12v-115zM169 535q0 18 -14 18q-21 0 -21 -27q0 -3 5.5 -28t6.5 -25q23 38 23 62zM156 115q-6 24 -15 66q-2 8 -6 16
q-9 16 -27 23q1 0 8.5 15.5t7.5 28.5q0 35 -12 70q-1 1 -2 13q-33 -43 -33 -127q0 -72 27 -99q12 -13 30 -13q13 0 22 7z" />
    <glyph glyph-name="quotesingle" unicode="'" horiz-adv-x="135" 
d="M79 431h-21l-17 106q-6 42 -6 65q0 41 15 50q20 12 35 0q14 -9 14 -57q0 -32 -4 -61z" />
    <glyph glyph-name="parenleft" unicode="(" horiz-adv-x="259" 
d="M277 -139l-23 -20q-100 85 -153.5 203t-53.5 251q0 129 55 248q57 124 157 197l18 -24q-148 -162 -148 -417q0 -135 32 -234q34 -105 116 -204z" />
    <glyph glyph-name="parenright" unicode=")" horiz-adv-x="300" 
d="M273 285q0 -129 -54 -247q-57 -123 -157 -197l-20 24q149 160 149 417q0 135 -32 233q-34 105 -117 205l23 20q101 -86 154.5 -204t53.5 -251z" />
    <glyph glyph-name="asterisk" unicode="*" horiz-adv-x="297" 
d="M281 493q0 -29 -28 -29q-15 0 -47 31q-39 39 -47 44q0 -18 13.5 -52t13.5 -50q0 -27 -30 -27q-28 0 -28 27q0 17 12.5 50.5t12.5 51.5q-12 -6 -46 -44q-28 -31 -48 -31q-27 0 -27 28q0 20 49 34q34 9 69 18q-34 10 -68 19q-48 15 -48 37q0 26 29 26q14 0 45 -31
q39 -39 46 -44q-2 15 -14 51q-11 32 -11 50q0 29 28 29t28 -28q0 -19 -11 -51q-13 -37 -15 -51q7 5 47 43q33 32 44 32q29 0 29 -26q0 -21 -47 -36q-35 -10 -69 -20q35 -9 70 -17q48 -13 48 -34z" />
    <glyph glyph-name="plus" unicode="+" horiz-adv-x="461" 
d="M478 289h-199v-199h-38v199h-200v39h200v200h38v-200h199v-39z" />
    <glyph glyph-name="comma" unicode="," horiz-adv-x="197" 
d="M166 19q-2 -54 -61 -140l-6 7q58 83 58 131q0 52 -23 87l6 5q29 -41 26 -90zM72 -99q-7 0 -7 7q19 45 19 79q0 6 -19 25t-19 57q0 16 9.5 31.5t24.5 15.5q13 0 28 -14q22 -20 22 -65q0 -70 -46 -126q-9 -10 -12 -10z" />
    <glyph glyph-name="hyphen" unicode="-" horiz-adv-x="231" 
d="M176 294h-169v73h169v-73zM205 263v76h8v-84h-174l-1 8h167z" />
    <glyph glyph-name="period" unicode="." horiz-adv-x="183" 
d="M151 44q1 -39 -15.5 -62t-50.5 -19q-9 1 -16 6l4 7q17 -3 24 -3q22 0 34 24q11 20 11 43q0 15 -11 57l7 7q11 -23 13 -60zM116 57q0 -56 -35 -56q-19 0 -30 22q-9 17 -9 39q0 51 37 51t37 -56z" />
    <glyph glyph-name="slash" unicode="/" horiz-adv-x="363" 
d="M56 -16q97 216 302 703l31 -13q-58 -143 -110 -266q-123 -295 -191 -439l-1 -2q-6 3 -31 17z" />
    <glyph glyph-name="zero" unicode="0" horiz-adv-x="323" 
d="M273 393h-10l-1 139q4 59 -30 94l9 5q31 -46 31 -101zM289 342q0 -15 -17 -30q-10 11 -18 11q-19 0 -19 -21l-1 -192q3 -43 -25 -76q-29 -36 -71 -36q-3 0 -34 9q-60 17 -60 111l1 182q0 11 -16 27q8 11 18 35l1 8q-14 -17 -26 -17q-8 0 -15 8t-7 16q0 21 20 27h3
q3 -16 13 -16q11 0 11 10l1 157q0 38 25 66t63 33h8q39 0 67 -40.5t28 -80.5l-1 -185q14 19 30 19q21 0 21 -25zM327 345q-7 -54 -45 -65q-4 -1 -15 0v-187q-1 -25 -11 -58q-9 -15 -17 -27q-21 -29 -38 -34q-7 -1 -7 7q29 13 47 53q14 30 16 60q1 12 1 191q0 7 20 3
q18 9 19.5 10t11.5 14l9 36zM189 -43q0 -23 -21 -23q-13 0 -19 13t-11 25q-6 -13 -13 -26.5t-21 -13.5q-20 0 -20 24q0 13 9 22q11 -14 20 -14q12 0 18 12q3 10 7 20q10 -29 25 -29q-3 0 17 8q9 -5 9 -18zM163 -88l-14 -19q-5 -7 -10 -18q-5 11 -23 34q11 7 22 32
q8 -13 25 -29zM187 272l-1 26q0 23 -15 32q0 2 6 9t6 23v41v42q0 68 -45 68q-30 0 -40 -20q-7 -13 -7 -46v-108q4 8 15.5 17t21.5 9q8 0 15 -8t7 -16q0 -28 -20 -33q-7 13 -25 9q-17 -4 -16 -32v-90q0 -47 50 -47q33 0 43 28q5 15 5 58v38zM167 473l-7 -2q-4 12 -23 12
q-12 0 -16 -15q-3 -11 -3 -49v-31q1 -18 1 -15l-8 1q0 85 3 97q5 19 23 19q24 0 30 -17zM146 290l-4 -2q-4 0 -9 -1l-2 -1q-1 0 -14 5q-4 -2 -3 -10v-92q0 -17 8 -24l-4 -5q-12 11 -12 28v93q-1 6 2.5 13t9.5 5q15 -4 16 -4l8 1q13 8 19 22l5 -3q-8 -18 -20 -25zM176 701
q-8 -4 -24 -23q-14 -20 -18 -23q-3 16 -37 46q24 16 38 59q6 -15 11 -25q10 -22 30 -34z" />
    <glyph glyph-name="one" unicode="1" horiz-adv-x="275" 
d="M204 349q0 -16 -13 -29q-13 12 -30 5q-22 -9 -17 -77q-6 -116 43 -108v-140h-22q-30 -1 -40 131q-5 -37 -11 -73q-11 -57 -41 -58l-18 -1v139q49 -6 49 111q0 69 -20 82l13 13t7 14q0 3 -1 6q-1 1 -7 -7t-17 -8q-22 0 -22 26q0 11 15 26q1 0 8 -8t10 -8q17 0 18 11
q0 -1 0 47q0 39 -45 42v145q35 -4 51 21q2 1 15 1q16 0 19 -1l-1 -307q3 10 15 19t19 9q10 0 16.5 -8t6.5 -15zM177 -29q0 -26 -20 -26q-30 0 -34 47q-8 -47 -33 -47q-8 0 -15 8.5t-7 15.5q0 13 12 19q7 -8 16 -8q8 0 18 9t9 21q5 -10 9 -20q6 -13 14 -13q14 0 19 13
q12 -7 12 -19zM145 -81q-3 -3 -23 -44q-4 14 -25 45q9 9 26 28q7 -12 22 -29zM190 626v-235h-10v235h10zM229 321q2 9 1 18q-2 11 -2 14l7 3q7 -16 6 -25q-3 -18 -7 -26q-13 -22 -26 -22h-21v-104h-10v109q0 6 5 5h26q10 1 21 28zM233 110v-144q-23 1 -31 0v10h21v134h10z
M160 702q-8 -7 -21 -24q-12 -20 -16 -23q-3 16 -31 47q18 15 31 58q22 -47 37 -58z" />
    <glyph glyph-name="two" unicode="2" 
d="M185 701q-8 -5 -21 -22q-14 -21 -18 -24q-3 16 -37 46q24 16 37 59q22 -47 39 -59zM277 486q0 -45 -21 -110l-9 3q20 64 20 107q0 10 -3 31.5t-3 32.5q0 8 -21 63l9 3q22 -56 22 -66.5t3 -32t3 -31.5zM158 478l-2 -9q-8 4 -27 2q-7 -1 -8 -2q-5 -2 -8 -12q-7 -30 -4 -101
h-8h-33v7h29q-2 51 5 94q5 26 31 26q12 0 25 -5zM252 343q0 -19 -29 -32q-8 19 -20 19q-13 0 -43 -48q-60 -95 -76 -139q3 -1 66 -1q30 0 36 17q3 27 5 53h28v-142q1 -22 -11 -45q-13 -27 -30 -27q-3 0 -50 -1h-49q-43 0 -45 1q0 46 -3 75.5t30 103.5q17 39 75 136
q0 3 -7 22q29 3 32 23q1 1 -1 4q-9 -11 -21 -11q-10 0 -16.5 8t-6.5 14q0 8 9.5 17t21.5 12q1 -1 1 -12.5t12 -11.5q28 0 28 73q0 58 -56 58q-61 0 -53 -121h-33l1 38q0 170 56 212q21 15 40 15q23 0 39 -15q49 -46 49 -129q0 -31 -6 -74q-8 -54 -18 -69q-1 -2 1 -7
q9 6 19 6q25 0 25 -22zM282 306q-9 -11 -19 -22t-26 -14q-4 0 -15 1l-20 11q-50 -74 -71 -122h-10q30 73 75 131q2 3 4 3t25 -13l24 1l26 31zM177 -38q0 -24 -20 -24q-29 0 -35 37q-3 -4 -12 -25q-4 -12 -19 -12q-23 0 -23 23q0 2 9 20q1 -1 7.5 -6t10.5 -5q8 0 28 27
q4 -10 8.5 -18.5t13.5 -8.5q10 0 20 13q12 -12 12 -21zM145 -88q-17 -17 -24 -37q-5 19 -24 38q9 7 23 22q4 -6 12.5 -13t12.5 -10zM211 -24l-5 5q11 7 30 25q9 12 19 51l-1 122l11 1v-123q-18 -71 -54 -81z" />
    <glyph glyph-name="three" unicode="3" 
d="M185 697q-13 0 -27 -18q-16 -21 -21 -24q-2 16 -37 46q25 16 40 59q6 -16 12 -29q8 -18 33 -34zM270 142q0 -64 -7 -92q-1 -2 -13 -30q-10 -21 -38 -32l-7 6q13 5 35 24q19 30 19 124v89q0 13 -4 47q-3 11 -6 19q-8 20 -19 27q23 15 26 45v88v79q0 51 -34 91l5 3l20 -24
q19 -35 19 -69v-176q-1 -16 -20 -39q14 -15 20 -40q2 -22 3 -52zM231 431q0 -24 -3 -43q-7 -45 -29 -59q27 -20 27 -99v-46v-47q0 -76 -8 -97q-17 -43 -81 -45q3 -10 7.5 -21.5t14.5 -11.5q7 0 22 16q9 -14 9 -24q0 -24 -21 -24q-24 0 -34 37q-2 -2 -11 -24q-5 -13 -21 -13
q-22 0 -22 24q0 10 12 21q5 -10 14 -10q13 0 19 9q1 2 8 21q-88 23 -88 143q0 138 -1 127q4 1 37 0l1 -94q0 -17 19 -26q15 -8 32 -8q51 0 51 49q0 10 -19 28q2 5 12 15q7 7 7 22q0 44 -53 53v44q23 1 40.5 16.5t17.5 38.5q0 15 -19 29q19 19 19 33q0 48 -54 44
q-47 -4 -47 -52v-65h-38v146q0 38 24 73q28 39 67 39q37 0 61.5 -30.5t27.5 -71.5v-117zM109 172h-7v69h7v-69zM84 -8l-6 -8q-11 8 -21 23h10zM158 -92q-15 -20 -22 -33q-7 9 -29 33q12 3 28 25q12 -18 23 -25zM167 472l-16 4q-12 2 -21.5 -7t-9.5 -22v-85h-5h-44v8h40v76
q0 37 36 37q12 0 22 -7z" />
    <glyph glyph-name="four" unicode="4" 
d="M257 349q0 -14 -17 -30q-4 3 -9 7.5t-13 2.5q-7 -2 -13.5 -10.5t-6.5 -11.5v-64q27 -3 56 1l1 -49q0 -1 -24 1q-27 1 -35 -1q-2 -7 -2 -14q0 -19 15.5 -30.5t36.5 -10.5v-139h-23q-15 0 -26 27q-7 20 -8 32q-1 31 -10 74q-3 -28 -11 -82q-2 -9 -12 -28q-14 -23 -24 -23
h-23v137q40 5 48 27q1 15 3 30q-103 2 -122 1v100q0 3 4 12t4 12q0 6 -10 22q27 17 26 23q-2 1 -9 -1.5t-9 -2.5q-20 0 -24 22q-3 22 26 30q1 -5 2 -11t11 -8q-2 -1 5 -1q9 0 23 45q6 25 13 50q33 101 51 161q4 0 15 3t17 3q9 0 16 -5l1 -305q9 31 34 27q23 -4 23 -23z
M225 -32q0 -25 -21 -25q-13 0 -18.5 10.5t-10.5 20.5h-2q-14 -34 -36 -34q-19 0 -19 25q0 9 9 23q24 -13 22 -13q8 0 14.5 11t6.5 23l10 -19q7 -13 20 -13q10 0 15 11q10 -13 10 -20zM201 -80q-12 -6 -28 -45q-4 15 -7 24q-7 13 -18 18q10 9 25 28q6 -15 28 -25zM160 242
l-1 295l-62 -178q10 5 16 5q21 0 21 -24q0 -27 -18 -27q-4 0 -9.5 8t-8.5 8q-16 0 -19 -46v-41h81zM242 638v-242h-10l-1 121q0 18 1 48q0 34 0.5 43.5t-0.5 28.5v3zM294 226q0 -60 1 -60h-52l1 -5l-9 -2q-4 17 2 17h47v50h10zM285 117v-142q0 -6 -1 -6l-44 1v10h35v137h10z
M292 351q0 -37 -12 -49t-40 -10v-40h-10v45q0 5 5 5q27 -2 37 6.5t10 42.5h10zM65 167h61v-7h-61v7zM148 431l-17 -57l-6 2l17 57zM146 305q-15 -18 -29 -18q-6 0 -13 3v-36h-7v43q0 7 6 3q7 -6 14 -6q11 0 23 15zM211 700q-7 -3 -21 -21q-16 -21 -20 -24q-3 16 -37 46
q24 16 38 59q4 -15 12 -31q9 -16 28 -29z" />
    <glyph glyph-name="five" unicode="5" 
d="M198 701q-19 -5 -33 -25q-11 -16 -14 -32q-4 49 -39 57q23 8 34 35l9 24q5 -15 10 -21q8 -24 33 -38zM260 482q0 -5 -5 -5h-102l-7 -26l-10 3q10 33 13 33h101v146h10v-151zM230 88q0 -16 -12 -43q-12 -31 -26 -40q-19 -11 -49 -11q-47 0 -74 47q-21 38 -20 80v125h37
l-1 -70q0 -48 54 -43q34 2 44 28q7 15 7 49q0 46 -19 56q0 2 11 16q8 10 8 42t-4 44q-9 25 -39 25q-40 0 -64 -48h-26q0 53 10 159q13 132 14 145h27q35 0 42 -76q2 -15 7 -49q0 3 2 10q-2 28 6 63q11 52 40 52h22v-144l-112 1l-9 -83q9 5 26 12q13 4 27 4q32 0 53 -33
q18 -27 18 -54v-264zM267 79q-3 -46 -20 -62q-4 -12 -18.5 -27t-25.5 -13l2 10q5 -1 17.5 12t15.5 22l1 2q12 13 18 57v273q0 27 -14 46l8 6q16 -22 16 -52v-274zM116 163h-8v66h8v-66zM203 -50q0 -23 -21 -23q-20 0 -34 38q-6 -13 -12 -25.5t-18 -12.5q-19 0 -21 12v25
q3 0 9 6q8 -11 16 -11t15 8.5t8 18.5q4 -2 10 -14.5t17 -12.5q5 0 19 14q12 -5 12 -23zM171 -95q-14 -19 -23 -30q-4 6 -11.5 16t-13.5 11q16 9 25 25q9 -13 23 -22zM168 355q-6 1 -12 1q-31 0 -50 -42l-38 -2v10h30q23 42 58 42q7 0 14 -2z" />
    <glyph glyph-name="six" unicode="6" 
d="M197 714q-12 -6 -26 -25q-16 -22 -19 -23q-2 11 -13.5 27t-25.5 21q22 6 30 23q5 11 10 23q6 -12 10 -22q11 -20 34 -24zM191 469l-7 -4q-11 15 -23 15q-17 0 -21 -22q-1 -5 0 -36h-8q-1 31 0 38q6 28 28 28q17 0 31 -19zM286 176q0 -72 -9 -107q-15 -61 -61 -83l-4 9
q42 20 56 79q8 33 8 102v151q0 26 -11 44q-3 5 -28 33q-6 7 -6 11q0 3 5 3h37q0 -6 0 59q0 142 -17 146l3 10q20 -5 24 -74v-82v-66.5t-5 -2.5h-31l4 -4q35 -37 35 -77v-151zM243 444q-14 0 -24 1q-10 0 -8 0q-8 72 -51 72q-45 0 -55 -58v-75q9 13 31 24q18 9 28 9
q11 0 28 -8.5t25 -19.5q24 -34 24 -101l1 -138q1 -47 -18 -92q-26 -59 -72 -58q3 -9 6 -17q5 -11 15 -11t20 14q12 -12 12 -23q0 -23 -20 -23q-19 0 -34 35q-5 -11 -9 -21q-7 -17 -20 -17q-23 0 -23 25q0 7 6 18q3 0 9.5 -4t9.5 -4q13 0 23 21v8q0 1 -12 3q-33 4 -54 38
q-19 30 -21 70v184q0 24 -16 44q5 8 16 24l-2 18q-12 -19 -23 -19q-20 0 -20 25q0 18 12 26h9q2 -16 12 -16q7 0 11 7q1 49 3 98q3 70 20 107q23 51 74 51q25 0 37 -9q33 -25 43 -58q6 -20 6 -67q0 1 1 -38q1 -35 0 -45zM176 -83q-16 -21 -24 -42q0 9 -8.5 22t-15.5 14
q3 4 11.5 13t11.5 13q8 -8 25 -20zM202 216q0 32 -16 42q15 4 15 50q0 20 -11 38q-15 23 -40 21q-45 -3 -48 -73v-60q-1 -20 -1 -16q0 -37 7 -51q10 -23 42 -23q52 0 52 72zM174 317q-10 10 -19 10q-21 0 -21 -42v-82q0 1 2 -26l-8 -1q-2 27 -2 109q0 52 27 52q12 0 27 -14z
" />
    <glyph glyph-name="seven" unicode="7" 
d="M184 705q-16 -1 -32 -23t-15 -38q-7 50 -42 64q31 11 44 52q5 -12 11 -23q10 -22 34 -32zM237 627q0 -47 -27 -115q-54 -138 -55 -143v-7q20 11 30 11q23 0 23 -23q0 -18 -23 -33q-1 0 -10 8t-13 8q-25 0 -25 -100q0 -90 31 -231h-43q-1 -2 -1 -7q0 -20 18 -20q7 0 20 14
q12 -13 12 -25q0 -21 -22 -21q-18 0 -34 32q-5 -12 -10 -23.5t-20 -11.5q-22 0 -22 23q0 11 9 20q15 -8 17 -8q16 0 24 23q-6 6 -18 5q-20 -1 -21 -1q-3 10 -3 25q0 59 12 153q12 86 23 133q4 13 -6 24q0 1 11 12t10 17q1 2 -2 5q-9 -11 -21 -11q-20 0 -20 23q0 18 23 31
q0 -17 15 -20q13 -2 14 1q18 33 53 119h-45q-61 0 -67 -70l-24 -1l1 209l23 -1q43 -13 53 -49q5 -36 11 -71q3 71 26.5 98.5t72.5 24.5v-27zM145 -83q-14 -16 -24 -42q-8 22 -26 39q9 9 25 29q9 -16 25 -26zM284 631l-13 -86l-62 -153l-9 4l61 152l14 85zM233 307
q-17 -31 -45 -30l-2 1l-14 6q-4 -66 10 -153q15 -90 40 -146q3 -5 -10 -6h-13l-6 6l15 5q-47 108 -47 265q0 21 1 38q1 4 5 4q2 0 22 -10q22 0 35 25zM59 419q11 -1 21 1q17 48 19 51q14 23 48 18l-1 -6q-21 3 -29 -9t-15 -24q-4 -19 -11 -38q-6 -2 -32 1v6z" />
    <glyph glyph-name="eight" unicode="8" 
d="M181 708q-13 -4 -25.5 -19t-14.5 -28q-8 0 -8.5 5t-14.5 22t-24 17q25 11 36 35q3 10 5 20h3q-2 -40 43 -52zM276 380q0 -35 -24 -61q22 -31 23 -89q0 -46 -1 -93q3 -48 -11 -89q-18 -55 -61 -72l-3 9q31 10 51 63q17 46 14 88v95q-2 59 -25 88q-1 1 3 4q24 23 24 57
q0 14 1 48t1 52q0 105 -36 155l8 6q38 -52 38 -160q0 -19 -1 -53t-1 -48zM234 426q1 -62 -32 -100q22 -23 27 -59q2 -12 2 -67q0 -88 -11 -129q-20 -81 -82 -74v-4q-1 -8 8.5 -17t16.5 -9l14 11q5 -4 11 -21q0 -23 -22 -23q-23 0 -29 38q-9 -23 -11 -26q-7 -12 -23 -12
q-17 0 -22 25q0 13 8 21l23 -13q23 1 22 30q-60 8 -78 74q-9 34 -9 118q0 117 34 135q-37 39 -37 117q0 102 7 133q18 81 85 81t87 -77q8 -32 10 -131zM159 -91q-13 -11 -25 -34q-10 31 -22 33q9 9 24 27q7 -10 23 -26zM186 430q0 76 -50 76q-47 0 -48 -74v-17q0 -58 53 -58
q45 0 45 73zM192 224q0 41 -7 59q-11 31 -45 31q-52 0 -52 -90q0 -76 56 -76q24 0 37 26q11 22 11 50zM174 276l-7 -9q-12 8 -21 8q-8 0 -16 -7q-11 -12 -11 -46q0 -11 6 -29.5t13 -22.5l-4 -6q-9 6 -16.5 27t-7.5 33q0 28 7 42q11 21 33 21q14 0 24 -11zM161 462
q-11 9 -20 9q-7 0 -12 -6.5t-10 -29.5q-1 -27 6 -50l-8 -3q-1 6 -3 15q-7 29 -2 53q7 30 28 30q12 0 25 -10z" />
    <glyph glyph-name="nine" unicode="9" horiz-adv-x="314" 
d="M178 703q-32 -7 -43 -45q-5 -1 -9.5 8.5t-8.5 19.5q-9 13 -26 21q33 20 40 53h4q11 -46 43 -57zM279 341q0 -7 -6 -18.5t-11 -11.5q-2 0 -3 2q-6 9 -19 9q-20 0 -20 -20v-185q0 -31 -17 -71q-19 -47 -45 -50q-9 1 -28 -1q10 -23 23 -23q11 0 15 11q12 -12 12 -21
q0 -11 -8 -18t-14 -7q-12 0 -29 35q-4 -8 -13 -24q-9 -11 -22 -11q-21 0 -21 26q0 2 8 20q1 0 10 -6.5t13 -6.5q7 0 13.5 9.5t5.5 15.5q-1 1 -5 4q-38 10 -61 59q-19 40 -18 76v79h31q0 -48 14 -66q11 -15 41 -15q42 0 50 64l-2 80q-34 -33 -58 -33q-31 0 -56 37
q-21 31 -21 54v200q0 41 21 76q26 43 70 43q78 0 92 -122l1 -185q19 22 32 22q25 0 25 -27zM152 -86q-12 -9 -15.5 -16.5t-8.5 -22.5q-5 26 -24 39q16 9 22 23q17 -17 26 -23zM178 441q0 71 -50 71q-55 0 -55 -69q0 -4 6.5 -19t6.5 -18q0 -4 -7.5 -15.5t-8.5 -13.5
q0 -5 1.5 -11.5t1.5 -8.5q0 -70 42 -70q25 0 43.5 24t16.5 56q-2 30 -1 48q0 12 2 19zM257 277q7 0 7 1q16 3 30 17.5t13 30.5l10 1q2 -20 -13.5 -36.5t-36.5 -21.5v-156q-1 -10 -9 -45q-13 -51 -31 -69l-23 -24l-7 8l23 23q26 26 37 108v163zM234 620q23 -24 28 -67
q2 -16 2 -74v-89h-10v89q0 57 -2 71q-4 41 -25 63zM153 463q-6 5 -33 10q-14 -13 -14 -40q0 -6 5.5 -19.5t5.5 -19.5q0 -9 -5 -21t-5 -24q0 -14 6 -36l-7 -2q-10 37 -10 46q0 17 14 38q-14 46 -14 40q0 48 32 48q14 0 29 -13zM102 206q-2 -12 2 -30q4 -11 15 -20l-6 -4
q-3 2 -9.5 10t-6.5 14q-5 13 -2 30h7z" />
    <glyph glyph-name="colon" unicode=":" horiz-adv-x="181" 
d="M151 44q1 -39 -15.5 -62t-50.5 -19q-9 1 -16 6l4 7q17 -3 24 -3q22 0 34 24q11 20 11 43q0 15 -11 57l7 7q11 -23 13 -60zM116 57q0 -56 -35 -56q-19 0 -30 22q-9 17 -9 39q0 51 37 51t37 -56zM151 324q1 -39 -15.5 -62t-50.5 -19q-9 1 -16 6l4 7q17 -3 24 -3q22 0 34 24
q11 20 11 43q0 15 -11 57l7 7q11 -23 13 -60zM116 337q0 -56 -35 -56q-19 0 -30 22q-9 17 -9 39q0 51 37 51t37 -56z" />
    <glyph glyph-name="semicolon" unicode=";" horiz-adv-x="189" 
d="M151 324q1 -39 -15.5 -62t-50.5 -19q-9 1 -16 6l4 7q17 -3 24 -3q22 0 34 24q11 20 11 43q0 15 -11 57l7 7q11 -23 13 -60zM116 337q0 -56 -35 -56q-19 0 -30 22q-9 17 -9 39q0 51 37 51t37 -56zM166 19q-2 -54 -61 -140l-6 7q58 83 58 131q0 52 -23 87l6 5
q29 -41 26 -90zM72 -99q-7 0 -7 7q19 45 19 79q0 6 -19 25t-19 57q0 16 9.5 31.5t24.5 15.5q13 0 28 -14q22 -20 22 -65q0 -70 -46 -126q-9 -10 -12 -10z" />
    <glyph glyph-name="less" unicode="&#x3c;" horiz-adv-x="453" 
d="M86 301v50l361 170v-50l-309 -145l309 -145v-51z" />
    <glyph glyph-name="equal" unicode="=" horiz-adv-x="458" 
d="M48 369h389v-56h-389v56zM48 235h389v-53h-389v53z" />
    <glyph glyph-name="greater" unicode="&#x3e;" horiz-adv-x="432" 
d="M67 130v51l307 145l-307 145v50l361 -170v-50z" />
    <glyph glyph-name="question" unicode="?" horiz-adv-x="262" 
d="M236 541q6 -17 -30 -135q-7 5 -7 8q24 103 24 129q0 23 -17 84q-1 5 4 5q11 0 17 -39q5 -26 9 -52zM106 437q0 -4 -7 -4t-13 1.5t-17.5 8t-11.5 10.5q0 2 3 5q20 -6 29 -14q10 0 17 -3v-4zM202 381q0 -23 -10 -24q-6 0 -12.5 6.5t-9.5 6.5q-19 2 -31 -43q-10 -35 -10 -61
q0 -7 5 -19t5 -17q-24 -17 -28.5 -44t-8.5 -54q-11 -2 -22 0q-2 52 -30 106q25 20 37 58q22 64 43 212q1 11 1 20q0 41 -31 41q-24 0 -24 -33q0 -20 19 -41q-1 -4 -11 -12t-14 -8q-51 0 -51 81q0 44 20 75q22 35 64 35q39 0 65.5 -29.5t26.5 -69.5q0 -30 -10 -77
q-13 -58 -15 -76q32 -13 32 -33zM231 354q-7 -31 -41 -44q-28 -11 -28 -60q0 -13 14 -36q-40 -50 -36 -113l-4 -2h-4q-5 0 -5 10q0 50 33 108q-1 4 -5 18q-3 11 -3 18q0 47 20 60q14 6 29 13.5t20 21.5q3 9 3 15q0 5 -13 24l9 -2q16 -12 11 -31zM173 36q0 -27 -14 -50
q-17 -26 -41 -26q-15 0 -26 12q2 1 6 1q2 0 7 -2t8 -2q22 0 35 25q11 20 11 44q0 12 -7 29t-7 18.5t3 3.5q10 -1 18 -23q7 -18 7 -30zM136 45q0 -49 -34 -49q-43 0 -43 54q0 52 37 52q40 0 40 -57z" />
    <glyph glyph-name="at" unicode="@" horiz-adv-x="554" 
d="M319 225q-38 -70 -88 -71q-38 0 -63 28q-29 33 -29 95q0 88 42.5 158.5t96.5 70.5q59 0 72 -78l14 65h49l-38 -180q-9 -41 -9 -63q0 -43 42 -43q37 0 64.5 54.5t27.5 133.5q0 108 -60 173q-56 60 -139 60q-108 0 -177 -84q-75 -89 -75 -242q0 -127 68 -207
q64 -75 159 -75q101 0 201 80l15 -29q-103 -90 -213 -90q-114 0 -191 88.5t-77 232.5q0 143 69 243q80 117 220 117q102 0 167 -76q62 -72 62 -180q0 -127 -48 -196q-39 -55 -91 -55q-55 0 -71 70zM193 264q0 -32 13 -50t30 -18q36 0 67 65q30 62 30 133q0 30 -13.5 48.5
t-32.5 18.5q-37 0 -66 -68q-28 -62 -28 -129z" />
    <glyph glyph-name="A" unicode="A" horiz-adv-x="314" 
d="M200 54q-14 -34 -19 -40q-11 -13 -40 -19h-5v-4q-1 -29 19 -29q-3 0 15 7q7 -3 7 -24q0 -7 -7 -14t-14 -7t-20 8q2 -9 22 -24q-16 -16 -29 -33q-14 19 -29 30q24 18 24 25l-1 2q-14 -7 -18 -7q-20 0 -20 24q0 23 10 23q1 0 5 -3t8 -3q18 0 18 30q-1 -1 -3 -1q-1 1 -4 1
q-40 5 -52 63q-13 -36 -16 -41q-12 -19 -37 -19h-11l-1 110h16q16 0 24 36q7 30 15 115q3 39 3 37q0 15 -22 30q9 5 21 21h-2q-2 0 -6.5 -1.5t-7.5 -1.5q-22 0 -22 19q0 24 14 24q2 0 4.5 -7t9.5 -7q19 0 24 50l24 228h27q-2 27 -28 44v1q26 19 34 63q9 -27 14 -37
q9 -17 21 -27q-8 -7 -17 -14q-13 -14 -15 -30h25q11 -105 37 -313l1 -2q2 1 12 10q7 6 14 6q11 0 18.5 -8.5t7.5 -19.5q0 -18 -16 -27q-2 6 -13 12q-8 1 -14.5 -7.5t-5.5 -15.5v-2q4 -29 11 -87q1 -17 6 -50q6 -37 30 -41q7 -1 19 -3v-104h-4q-55 -1 -61 54zM266 306
q0 -27 -29 -37q5 -54 18 -146q-1 0 -6 0.5t-8 28.5q-2 18 -9 77q-2 13 -4 38v2q0 5 4 7q32 15 29 40q5 -4 5 -10zM183 -32q-3 0 -5 6q15 8 42 28q31 -28 62 -28h2v97l9 -1v-107q-42 1 -72 27q-3 -1 -18 -11.5t-20 -10.5zM89 -7q-19 -32 -52 -32l-1 8q34 7 45 29zM227 365
l-29 256q-11 1 -11 2q0 -5 10 -85l20 -175q3 -1 6 -1q4 0 4 3zM147 326l-15 156l-18 -164q-1 -4 3.5 -12t8.5 -8h7q6 0 10.5 11t3.5 17zM154 257q-23 -4 -45 0l-13 -104q-2 -15 -2 -14q0 -13 9.5 -23t22.5 -8v-106h11q0 -6 0 53t0 54q27 0 27 29q0 4 -1 12zM154 203l-10 -1
q-5 -36 -11 -85l-8 2q2 28 11 90h16z" />
    <glyph glyph-name="B" unicode="B" horiz-adv-x="302" 
d="M102 -60q-10 0 -21 7v-6q0 -11 19 -26q-11 -8 -25 -40q-15 33 -26 40q20 14 19 32q-8 -7 -20 -7q-22 0 -22 20q0 7 10 19q7 -8 16 -8q13 0 18 17l4 28h5v-5q-1 -39 16 -39q7 0 19 6q6 -5 6 -14q0 -24 -18 -24zM161 -4q-44 0 -57.5 21t-26.5 44q-4 -14 -8.5 -28.5
t-14.5 -22.5t-44 -10v108q24 5 25 6q18 8 18 32q0 -2 0 58v67q1 13 0 38q-2 16 -16 22q5 4 9.5 8t6.5 18q-16 -7 -19 -7q-8 0 -15.5 7t-7.5 15q0 18 15 20q9 -12 13 -12q13 0 13 18v116q0 16 -12 24.5t-28 6.5v106q1 1 6 1q57 0 64 -64q8 70 73 70q35 0 58 -24.5t23 -59.5
v-176q0 -39 -36 -63q38 -19 38 -55q0 -5 -1 -8v1v-190q0 -38 -20 -62.5t-56 -24.5zM271 257v-202q0 -41 -29.5 -70.5t-72.5 -27.5q-16 0 -47 21q1 7 4 7l8 -5q19 -13 37 -14q32 0 59 22.5t28 49.5q2 32 2 108l1 129q0 36 -25 52q1 -1 14 17q10 15 10 53q0 20 1 84q1 52 0 83
q0 11 -6 34q0 3 -4 10t-4 12q24 -12 24 -63v-178q0 -10 -7 -31q-5 -7 -14 -21q21 -17 21 -70zM183 284q0 20 -20 18q-8 5 2 15q-3 1 -6 1q-25 8 -57 20l-1 -178q0 -49 41 -49q21 0 32 23q9 19 9 42v108zM183 406v96q0 19 -11 34t-30 15q-41 0 -41 -35q1 -17 0 -46v-46
q0 -65 41 -65q19 0 30 14t11 33zM147 127q-4 -6 -7 -6q-4 0 -8.5 10t-4.5 14q0 150 1.5 149.5t9.5 -4.5v-145q2 -7 9 -18zM159 513h-11q-9 1 -9 -7v-111q-1 -8 3 -14t4 -8t-7 -2q-10 0 -10 16v110q0 30 30 25v-9zM113 704q-20 -18 -29 -63q-7 47 -30 62q17 18 29 57
q8 -31 30 -56z" />
    <glyph glyph-name="C" unicode="C" horiz-adv-x="292" 
d="M264 608v-243h-1h-2h-63v4.5v3.5h57v235h5h4zM259 72q0 -36 -17 -66q-19 -34 -50 -43l-2 9q61 26 61 108v166h8v-174zM169 503q-17 1 -14 1q-24 0 -19 -41q1 -15 -1 -104q-3 1 -8 3v123q0 26 24 26q14 0 18 -8zM169 320q0 -35 -34 -47v-153h-3q-5 0 -6 2v157q34 9 34 42
q0 13 -9 25q18 -3 18 -26zM163 714q-16 -14 -26 -49q30 -5 47 -28l3 -1l-1 16h39v-255h-49v114q0 14 -12 25.5t-27 11.5t-26 -13t-11 -28l-1 -163q23 10 22 10q26 0 26 -26q0 -17 -13 -21q-11 13 -18 13q-16 0 -16 -25l1 -138q0 -48 39 -48q34 0 35 51l-1 124l52 1v-200
q0 -97 -83 -92q3 -25 16 -25q9 0 17 6q7 -9 7 -19q0 -18 -18 -18q-10 0 -21 7v-6q0 -11 19 -26q-11 -8 -24 -37q-16 30 -27 37q20 15 20 33q-9 -8 -21 -8q-22 0 -22 20q0 6 9 18q13 -7 18 -7q14 0 19 25q-86 -2 -86 84v207q0 27 -20 40q18 11 18 23v2q-15 -8 -19 -8
q-19 0 -19 20q0 8 7 17q8 -8 15 -8q19 0 19 37v175q0 83 73 83h7q-11 36 -28 48q20 20 30 47q9 -21 31 -46z" />
    <glyph glyph-name="D" unicode="D" 
d="M116 702q-26 -24 -34 -62q-7 44 -32 62q23 24 34 58q8 -32 32 -58zM267 565v-202q-5 2 -10 2v188q0 50 -19 71l2 3q13 -4 20 -27q7 -18 7 -35zM276 330q0 -22 -16 -27q-6 15 -14 15q-13 0 -15 -19q0 2 0 -29v-191q0 -85 -77 -85q-36 0 -50 15q-10 10 -21 49
q-4 -22 -21 -40t-38 -18h-10v106q43 13 43 54v113q0 35 -24 53q21 17 20 27q-12 -9 -19 -9q-22 0 -22 19q0 20 15 23q9 -10 17 -10q12 0 12 15v102q-10 5 -31 13v8q11 -6 31 -12v5q0 16 -13 27t-30 10v108h24q21 0 31 -20q6 -20 12 -39q13 38 24 49q15 13 53 13q29 0 49 -12
q25 -15 25 -41v-258q16 10 23 10q22 0 22 -24zM300 309q0 -29 -32 -48v-203q0 -46 -26.5 -71.5t-72.5 -25.5q-16 0 -34 8l-2 11q21 -11 36 -11q40 0 65 24t25 64v209q32 16 32 51q0 12 -8 29h3q14 -11 14 -37zM126 -39q-3 -20 -19 -21q-9 -1 -21 7q0 -17 19 -32
q-11 -8 -24 -40q-16 33 -27 40q20 14 20 33q-9 -8 -21 -8q-21 0 -21 21q0 6 9 18q8 -8 17 -8q12 0 17 18q2 13 4 27h5q-1 -44 17 -44q6 0 19 6q2 -2 4.5 -8.5t1.5 -8.5zM181 161v129q0 17 -25 35q25 17 25 35v148q0 36 -36 36q-39 0 -39 -33v-8q-1 -5 -1 -7v-151q13 5 19 5
q9 0 16.5 -8.5t7.5 -17.5q0 -12 -15 -23q-9 9 -13 9q-17 0 -17 -56v-100q0 -47 39 -47t39 54zM175 509l-1 -7q-7 2 -12 2q-22 0 -22 -26v-123q-1 1 -8 4v119q0 34 29 34q9 0 14 -3zM169 298q0 -10 -14.5 -21t-14.5 -16l-1 -142q-8 6 -8 121v23q0 10 14.5 19.5t18.5 19.5z
" />
    <glyph glyph-name="E" unicode="E" horiz-adv-x="296" 
d="M107 695v-1q-18 -7 -24 -24t-11 -33l-3 1q-5 25 -9 33q-7 15 -23 25q18 8 24.5 28.5t10.5 35.5q7 -26 10 -34q6 -16 25 -31zM250 365l-1 263h12v-271h-55v9zM164 507q-24 4 -27 -9v-55h-10v67.5t37 3.5v-7zM197 317h-9v62h9v-62zM232 0h-108q-28 0 -47 55h-1
q-4 -18 -18 -35q-16 -20 -32 -20h-15v110q0 1 5 0q34 0 35 60v125q0 21 -23 31q6 0 14 11.5t8 18.5l-1 1q-11 -13 -22 -13q-22 0 -22 21q0 20 10 20q2 0 6 -4.5t9 -4.5q16 0 18 19q2 1 2 4v87q-15 16 -30 22q0 -2 0 3q0 2 1 3q13 -1 28 -19q1 11 1 14q0 42 -31 42
q-4 0 -8 -1l1 76q0 6 -1 26q6 2 12 2q44 0 47 -64h2q5 22 11 44q9 18 45 18h98v-260h-45q0 10 -1 33v33q1 60 -1 68q-6 23 -40 23q-40 0 -40 -39v-138q0 -17 10 -17q11 0 12 30v39v8h39v-207h-39v65q0 15 -12 15q-9 0 -9 -13v-144q0 -36 35 -36q32 0 41 33q3 14 3 59v105h53
v-309zM265 -36h-104q-12 0 -22 7l-4 12q6 -6 17 -10h103v295q3 0 10 -4v-300zM136 124q-1 -1 -4 -1q-7 0 -7 8l-1 82h12v-89zM121 -43v-2q2 -18 -18 -18q-10 0 -21 7v-6q0 -11 19 -26q-11 -8 -24 -37q-16 30 -27 37q20 14 20 33q-9 -8 -21 -8q-21 0 -21 21q0 6 9 18
q8 -8 17 -8q12 0 17 18q2 13 4 27h5v-5q-1 -39 17 -39q6 0 19 6q6 -5 6 -14q0 -3 -1 -4z" />
    <glyph glyph-name="F" unicode="F" horiz-adv-x="276" 
d="M253 362h-44v9h35v233h9v-242zM164 508q-2 -4 -12 -4q-15 1 -17.5 -3t-2.5 -14q0 -50 0 -43v-1h-9v48q0 15 10 19q5 2 24 2q5 0 7 -4zM190 380v-196h-44v9h34v187h10zM222 390h-51l-1 134q0 21 -39 21q-38 0 -38 -55q0 1 1 -122q0 -16 9 -16q10 0 10 13v60h41v-203h-39
v69q-6 8 -12 8q-9 0 -9 -11l-1 -138q0 -29 17 -35q13 -4 27 -8v-105q-3 -1 -11 -1q-43 0 -55 54q-10 -28 -17 -38q-13 -16 -37 -16h-14l1 107q28 10 29 11q12 9 12 33l-1 132h-1q0 27 -20 40q18 11 18 23v2q-15 -8 -19 -8q-19 0 -19 20q0 8 7 17q8 -8 15 -8q9 0 12.5 12
t5.5 23l-1 107q0 22 -41 31v106q9 3 14 3q38 0 43 -37q4 -32 7 -63q4 33 8 65q9 36 47 36h102v-263zM131 203l-1 -83q-5 0 -6 2t-2 2v79h9zM168 -34h-29t-26.5 11t-16.5 19q1 0 13.5 -8.5t16.5 -9.5q12 -4 29 -4h5v111l8 1v-120zM115 -49q0 -14 -17 -18q-7 -2 -21 6
q3 -20 20 -23q-10 -8 -25 -41q-11 29 -25 41q18 21 18 24q-8 -6 -20 -6q-20 0 -20 20q0 4 2.5 11.5t5.5 5.5q10 -8 14 -8q12 0 18 23l6 32l6 -32q5 -24 16 -24q8 0 17 7q5 -13 5 -18zM96 694q-17 -17 -21 -24q-6 -10 -10 -32q-9 34 -31 56q25 44 31 66q4 -22 17 -44
q7 -10 14 -22zM31 490q-7 14 -22 19l2 7q19 -6 27 -21z" />
    <glyph glyph-name="G" unicode="G" horiz-adv-x="296" 
d="M24 324q18 11 18 23v2q-15 -8 -19 -8q-19 0 -19 20q0 8 7 17q8 -8 15 -8q9 0 12 11l6 22v173q0 11 3 25q16 60 70 55q-5 19 -22 32q18 28 28 72q7 -32 9 -39q5 -11 21 -31q-24 -22 -22 -34q27 4 53 -31l-1 27h40v-260h-54v95q-1 -1 -2.5 3.5t-2.5 4.5q-10 5 -12 5
q-21 0 -21 -30v-112l-9 2v34v82q0 31 30 31q14 0 18 -9v9q0 33 -38 31q-35 -2 -35 -34v-159q13 6 16 6q21 0 23 -21q0 -8 -6 -18t-11 -11q-1 1 -4 9q-3 5 -7 5q-11 0 -11 -17l1 -155q0 -38 34 -38q35 0 35 37l1 111q0 34 -27 30v43q34 1 51 -29q14 30 54 30h9l-1 -47
q-13 2 -22.5 -4.5t-9.5 -39.5v-236h-39q0 6 -1 16q-5 -15 -47 -24v-4q-1 -25 14 -25q13 0 25 15q3 -8 5 -25q-3 -21 -25 -21q-14 0 -18 3q0 -9 20 -23q-10 -11 -24 -37q-6 16 -27 37q8 4 21 23q-15 -5 -17 -5q-23 0 -26 22q2 14 7 25q9 -14 20 -14q16 -1 16 23q0 9 1 6
q-82 14 -82 101v191q-1 1 -1 0q0 27 -20 40zM253 606v-244h-65v10l56 -1v239zM283 245l-14 -1q-15 0 -15 -34v-247h-48v12h38v252q0 28 30 26v46h9v-54zM134 116q-11 3 -11 8v145l11 -6v-147z" />
    <glyph glyph-name="H" unicode="H" horiz-adv-x="327" 
d="M220 2l5 -4q20 -24 58 -32h10v109q5 0 9 -1v-117q-11 0 -41 7q-17 6 -41 27l-27 -19l-2 7q11 6 29 23zM103 -3q-4 -4 -8 -9q-21 -20 -38 -21q-3 2 -5 5q9 3 23 10q4 3 22 18zM168 694q-17 -7 -30 -33h-3q-5 20 -30 33q23 22 27 39q1 10 5 27q2 -7 5 -26q3 -15 26 -40z
M298 509q-9 -1 -26 -5q-10 -4 -11.5 -15.5t-1.5 -22.5v-28v-76q-1 1 -9 4q1 9 0 12v107q0 20 17 28q3 1 22 4v100h9v-108zM137 488v-116q0 -9 -3 -9q-6 0 -6 9v117q2 21 23 21q5 0 12 -3v-8q-24 8 -26 -11zM48 489l-2 -4q-4 5 -12 13q-5 4 -12 5l1 6q7 1 15.5 -6t9.5 -14z
M290 312q0 -25 -28 -37v-155q-1 -1 -3 -1q-7 0 -7 15v146q28 11 28 35q0 7 -3 12q-4 9 -5 10q0 1 1.5 1.5t9 -5.5t7.5 -21zM166 274q-17 -5 -28 -1v-154l-10 6v150v9q11 -6 38 -1v-9zM169 -63q-10 0 -21 7v-6q0 -11 19 -26q-11 -8 -24 -37q-16 30 -27 37q20 14 20 33
q-9 -8 -21 -8q-21 0 -21 21q0 6 9 18q7 -7 18 -7q19 0 18 34h6q-2 -12 3 -22.5t14 -12.5q8 -3 20 7q6 -5 6 -14q0 -24 -19 -24zM227 287v-145q0 -15 10 -26t25 -11h8v-105q-41 -1 -53 20q-8 13 -11 38q-5 -16 -13 -39q-5 -7 -25 -17q-7 -1 -20 -1v102q28 10 28 63v150
q-28 -6 -30 -6q-17 0 -22 1l-23 5v-154q0 -53 34 -59v-103q-33 0 -46 22l-12 37q-16 -43 -22 -52t-38 -7v105q1 0 4 1q33 6 33 54v129q-5 13 -25 35q18 11 18 23v2q-15 -8 -19 -8q-19 0 -19 20q0 8 7 17q8 -8 15 -8q21 0 21 38l1 -1l-1 105q0 15 -14 24t-26 8v108h6
q14 0 28 -7q18 -10 20 -28q0 -4 7 -52l5 52q2 14 18 24.5t27 10.5h8v-112q-29 -1 -29 -35q0 10 0 -118q0 -14 1 -20q3 -15 33 -15q33 0 38 16q2 7 2 24v116q0 13 -11 23.5t-20 9.5v110h10q18 0 32 -14q11 -10 12 -19l5 -46q2 17 5.5 48.5t43.5 31.5h13v-110q-41 -9 -41 -40
v-148q-1 -2 1 -7q6 7 17 7q9 0 16.5 -8t7.5 -16q0 -20 -13 -24q-3 3 -15 7q-12 -1 -12 -26z" />
    <glyph glyph-name="I" unicode="I" horiz-adv-x="197" 
d="M112 692q-25 -8 -31 -58h-2q-2 14 -5 26q-8 26 -26 33q13 21 33 67q6 -23 13 -36zM172 502q-35 5 -35 -20v-122q-1 0 -8 2v123q0 21 33 26l-1 105l10 -5zM167 306q0 -23 -30 -30v-162q-2 1 -8 5v161q30 9 30 29q0 10 -5 16.5t-5 9.5h4q4 0 9 -11.5t5 -17.5zM173 -38
q0 -7 -10 -7q-12 0 -33 8t-28 17q0 1 4 5q36 -23 57 -20q1 34 -1 115h10v-40q1 -75 1 -78zM122 -57q0 -21 -18 -21q-5 0 -14 6l-2 -2q1 -6 20 -19q-15 -15 -27 -32q-9 15 -26 30q9 6 19 23l-1 2q-6 -7 -16 -7q-21 0 -21 22q0 9 6 17q12 -10 21 -5q9 0 13 24l2 32l5 1l4 -34
q4 -25 15 -24q6 -2 16 4q4 -12 4 -17zM103 292v-152q0 -32 37 -37v-102q-2 -1 -5 -1q-44 0 -49 34l-7 36l-4 -35q-10 -35 -48 -35h-11v105q10 4 21 8q17 10 17 34v137h-1q0 27 -20 40q18 11 18 23v2q-15 -8 -19 -8q-19 0 -19 20q0 8 7 17q8 -8 15 -8q14 0 18 41l1 60
q0 4 -1 8q-9 8 -29 19l3 8q16 -3 25 -18l1 1v8q0 25 -18 37q-11 4 -21 9v108h13q37 0 44 -33q4 -23 8 -47l1 1l6 54q7 26 44 26q4 0 12 -1v-109q-39 -15 -39 -54l1 -146q11 10 19 10q22 0 22 -23q0 -6 -3.5 -13.5t-6.5 -6.5q-18 6 -23 5q-9 -3 -9 -22z" />
    <glyph glyph-name="J" unicode="J" horiz-adv-x="231" 
d="M148 691q-25 -8 -30 -58h-3q-3 14 -7 24q-10 27 -24 35q13 21 33 68q6 -25 13 -37zM218 501h-21q-18 1 -20 -18v-116l-9 1v26v46q0 72 0 42q0 26 25 26h15v84v25h10v-116zM185 330q0 -7 -5.5 -14.5t-11.5 -7.5q-2 0 -6 5t-8 5q-10 0 -11 -16v-17v-192q-5 -82 -41 -96
q-23 -9 -28 -6l1 -3q2 -14 2 -16q3 -9 12 -9q11 0 20 10q8 -3 8 -19q0 -23 -24 -23q-2 0 -7 1.5t-8 2.5q1 -6 10 -13.5t-2 -22t-17 -24.5q-6 13 -24 39q8 5 19 20q-4 -4 -15 -4q-23 0 -23 23q0 5 3 14t6 6q7 -8 19 -8t12 21q0 6 0 5q-3 0 -10 1q-34 11 -44 44q-5 16 -5 37
v158q0 1 48 0v-101q1 -6 2 -11q4 -11 14 -12q11 0 15 10l2 12v150q-1 16 -3 22q-3 12 -12 18q-3 2 -9 7q5 4 11 9.5t6 10.5q-2 1 -7.5 -1t-8.5 -2q-22 0 -25 22q-1 8 4 16t12 9q3 0 6.5 -6t7.5 -6q18 0 18 30v72q0 1 -2 2q1 -1 -1 -1q-9 0 -29 22q4 7 5 6q15 -13 26 -17l1 1
q0 35 -8.5 43t-25.5 7v108h13q37 0 44 -33q4 -23 8 -47l1 1l6 54q7 26 44 26q4 0 12 -1v-110q-9 0 -22 -1q-17 -3 -20 -28l1 -163q10 8 22 8q22 0 22 -27zM187 275q-3 -1 -8 -4v-204q0 -46 -20.5 -73t-31.5 -29q-3 3 -4 8q1 0 3 2l7 6q12 9 20 19q17 22 17 58v220q5 2 16 7
q14 11 14 29q0 1 -7 23q2 1 6 1q9 1 13 -27q0 -24 -25 -36z" />
    <glyph glyph-name="K" unicode="K" horiz-adv-x="324" 
d="M170 697q-12 -8 -33 -39q-6 15 -9 19q-7 10 -22 19q18 16 32 64q4 -12 9.5 -29.5t22.5 -33.5zM299 606l1 -97q-12 1 -23 1q-18 -2 -25 -19q-23 -62 -50 -134q-6 3 -8 1q0 4 22 65.5t26 66.5q13 31 48 29v100q2 -2 9 -13zM265 113l-4 -2q-5 0 -11 20l-42 139q0 1 1.5 2
t2.5 2q18 19 18 31q0 7 -9 24h3q13 0 13 -29q0 -24 -21 -32zM304 -42q-10 -1 -15 -1q-20 0 -42.5 11.5t-30.5 1.5t-25 -10q3 0 -3 5q7 -1 19.5 8.5t16.5 17.5q49 -26 63 -25h8v108q9 1 9 -2v-114zM98 -6q5 -7 -24.5 -23.5t-38.5 -12.5l-3 5q19 3 38.5 14t24.5 21zM49 285
q0 26 -20 39q18 11 18 23v2q-15 -8 -19 -8q-19 0 -19 20q0 8 7 17q8 -8 15 -8q17 0 19 37v78q-10 5 -28 19q-1 1 3 4l26 -17q1 21 -4 30q-8 17 -36 20q0 -1 0 111q36 -1 46 -12t18 -48q12 36 17 44q10 16 33 16h5v-108q-23 -1 -29 -26q-1 -13 -2 -27v-110q0 -22 16 -22
q10 0 10 17q1 79 0 94q-1 11 5 24t18 13l10 -1q-1 -7 -11 -7q-15 0 -15 -33q0 -11 -1 -69q41 117 41 122q0 18 -26 24q-1 78 -1 109q3 -1 8 0q40 0 50 -54q1 -1 1 0q5 55 63 54v-109q-12 2 -32 -19q-15 -16 -71 -188l2 -4q10 15 24 15q24 0 24 -24q-2 -13 -11 -18
q-5 11 -15 9q-13 -7 -12 -15q21 -68 46 -153q5 -27 48 -49v-97h-15q-42 0 -49 51q-6 -30 -18 -41.5t-42 -9.5v105q22 4 22 32q0 30 -56 171q-8 0 -8 -17v-134q0 -52 28 -53v-104q-27 -3 -38 10q-6 7 -17 37q-4 -29 -22 -39q-13 -7 -45 -8q0 -1 0 17v85q26 6 34 26q5 12 5 42
v115zM135 228v-96h-10v96h10zM164 -74q-10 0 -21 7v-6q0 -11 19 -26q-11 -8 -24 -26q-16 19 -27 26q20 14 19 32q-8 -7 -20 -7q-22 0 -22 20q0 7 10 19q7 -8 16 -8q13 0 18 17l4 28h5v-5q-1 -39 16 -39q7 0 19 6q6 -5 6 -14q0 -24 -18 -24z" />
    <glyph glyph-name="L" unicode="L" horiz-adv-x="287" 
d="M104 693q-12 -5 -22 -24q-8 -15 -9 -25l-2 -2t-2 1q-13 35 -14 36q-3 5 -15 15q18 15 22 34t9 32q6 -12 10 -29q7 -27 23 -38zM172 505q-36 -9 -36 -19v-66q1 -54 1 -55q-12 4 -12 12l1 106q0 15 12.5 21t24.5 11q0 -12 0 93q5 3 9 1v-104zM46 284q0 26 -21 40
q18 11 18 23v2q-15 -8 -19 -8q-19 0 -19 20q0 8 7 17q8 -8 15 -8t10 18.5t10 18.5v71l-3 22l-4 -2q0 1 -10 10.5t-11 11.5q2 3 6 4l17 -16l3 1q-5 29 -37 41v103h20q32 1 41 -47q6 26 14 35q10 13 34 13l19 -4v-102q-37 -18 -37 -49l-1 -148h2q9 6 20 6q25 0 25 -24
q0 -6 -6.5 -17.5t-11.5 -11.5l-16 10q-13 -5 -13 -30l1 -137q10 -25 16 -29q3 -2 23 -5q23 0 30 14q5 9 5 34v140q-7 -14 -21 -23.5t-16 -13.5v-135l-11 1l1 144q35 13 35 38q0 -2 -8 22h4q5 -4 12 -14q8 -14 8 -11q28 -1 49 -1v-307l-85 -1q-30 0 -43 12q-11 9 -22 41
l-1 -1q-9 -33 -11 -36q-9 -15 -31 -15q-5 0 -24 1v102q37 5 37 47v133zM263 -41h-100q-10 0 -28 8q-22 8 -23 16l2 1q26 -16 63 -17q20 0 75 1v298l10 -10zM126 -51q-4 -5 -7.5 -10.5t-14.5 -5.5q-7 0 -17 5q-1 -1 -1 -5q0 -5 8 -11t8 -8q-8 -9 -14 -18q-6 -12 -10 -21
q-4 9 -12 21q-3 7 -14 18q16 15 16 25l-2 1q-8 -6 -16 -6q-22 0 -22 22q0 5 6 11.5t11 6.5q4 0 8 -5t6 -5q9 0 13 22q2 15 4 29h3q3 -3 7 -28q3 -21 13 -21q12 5 15.5 5t7.5 -11z" />
    <glyph glyph-name="M" unicode="M" horiz-adv-x="410" 
d="M304 693q-20 -9 -31 -49q-1 -3 -3 -3q-1 1 -1 2q-5 14 -11 28q-4 11 -18 23q17 15 21.5 33.5t8.5 32.5h3q4 -9 10 -33q5 -23 21 -34zM379 511q-38 4 -38 -12q-1 -43 0 -135l-10 3v132q0 27 40 24v107l8 -3v-116zM100 691q-20 -9 -31 -48q-1 -3 -2 -3t-2 1q-5 14 -10 27
t-19 25q18 14 22 33t8 34h3q4 -9 10 -35q5 -23 21 -34zM192 419q2 -14 -6 -22l-2 15q-13 74 -29 205q-1 16 -1 18h7zM377 318q0 -19 -11.5 -31.5t-22.5 -11.5v-146q-3 1 -5.5 2t-4.5 4v147q24 6 31 21q3 7 3 26q-2 4 -7 17q1 3 6 3q11 -6 11 -31zM39 503v-2q-6 5 -23 14
q-1 0 -1 4t2 4q7 0 14.5 -6.5t7.5 -13.5zM47 292q-5 22 -20 32q18 11 18 23v2q-15 -8 -19 -8q-19 0 -19 20q0 8 7 17q8 -8 15 -8q12 0 17 35v119q-4 24 -38 28v106l5 -2q26 0 40 -24q6 -16 13 -32q7 15 15 29q17 26 52 32q-7 -13 -7 -48q0 -24 23 -180.5t27 -166.5l28 170
q18 110 18 177q0 30 -4 45q27 -4 38 -17q8 -9 21 -42q6 17 11 34q11 20 42 24l10 1v-108q-35 -3 -35 -37v-165q8 11 21 11q26 0 26 -25q-4 -22 -17 -27q-2 3 -6 8t-10 4q-13 -1 -13 -36v-76q0 -64 -1 -60q10 -33 47 -35v-110q-13 -2 -16 -2q-42 0 -52 63q-9 -34 -16 -44
q-12 -17 -40 -17h-10v110q23 6 36 35q4 58 4 71l-1 264h-3l-16 -133q-1 -11 10 -24q-6 -8 -16 -30q-21 -70 -41 -295h-20q-14 102 -45 290q-1 9 -20 34q9 13 8 23q-9 71 -22 144v-326q0 -34 23 -45q2 -1 28 -5v-113l-13 1q-23 0 -36 13q-8 8 -20 33q-8 -16 -16.5 -31.5
t-35.5 -15.5h-14v120q29 -7 39 23v147zM385 -7v-26q-4 -3 -13 -3q-16 0 -37 8t-27 17q0 6 4 4q43 -18 50 -18t11 3v105h12v-90zM331 -45q0 -19 -20 -19q-4 0 -17 7l-2 -3q0 -7 9.5 -15t9.5 -10q0 2 -12 -19q-4 -9 -12 -21q-11 16 -28 43q1 3 9.5 11t8.5 11v3q-13 -9 -20 -9
t-14 6.5t-7 13.5q0 19 10 19q2 0 6 -1t5 -1q13 0 18 22q4 16 7 32h3q11 -55 26 -55q2 0 5.5 1.5t4.5 1.5q10 0 10 -18zM222 -17q0 -4 -7 -27h-71q-3 10 0 10h64l7 28q7 -8 7 -11zM120 -47q0 -19 -18 -19q-1 0 -17 7q-1 0 -1 -2q0 -7 9 -13.5t9 -8.5q-10 -13 -25 -42h-3
q-2 5 -7 15q-17 30 -17 27t18 23h-1q-6 -7 -16 -7q-21 0 -21 22q0 16 8 16q2 0 5.5 -1.5t5.5 -1.5q12 0 18 23q4 17 7 34h4l6 -32q5 -23 16 -23q2 0 6 1t5 1q9 0 9 -19z" />
    <glyph glyph-name="N" unicode="N" horiz-adv-x="317" 
d="M164 692q-23 -18 -26 -32q-8 22 -25 32q8 10 14 28t11 40q10 -50 26 -68zM303 509h-11q-15 0 -18.5 -2t-3.5 -15v-122h-9v134q1 13 32 13q1 76 0 101h10v-109zM302 317q0 -29 -29 -38v-318h-68v7h58v-2v1q3 98 1 318l12 2q19 19 19 24q0 16 -6 23q-9 10 -11 14l3 3
q7 -2 14 -14t7 -20zM59 294q-5 21 -19 30q18 11 18 23v2q-15 -8 -19 -8q-19 0 -19 20q0 8 7 17q8 -8 15 -8q14 0 16 35l-1 86q-9 5 -25 16l1 8l3 1q7 -5 20 -15q1 8 1 9q0 19 -12 25q-22 10 -23 11l1 106h13q25 1 33 -18q4 -21 9 -41q9 31 17 43q14 21 38 23q-9 -17 -9 -43
q0 -101 58 -297h1q1 4 1 11v121l-8 -2q-5 21 -16 62l9 2q4 -21 15 -61v66q0 28 -35 25q-1 15 0 110q50 0 59 -58q10 37 18 46q11 13 46 12v-110h-10q-26 1 -26 -35l-1 -165q13 15 19 15q24 0 24 -25q0 -21 -12 -24q-3 4 -15 7q-13 -2 -13 -52v-262h-4l-123 410q0 -2 -1 0
t-1 0v-263q0 -36 44 -41v-108h-16q-32 -1 -47 46h-1q-15 -46 -40 -46h-25v109q19 -1 27.5 9t8.5 29zM140 123h-8v123h8v-123zM184 26v-49h-8l-1 9v47l5 4zM194 -54q0 -16 -18 -16q-10 0 -16 8q-1 -1 -2 -4q0 -12 21 -20q-22 -25 -26 -39h-3q-7 13 -24 37q18 6 18 25l-2 1
q-12 -7 -17 -7q-21 0 -21 20q0 14 11 15l14 -5q14 1 16 14q4 14 6 20h1q2 -6 5 -19.5t15 -13.5q-2 0 18 2q4 -11 4 -18zM104 -2q-5 -14 -26.5 -26.5t-37.5 -12.5l-3 6q33 13 62 37h3q1 -1 2 -4z" />
    <glyph glyph-name="O" unicode="O" horiz-adv-x="314" 
d="M264 386q0 -6 -8 -6q-2 0 -2 3v184q0 21 -11.5 39t-24.5 34l5 4q41 -31 41 -71v-187zM294 328q0 -13 -9 -24.5t-21 -12.5v-193q0 -96 -64 -116l-4 6q31 4 47 46q11 31 11 69l1 194q31 7 31 35q0 11 -6 20q14 -1 14 -24zM49 294q-5 21 -19 30q18 11 18 23v2q-15 -8 -19 -8
q-19 0 -19 20q0 8 7 17q8 -8 15 -8q14 0 17 37v148q0 43 23.5 73.5t66.5 31.5q-11 32 -27 43q20 21 31 57q8 -31 30 -56q-15 -13 -24 -44q32 -3 55.5 -32.5t24.5 -63.5q-1 24 -1 -208l15 8q24 4 27 -25q2 -21 -18 -25q-6 12 -13 11q-10 -3 -11 -12v-203q0 -106 -78 -111
q1 -9 9 -20.5t16 -11.5q11 0 14 7q3 -8 3 -15t-6.5 -14.5t-12.5 -7.5q-15 0 -21 7q0 -16 19 -32q-11 -9 -24 -37q-8 15 -11 19q-7 13 -16 18q20 15 20 33q-9 -8 -21 -8q-21 0 -21 21q0 13 9 18q11 -8 22 -8t14 31q-56 4 -76 31q-18 23 -18 81v183zM180 500q0 46 -44 46
q-17 0 -28 -12t-11 -30v-151q11 13 26 13q8 0 15.5 -8t7.5 -17q0 -8 -7 -17t-15 -9q-3 8 -11 10q-15 0 -15 -37l-1 -127q0 -44 40 -44q18 0 29.5 13t11.5 32v129q0 26 -16 44q18 18 18 29v136zM175 506l-1 -2q-13 7 -21 7q-22 0 -22 -22v-116l-8 2v53v66q6 23 35 23
q13 0 17 -11zM165 316q-7 -26 -31 -34q1 -7 1 -145q-9 10 -9 17v134q17 8 23 16q2 3 11 24q3 -5 5 -12z" />
    <glyph glyph-name="P" unicode="P" horiz-adv-x="278" 
d="M103 699q-20 -18 -29 -63q-7 44 -32 62q20 20 31 62q8 -36 30 -61zM256 396q0 -42 -24 -72q-27 -34 -70 -34q-2 0 -35 5v-174l-6 1q-3 4 -3 11v172q28 -7 44 -7q34 0 59.5 28t25.5 61v180q0 47 -42 75l5 5q39 -32 46 -84v-167zM40 293q-5 21 -20 31q18 11 18 23v2
q-15 -8 -19 -8q-19 0 -19 20q0 8 7 17q8 -8 15 -8q18 0 18 39l-1 94q-4 -2 -5.5 -0.5t-15.5 13.5q3 3 1 3q6 0 20 -15v22q-2 19 -35 16v108h12q30 0 42 -22q5 -10 11 -48q11 40 17 49q17 27 53 28q30 1 53.5 -20.5t23.5 -50.5v-122q0 -79 -6 -98t-27 -31.5t-39 -12.5
q-13 0 -53 22v-189q-2 -17 6 -31q10 -18 28 -18q3 0 10 -1v-105h-7h-6q-41 0 -54 49q-2 1 -3 0q-4 -49 -52 -49h-13v103q6 0 16 2q15 8 19 22q1 3 4 29zM170 497q0 48 -40 48t-40 -45v-83q0 -19 10.5 -33.5t28.5 -14.5q41 0 41 53v75zM164 510q1 -6 0 -6q-22 4 -15 4
q-20 0 -21 -16v-115q-7 0 -8 3v110q0 24 28 24q6 0 16 -4zM171 -45q-42 0 -68 36q0 4 5 4q1 0 5.5 -6.5t8.5 -9.5q17 -12 39 -16v120q5 -3 10 -10v-118zM113 -41q1 -19 -20 -19q-9 0 -22 8l1 -7q1 -11 19 -26q-11 -8 -24 -40q-8 17 -27 40q20 14 20 25v8q-10 -8 -21 -8
q-21 0 -21 21q0 9 9 18q8 -8 17 -8q12 0 17 18q2 14 4 27h4q1 -44 18 -44q5 0 19 6q8 -6 7 -19z" />
    <glyph glyph-name="Q" unicode="Q" horiz-adv-x="299" 
d="M248 564v-204q-3 3 -9 5l-1 209q0 16 -4 29q-2 5 -8 13.5t-6 9.5v3q28 -13 28 -65zM279 309q-5 -20 -33 -35v-218q0 -6 -5 -18q7 0 15 -12t8 -25q0 -9 -8 -20.5t-13 -12.5q-1 3 -3 7q15 16 15 27q0 25 -24 36q6 10 6 19l1 221q9 4 25 17q9 10 9 28h6q4 -1 1 -14zM33 284
h-1q0 28 -18 40q18 11 18 23v2q-15 -8 -19 -8q-19 0 -19 20q0 8 7 17q8 -8 15 -8q17 0 17 37v166q4 16 9 29q11 30 23 38q24 15 58 19q-5 12 -10 22q-13 22 -22 25q23 21 36 54q5 -19 14 -32q3 -9 21 -22q-33 -33 -30 -47q15 -1 24 -3q16 -3 27 -11q30 -21 30 -71l1 -227
q7 9 19 9q23 0 23 -22q0 -26 -17 -30q-11 9 -14 9q-12 -1 -12 -13v-30.5t0 -20.5v-167q0 -30 -11 -43q26 -7 26 -24t-18 -17q-4 0 -9 5t-10 5q-18 0 -18 -20q0 -21 18 -23q25 -3 40 23v-107h-35q-5 10 -11 19q-14 19 -32 27q-26 10 -25 59q-4 0 -13 2q-43 4 -67 45
q-9 15 -15 65v186zM164 369v128q0 44 -41 44t-41 -42q1 -132 0 -150q11 12 22 12q27 0 27 -25q0 -22 -15 -23q-7 4 -15 9q-18 0 -18 -23l-1 -137q0 -47 41 -49q21 -1 33 19q10 16 9 30q1 50 -1 123q-3 25 -8 33l-10 10q5 2 11.5 16t6.5 25zM154 511q-3 -6 -2 -6q-8 4 -16 4
q-16 0 -17 -16q0 3 0 -54v-71l-9 3v119q3 26 28 26q10 0 16 -5zM150 303q0 1 -2 -6q-4 -10 -17 -18t-13 -149q-4 1 -9 9v140q21 4 35 28q6 0 6 -4zM266 -141h-55v9h44v90h11v-99zM123 -44q-31 4 -45 15q-26 20 -25 25l5 5q8 -10 26 -25q15 -9 38 -12q1 -3 1 -8z" />
    <glyph glyph-name="R" unicode="R" horiz-adv-x="313" 
d="M123 -18q2 4 6 4q16 -25 41 -21v60l8 -1v-66q-35 -7 -55 24zM267 371q-2 -14 -8 -33q-7 -7 -18 -21q22 -19 24 -75q0 4 0 -122l-7 4v120q0 41 -10 55q-1 2 -9 9.5t-8 8.5q0 -5 19 23q9 12 9 30v169q0 49 -28 89l5 2q9 -8 19 -29q13 -29 12 -58q-1 -53 0 -172zM170 270
q0 -3 -1 -7q-36 7 -36 10v-153q-4 2 -8 8v156q18 -6 45 -14zM299 -43h-46q-19 1 -48 30q0 3 5 6q22 -22 33 -25.5t48 -3.5v111h8v-118zM177 468q0 30 -1.5 52.5t-35.5 22.5q-15 0 -27.5 -12t-12.5 -30l-1 -78q0 -56 44 -56q24 0 28 20q3 7 6 19v62zM28 370q12 0 17 18.5
t3 18.5v86q-3 -3 -5 -3q-4 0 -6 4q-6 4 -19 14q3 5 5 5q6 0 16 -7q0 -1 9 -9q1 2 1 15q0 15 -10 23.5t-34 6.5l1 110q38 1 53 -19q10 -13 12 -33q11 47 57 54q18 2 35 1q29 -2 51 -33q14 -19 17 -47q1 -6 1 -48v-129q0 -50 -37 -67q5 -1 17 -6q20 -12 20 -52v-83v-38
q1 -25 10 -34t32 -10v-108h-28q-43 0 -58 31q-11 21 -11 68v183q0 12 -7 16q-9 -4 -13 -15l-12 20q0 6 6 14q-8 2 -23 7q-9 5 -27 17v-161q0 -84 45 -78v-102h-17q-27 -2 -41 17q-7 11 -14 23q-6 -11 -12 -23q-11 -18 -41 -17h-14v105q41 2 41 71v108q-5 16 -22 40
q18 11 18 23v2q-15 -8 -19 -8q-19 0 -19 20q0 8 7 17q8 -8 15 -8zM170 508q-12 5 -20 5q-18 0 -17 -34l1 -44q0 -2 -1 -31v-26q-4 1 -8 3v112q0 7 6 17t14 10h13.5t11.5 -8v-4zM120 -40q0 -20 -21 -20q-9 0 -21 7v-6q0 -11 19 -26q-11 -8 -24 -40q-8 17 -27 40q10 7 20 26v7
q-10 -8 -21 -8q-21 0 -21 21q0 9 9 18q8 -8 17 -8q12 0 16 18q1 13 3 26l7 1q-1 -44 17 -44q5 0 19 6q8 -6 8 -18zM104 704q-20 -18 -29 -63q-7 44 -32 62q20 20 31 57q8 -31 30 -56z" />
    <glyph glyph-name="S" unicode="S" horiz-adv-x="300" 
d="M260 368q0 -8 -1 -7h-58v8h50q-1 2 0 4v247l9 -1v-251zM171 430q-13 7 -27 34q-10 22 -10 30q0 20 16 20q8 0 14 -7v-4q-4 3 -17 4q-8 -2 -8 -14q0 -6 32 -59v-4zM241 330q0 -16 -8 -16q-1 0 -4.5 1.5t-5.5 1.5q-12 0 -12 -13q0 8 12 -44q13 -56 13 -118q0 -49 -10 -82
q-18 -58 -52 -64q-12 -1 -26 -4q-2 -29 15 -29q-3 0 17 6q10 3 10 -20q0 -20 -18 -20q-5 0 -11 3.5t-10 3.5q-1 -1 -1 -2q0 -5 9 -16q0 -1 5.5 -5t5.5 -6q0 3 -14 -16q-4 -6 -11 -16q-24 32 -24 33t9.5 11t9.5 16h-2q-9 -6 -15 -6q-23 0 -23 22q0 17 12 17q1 0 4.5 -1.5
t4.5 -1.5q10 0 15 13t2 15q-21 10 -40 34h-4l1 -27h-41l-1 288l44 -1l1 -79q0 -2 2 -31q6 -64 48 -64q38 0 38 60q0 97 -43 142q-4 4 -15 7t-15 6q6 24 6 21q0 7 -3 8q-2 -1 -3 -3q-5 -15 -22 -15q-21 0 -21 24q0 18 7 18q1 0 5.5 -3t5.5 -3q10 0 10 10q0 3 -26 55t-26 108
q0 43 23 76q27 38 68 31q2 1 3 2q-1 15 -14.5 29t-4 22.5t24.5 51.5q11 -25 33 -56q-33 -37 -33 -50q5 -2 14 -8q20 -13 18 -13q2 0 3 -1l-1 21h44v-244v-13h-39h-6l-1 17v21q0 70 1 64q-2 41 -40 41q-17 0 -28 -11t-11 -25q0 -22 51 -98q14 -24 44 -68q2 0 7 9.5t15 9.5
t17 -8.5t7 -17.5zM270 124v-36q-1 -58 -34 -99q-3 -4 -17 -14q-17 -12 -22 -12q-7 0 -5 5q13 8 42 33q27 31 27 98v42q0 48 -17 145q0 1 9 12.5t9 22.5q0 1 -4 9t-4 12t8 -8q6 -8 6 -20q0 -10 -8 -20t-7 -11q17 -97 17 -159zM141 125h-3q-9 14 -9 39q-1 2 -1.5 8t-0.5 7v73
h5q3 -5 3 -9v-63q0 1 4 -43q2 -4 2 -12z" />
    <glyph glyph-name="T" unicode="T" horiz-adv-x="290" 
d="M146 704q-20 -18 -29 -63q-7 44 -32 62q20 20 31 57q8 -31 30 -56zM264 365h-64l-1 8h55v233l10 -2v-239zM79 324q18 11 18 23v2q-15 -8 -19 -8q-19 0 -19 20q0 8 7 17q8 -8 15 -8q20 0 17 37l-1 114q3 21 -13 21t-16 -18v-127h-52v255l36 1q39 0 67 -57q10 53 73 56h37
v-252h-52q1 10 0 123q-2 17 -14 17q-15 0 -15 -23v-172q0 -1 2 -1q11 10 19 10q25 0 25 -26q0 -5 -6.5 -15t-10.5 -10t-6.5 5.5t-6.5 5.5q-13 0 -14 -22v-147q0 -45 42 -46v-99h-19q-28 0 -39 16.5t-8 16.5q-1 0 -2 -1q-6 -32 -41 -32h-22l-1 100q38 18 38 45l1 147
q-4 22 -20 32zM221 314q-2 -25 -35 -42v-158q-3 1 -8 7v156q6 -1 20 12.5t15 27.5q1 2 -11 26h6q14 -17 13 -29zM223 -39q-13 -3 -16 -3q-20 0 -30 9q2 6 6 6q-1 0 4 -3.5t14 -4.5q14 0 14 3q0 1 -1 2l1 105l8 -4q1 -34 0 -110zM170 -43q3 -20 -18 -20q-9 0 -21 7v-6
q0 -11 19 -26q-11 -8 -24 -37q-8 14 -27 37q10 7 20 26v7q-10 -8 -21 -8q-21 0 -21 21q0 9 9 18q8 -8 17 -8q12 0 16 18q1 13 3 26l7 1q-1 -44 17 -44q5 0 19 6q8 -6 5 -18z" />
    <glyph glyph-name="U" unicode="U" horiz-adv-x="312" 
d="M299 511q0 -11 -1 -12q-21 -1 -24 -1q-15 -4 -17 -18v-132q-10 6 -9 112q0 34 9 42.5t32 7.5l-1 75q1 6 1 27q2 -1 9 -5v-33zM156 501q-4 0 -13 -1q-12 -4 -12 -12v-136q-2 -1 -8 1v133q3 25 22 25q7 0 11 -4v-6zM269 318q0 -23 -14 -23q-1 0 -8.5 4.5t-8.5 4.5
q-14 0 -14 -12v-197v-7q-1 -6 -1 -9q-3 -60 -28 -77q-17 -12 -44 -13q-6 0 -9 -4q0 -31 16 -31q1 0 7 3t7 3q9 0 9 -17q0 -24 -22 -24q-6 0 -9.5 2.5t-6.5 3.5v-4t18 -18q-6 -4 -14 -13q-7 -7 -12 -15q-5 8 -12 16q-6 6 -14 11q10 5 20 19l-1 2q-1 -1 -5 -2q-7 -4 -15 -4
q-23 0 -23 23q0 21 12 21q1 0 6.5 -4.5t8.5 -4.5q9 0 14 13.5t2 19.5l-9 3q-12 3 -24 9q-27 15 -37 45q-2 7 -8 51v191q-5 16 -22 40q18 10 18 23q0 1 -7.5 -2.5t-11.5 -3.5q-19 0 -19 20q0 8 6 17q9 -8 15 -8q10 0 14 14q3 11 5 22v57v8q-1 8 -1 12q-9 7 -20 16v6q2 3 3 3
t18 -15q-1 3 -1 7q0 14 -1 18q-2 8 -9 14q-2 2 -24 8q-3 3 -4 8l-1 104h6.5t12.5 -1.5t26 -20.5t16 -45q4 -3 5 0q12 67 53 67h4v-111q-3 0 -3 -1q-13 -1 -21 -14.5t-8 -27.5v-155q1 0 9 2.5t10 2.5q25 0 25 -26q0 -5 -5 -13.5t-11 -8.5q-1 0 -6 3.5t-6 3.5q-12 0 -16 -26
v-140q0 -41 35 -41q5 0 18 2q9 1 15 14q6 10 6 17v134q0 38 -24 51q7 7 15 15.5t8 18.5v148q0 4 -3 24q-1 8 -16 15q-7 1 -13 2v113q-6 -2 -6 0q-5 21 -31 38q16 10 23 32q1 3 9 36h3q7 -31 9 -36q6 -20 21 -31q-11 -8 -28 -40q15 -3 20 -5q13 -5 20 -13q14 -17 16 -53
q1 0 3 -1v14q2 56 50 56q11 0 12 -1v-107q-1 -3 -5 -4q-33 -9 -33 -59q0 -11 1 -21v-118l2 -2q13 6 20 6q23 0 23 -27zM292 293q0 -23 -32 -43v-53q1 -36 1 -54v-96q0 -10 -10 -37q-6 -18 -26 -34.5t-33 -16.5q-2 0 -3 4q-1 3 1 4q64 20 61 124q0 23 -1 65l-1 98q0 6 12 10
q16 4 22 23q2 4 2 10q0 7 -3 15q-4 16 -4 11v3h3q11 -13 11 -33zM155 280q0 -6 -10.5 -16t-10.5 -13v-142q2 2 -3.5 2t-5.5 2v142q8 8 26 27q1 1 3 1zM48 407v-1v1z" />
    <glyph glyph-name="V" unicode="V" horiz-adv-x="310" 
d="M162 714q-20 -18 -29 -63q-7 44 -32 62q20 20 31 47q8 -21 30 -46zM296 506q-7 -1 -21 -2t-16 -19q-6 -42 -16 -126q-9 0 -9 5q0 21 15 123q2 11 12 21q6 6 14 7q12 1 12 3.5v21.5q0 50 1 80q3 -3 8 -10v-104zM161 499q1 -9 0 -9q-20 2 -18 -7l12 -101q-1 -10 -3 -10
q-5 0 -6 4q-11 80 -12 106q-1 17 27 17zM43 505l-3 -6l-21 11l4 6zM269 536q-16 -1 -18 -2q-14 -5 -20 -20q-9 -67 -20 -156q-1 -10 0 -10q13 7 17 7q25 0 25 -26q0 -8 -5.5 -17t-12.5 -9q4 0 -7 7q-4 2 -8 2q-10 0 -13.5 -11.5t-8.5 -59.5q-9 -81 -27 -241h-21
q0 -37 17 -37q13 0 16 3q8 -5 8 -14q1 -24 -19 -24q-10 0 -21 7q0 -17 19 -32q-11 -8 -24 -28q-15 21 -27 28q20 14 19 32q-8 -7 -20 -7q-22 0 -22 20q0 16 14 19q4 -4 12 -4q16 0 16 37h-20q-11 91 -36 264q-6 41 -32 58q1 2 10 10q6 5 5 11q-13 -7 -19 -7h-2q-9 0 -18 8
t-9 18q0 22 21 22q10 0 10.5 -5.5t4.5 -5.5q11 0 11 22q0 42 -9 86q-3 14 -6 29.5t-17 21.5q-10 4 -21 9l1 111q-3 -1 11 -1q41 0 49 -53q0 -1 1 -3q10 53 40 59q9 1 14 -1l1 -118q-2 0 -8 -2q-17 -6 -17 -35q0 -13 19.5 -153t22.5 -140t14 136q10 126 12 161q0 21 -13 30
q-2 1 -15 3v119h16q28 -4 42 -62q3 5 3 12q1 21 18 34.5t34 13.5q3 0 13 2v-118zM281 311q0 -34 -44 -46q-3 -1 -5 -1q-10 -98 -32 -290h-11q11 100 35 298q24 5 26 6q20 11 20 39q0 15 -15 23q0 2 1 3h3q4 0 11.5 -8t9 -12t1.5 -12z" />
    <glyph glyph-name="W" unicode="W" horiz-adv-x="414" 
d="M399 514q-1 -1 0 -5q-1 -1 -1 -2q-9 2 -24 -4q-8 -4 -16 -7q-5 -45 -13 -133l-9 1q4 40 16 139q11 4 34 13v108h12q0 -4 1 -110zM383 315q0 -16 -11.5 -31.5t-25.5 -19.5q-6 -1 -11 -8l-26 -271h-8l7 70l5 47q6 52 7 82t8 83q2 4 17 7q12 2 20 15.5t8 25.5q0 15 -14 32v2
h3q7 0 14 -13.5t7 -20.5zM278 -33q-19 0 -17 32h20q5 89 24 263l2 26q5 21 17 21q4 0 8.5 -4.5t5.5 -4.5q8 0 13 9.5t5 17.5q0 16 -10 24q-7 4 -13 4q-1 0 -8.5 -3t-8.5 -3t-2 2v19q0 44 11 127q4 29 16 34l24 10v110h-10q-32 0 -43 -20q-8 -13 -9 -47q0 -3 -1 -8
q-9 76 -47 76h-17v-112q34 1 34 -42q0 -16 -12 -148q-12 -135 -15 -140q-10 69 -23 220q-14 165 -20 218h-31l-44 -438l-27 291q0 13 7 25.5t19 10.5v114q-10 1 -12 1q-43 0 -49 -57q-1 3 -2 9q-2 17 -16.5 32t-30.5 15h-15v-113q14 0 26.5 -6.5t20.5 -58.5q10 -70 10 -76
q0 -21 -11 -21q-5 0 -8 4.5t-4 4.5q-16 0 -16 -23q0 -21 23 -21q4 0 14 5l1 -1q-1 -3 -5 -7.5t-9 -9.5q21 -13 27 -33q1 -3 5 -35l32 -260h20q-8 -34 -21 -34q-2 0 -7 2t-6 2q-10 -6 -10 -20q0 -20 22 -20q12 0 20 7q1 -18 -19 -32q12 -7 25 -30q15 22 26 30q-19 15 -19 32
q11 -7 21 -7q18 0 18 24q0 9 -6 14q-1 0 -7.5 -2t-7.5 -2q-14 0 -21 36h19l22 283q3 34 12 34q4 0 8 -15t4 -20l32 -283h18q-2 -32 -17 -32q-1 0 -6 1.5t-6 1.5q-12 -7 -12 -19q0 -20 22 -20q12 0 20 7q1 -18 -19 -32q11 -7 25 -31q15 23 26 31q-19 15 -19 32q11 -7 21 -7
q18 0 18 24q0 9 -7 15q-1 0 -9 -1.5t-9 -1.5zM200 211q1 -27 0 -44l-14 -185l-8 -1l16 250zM195 346q0 35 -10 83q-7 -48 -7 -83q0 -3 3.5 -13t4.5 -10q9 7 9 23zM93 704q-20 -18 -29 -63q-7 44 -32 62q20 20 32 57q7 -31 29 -56zM333 704q-20 -18 -29 -63q-7 44 -32 62
q20 20 32 57q7 -31 29 -56zM9 515q2 0 3 -1l3 -1q4 -2 18 -10v-8q-5 2 -14 8q-3 2 -10 5v7z" />
    <glyph glyph-name="X" unicode="X" horiz-adv-x="310" 
d="M293 504h-15q-31 -3 -38 -21q-13 -38 -38 -122l-7 4q12 43 34 117q4 14 16.5 22t27.5 9q11 1 12 105q1 1 8 0v-114zM258 128q-2 -3 -5 -3q-2 0 -5 2q-14 44 -46 147q25 19 25 32q0 10 -9 26q0 4 4 4q14 0 14 -29q0 -12 -7 -19.5t-15 -16.5zM76 44q-9 -15 -19 -29.5
t-40 -14.5q-2 0 -9 1v108q37 -3 42 25l22 74q22 73 22 86q0 14 -7.5 24t-7.5 10.5t6 8.5t7 12l-1 1q-9 -5 -18 -5q-24 0 -24 21q0 6 7.5 13t12.5 7q1 0 4.5 -4t10.5 -5q6 -1 6 11q0 4 -13.5 51.5t-16.5 47.5q-1 0 -1 -1h-1l-15 9q-9 4 -20 13q4 5 3 5q4 0 16 -8q8 -4 15 -9
q-1 -1 -1 8t-13 21.5t-23 13.5q-5 0 -18 1v113h16q23 0 35 -16q5 -8 15 -36q8 18 15 36q12 18 35 16q5 -1 12 0q1 -96 -1 -104q-4 1 -12 -1q-21 -6 -11 -36l27 -87q13 25 29 94q6 28 -21 29v105h7q37 0 50 -46q3 21 17.5 34.5t34.5 13.5q2 0 11 -1v-111q-15 0 -21 -1
q-27 -6 -38 -58q-17 -43 -38 -133q10 4 21 4q25 0 25 -23q0 -7 -5.5 -16t-12.5 -9q1 0 -3.5 6t-12.5 6t-8 -12q0 -9 44 -144q13 -43 38 -46h16v-117q-60 1 -65 45q-15 -44 -47 -44h-15v110q24 4 24 22q0 2 -4.5 21.5t-5.5 20.5q-7 -23 -18 -49q-6 -5 -6 2q0 2 7 23.5t9.5 26
t2.5 12.5q0 13 -15 46q-2 -2 -14 -48t-12 -52q0 -15 20 -25v-110q-28 4 -35 12q-8 16 -16 31zM300 -36q4 -8 0 -8q-19 0 -40 5q-12 3 -26 12.5t-14.5 9.5t-15 -9.5t-18.5 -10.5q-5 5 -2 7q38 25 35 25q2 0 19 -12q25 -17 52 -15q2 92 0 124h10v-128zM100 -7q0 -5 -24 -21
t-28 -15q-6 -2 -13 3q30 10 62 38q3 -6 3 -5zM132 512q0 -5 7 -29l2 -6q1 -1 1 -2h-7l-1 1l-1 5q-10 30 -8 32q0 2 2 6q15 6 27 -5l-4 -5q-12 10 -17 3h-1zM159 -74q-10 0 -21 7q0 -17 19 -32q-11 -8 -25 -26q-15 19 -26 26q20 14 19 32q-8 -7 -20 -7q-22 0 -22 20
q0 13 10 19q7 -8 16 -8q13 0 18 17l4 28h5v-5q-1 -39 16 -39q7 0 19 6q6 -5 6 -14q0 -24 -18 -24zM165 709q-20 -18 -29 -63q-7 47 -30 62q17 18 30 52q7 -26 29 -51z" />
    <glyph glyph-name="Y" unicode="Y" horiz-adv-x="286" 
d="M297 507h-34q-13 0 -17 -11.5t-43 -130.5q-1 -3 -5 -1q-4 1 -4 3l13 39q10 36 34 99q3 6 21 11h25v112h10v-121zM48 487q-8 4 -25 13q3 6 5 6q6 0 22 -10q4 -3 -2 -9zM150 653q16 -3 19 -4q9 -4 15.5 -13.5t9.5 -36.5q0 -3 3 -8q2 5 2 8q0 19 3 26q11 30 65 31v-14v-95
q-29 2 -39 -14q-16 -25 -28 -63q-25 -74 -38 -120l2 -2q14 9 21 9q24 0 24 -24q0 -10 -8.5 -19t-17.5 -9q-3 0 -5.5 5.5t-8.5 5.5q-12 0 -12 -27v-119q0 -54 42 -64q-1 -88 0 -106q-4 -6 -29 5q-29 12 -34 51q-30 -57 -66 -57l-1 109q19 2 27.5 13t9.5 47v116q-3 19 -4 24
q-5 14 -16 24q1 0 7 7t6 12q0 2 -1 5q-17 -14 -27 -14q-22 0 -22 23q0 5 5.5 13.5t10.5 8.5q2 0 5.5 -4t7.5 -4q10 0 10 12q0 1 -12 48q-6 17 -16 49q-6 20 -8 24q-7 16 -19 21q-2 1 -16 4q-10 2 -10 6l1 110h13q35 0 44 -32q3 -9 6 -36q0 -1 0 1q0 5 4 27q7 38 45 42l6 -1
v-1l-1 -55q0 -12 1 -48q-23 -2 -23 -31q0 -7 12.5 -48t15.5 -47l2 2q16 41 16 47v4q0 -3 -5 1q-9 5 -9 22q0 12 9 12q5 0 5 -3q0 -2 -3 -6t-3 -5q0 -3 8 -16q9 24 11 38q2 20 -23 31v103q5 0 11 -1zM231 317q0 -30 -36 -48q-2 -1 -4 -3v-6v-131q0 -5 -6 -3t-6 6v137l24 15
q19 11 19 35q0 6 -3.5 12.5t-3.5 7.5t1 3h4q11 -8 11 -25zM226 -32q0 -7 -5.5 -7t-25.5 6t-25 12q-1 1 -8 6t-7 9q0 6 2 5q6 -9 25 -19q10 -4 34 -10q1 9 1 15l-1 105q5 -1 10 -6v-116zM163 714q-20 -18 -29 -63q-7 47 -30 62q17 18 30 47q7 -21 29 -46zM162 -74
q-10 0 -21 7q0 -17 19 -32q-11 -8 -25 -26q-15 19 -26 26q20 14 19 32q-8 -7 -20 -7q-22 0 -22 20q0 12 10 19q7 -8 16 -8q13 0 18 22q2 17 4 33h5v-5q-1 -49 16 -49q7 0 19 6q6 -9 6 -14q0 -24 -18 -24z" />
    <glyph glyph-name="Z" unicode="Z" horiz-adv-x="263" 
d="M228 538l-55 -171q-2 -7 -5 -7q-4 0 -4 10q15 46 56 169l-1 90l9 1q-1 -16 0 -92zM126 515q0 -4 -11 -4.5t-13 -10.5v-29v-31q0 -8 -4 -11h-2q-4 4 -4 10v61q0 18 24 20q10 2 10 -5zM197 314q0 -19 -9 -25q-4 0 -4 5q6 9 6 22q0 6 -4 14t-4 8.5t1 2.5q14 -4 14 -27z
M198 579v-27l-21 -65q-42 -126 -42 -131v-4q21 6 19 6q22 0 22 -22q0 -9 -7.5 -18t-15.5 -9q-5 0 -7.5 6t-6.5 6q-17 0 -28 -38q-3 -10 -12 -37q-36 -108 -36 -113q0 -13 24 -13h6q5 -1 6 -1q34 0 41 17q2 6 2 102v40h50v-278h-20q-33 0 -47 13.5t-21 46.5l-14 -34
q-14 -26 -59 -26h-21q1 11 0 14l-1 116q12 35 34 107q9 25 20 63q2 6 2 11q0 10 -5.5 17t-5.5 6.5t12 11.5q-4 1 -11 3q-12 6 -12 18q0 25 20 25q4 0 5.5 -6t7.5 -6q12 0 20 21q3 11 6 23q3 5 18 52t15 52q0 20 -27 20q-41 0 -42 -31q-1 -3 0 -103h-41l-1 237q-3 0 32 0
q41 0 48 -35q1 -6 2 -19q1 1 1 3q1 10 3 19q8 33 60 33h28q-1 -4 0 -73zM136 256q0 -15 -41 -126q-1 -2 -4 -2q-4 1 -4 5q0 14 40 125q4 -1 9 -2zM230 -27h-74l-1 9h65l-1 258h12zM132 -67q-10 0 -21 7q0 -17 19 -32q-11 -8 -25 -33q-15 26 -26 33q20 14 19 32q-8 -7 -20 -7
q-22 0 -22 20q0 12 10 19q7 -8 16 -8q13 0 18 22q2 17 4 33h5v-5q-1 -49 16 -49q7 0 19 6q6 -9 6 -14q0 -24 -18 -24zM133 704q-20 -18 -29 -63q-7 47 -30 62q17 18 30 57q7 -31 29 -56z" />
    <glyph glyph-name="bracketleft" unicode="[" horiz-adv-x="175" 
d="M71 615l90 63v-17l-46 -66v-563q43 -57 43 -60q0 -20 -1.5 -20t-85.5 63v239h-2q0 27 -20 40q18 11 18 23v2q-15 -8 -19 -8q-19 0 -19 20q0 8 7 17q8 -8 15 -8q9 0 13 15l6 22h1v238z" />
    <glyph glyph-name="bracketright" unicode="]" horiz-adv-x="195" 
d="M132 377h1l6 -22q4 -15 14 -15q6 0 15 8q6 -9 6 -17q0 -20 -18 -20q-5 0 -19 8q-1 -1 -1 -2q0 -12 18 -23q-20 -13 -20 -40h-2v-239q-84 -63 -85 -63t-1 20q0 3 43 60v563l-46 66v17l89 -63v-238z" />
    <glyph glyph-name="asciicircum" unicode="^" horiz-adv-x="217" 
d="M30 665l98 101l104 -99h-20l-88 42l-74 -44h-20z" />
    <glyph glyph-name="underscore" unicode="_" horiz-adv-x="406" 
d="M362 102h-356v73h356v-73zM390 71v76h9v-84h-374v8h365z" />
    <glyph glyph-name="grave" unicode="`" horiz-adv-x="196" 
d="M26 626h70l84 -103h-30z" />
    <glyph glyph-name="a" unicode="a" horiz-adv-x="203" 
d="M170 311q-8 -9 -8 -38q0 -13 0 -12q-6 -1 -7 0v37l7 14q-8 1 -8 86q0 57 -12 61v6q18 -2 20 -36v-79q0 -17 8 -39zM184 155l-48 -1q-16 3 -22 16q-15 -20 -42 -19q-12 1 -27 9.5t-18 19.5l4 4q-19 19 -19 61v53q0 33 -7 43q32 30 50 30q16 0 40 -16v18q0 46 -39 46
q-19 0 -39 -17v42q0 20 18 31.5t39 11.5q65 0 65 -85v-55q0 -11 10 -18q-4 -4 -11 -14v-45q0 -21 17 -21q6 0 8 1v-67h-26q-28 0 -37 20q-6 -7 -13 -15q-9 -11 -31 -11q-14 0 -25 7q15 -26 42 -26q21 0 42 22q12 -18 23 -19h14h24v70q7 0 8 1v-77zM95 268v51q0 5 -7 10.5
t-13 5.5q-19 0 -23 -19q-1 -3 -1 -33q0 -35 24 -35q6 0 13 6.5t7 13.5z" />
    <glyph glyph-name="b" unicode="b" horiz-adv-x="198" 
d="M160 332q-13 -15 -13 -30l-1 -56q0 -71 -48 -71q-18 0 -33 18v-14h-41v134q0 17 -13 24q4 2 7 5q7 5 7 16v135q0 16 -0.5 36t-21.5 23v61h22q42 1 42 -41v-101q9 11 13 14t20 3q46 0 46 -58q0 -11 1 -33v-32q0 -31 13 -33zM183 317q-11 -5 -11 -23v-85q0 -59 -55 -59
q-16 0 -34 9q1 -4 1 -9h-44q-1 1 1 8h34v14q19 -15 40 -15q48 0 48 68v72q0 4 5 10.5t5 10.5q-9 12 -9 24v30v42q0 40 -20 59q29 -9 29 -52v-73q0 -22 10 -31zM108 286v120q0 20 -21 20q-25 0 -25 -39v-109q0 -31 20 -31q11 0 9 0q15 1 17 15v24zM83 500v42q0 31 -5 39
q-3 3 -7 9l7 5q10 -15 10 -17q3 -6 3 -20v-16v-42h-8z" />
    <glyph glyph-name="c" unicode="c" horiz-adv-x="176" 
d="M136 445q0 -3 -2 -10.5t-2 -11.5t1 -12t1 -12q0 -35 -26 -35q-21 0 -21 18q0 2 4 9.5t4 12.5q0 21 -23 21q-16 0 -19 -23v-36q0 -23 13 -33q-12 -17 -12 -41q0 -51 22 -51q20 0 20 18v61q34 -1 38 0v-96q0 -24 -15.5 -39t-37.5 -15q-49 0 -59 41q-3 45 -6 89
q0 10 -6 20.5t0.5 18t6.5 26.5v23q-1 15 -1 23q0 80 62 79q18 0 38 -13.5t20 -31.5zM125 345q-14 0 -23 7l3 6q9 -7 21 -6q19 2 22 29q-1 -6 -1 40q0 2 1.5 6.5t1.5 6.5q0 23 -19 37l3 6q22 -17 22 -43q0 -2 -1 -5.5t-1 -5.5v-49q0 -10 -10 -19.5t-19 -9.5zM41 168
q13 -15 41 -15q67 0 67 93v27q-1 19 -1 27h7v-73q0 -81 -71 -81q-34 0 -48 18z" />
    <glyph glyph-name="d" unicode="d" horiz-adv-x="202" 
d="M175 315q0 -1 -1 -2q-10 -12 -10 -17v-47q-2 -3 -8 3v47q0 3 5 10t5 8q-10 10 -10 18v230q0 -8 -4 27q12 -6 12 -47q0 -35 1 -107v-106q0 -3 5 -9t5 -8zM167 176h-31h-8q-17 8 -25 29q-12 -30 -37 -30q-35 0 -44 35q-5 16 -5 64v24q0 18 -11 31q11 13 11 32v70
q0 60 46 60q20 0 35 -19v57q0 21 -12 26q-3 1 -10 1v61h19q29 0 39 -26q5 -15 5 -54v-182q0 -17 10 -24q-11 -12 -11 -27v-46q1 -28 29 -25v-57zM99 400q0 27 -22 27q-24 0 -24 -30v-126q0 -29 23 -29t23 41v117zM191 220v-71h-23q-33 0 -53 15q-7 -4 -14 -9q-14 -9 -28 -9
q-20 0 -27 8l4 6q7 -7 22 -7q13 1 27 11.5t15 10.5q10 -7 27 -16q5 -2 29 -1h12l1 63z" />
    <glyph glyph-name="e" unicode="e" horiz-adv-x="176" 
d="M164 437q0 3 -4 -18t-4 -45q0 -27 6 -50q-10 -5 -26 -11l-2 6q7 2 20 7q-5 23 -5 51q0 10 4 30t4 29q0 4 -7 10.5t-8 8.5l4 4q18 -23 18 -22zM138 442q-7 -5 -7 -31v-42q0 -18 6 -32q-36 -18 -59 -18t-31 14q0 10 0 -40q0 -48 27 -48q28 0 28 39q0 19 27 19v-51
q0 -74 -58 -74q-51 0 -58 61v65q0 16 -14 34q14 16 14 38q0 57 0 54q7 57 63 57q23 0 41.5 -12t20.5 -33zM84 154q-46 0 -58 30l3 3q19 -26 53 -26q23 0 42 15.5t22 37.5v21q0 -7 0 47l8 2v-47q0 -26 -3 -36q-15 -47 -67 -47zM94 385q0 43 -23 43q-25 0 -25 -36
q0 -45 24 -45q17 0 22 12q2 6 2 26z" />
    <glyph glyph-name="f" unicode="f" horiz-adv-x="128" 
d="M117 502h-5l-3 1q0 52 16 75q7 0 7 -3l-1 -1q-16 -47 -14 -72zM91 527l-3 1q-4 17 -15 17q-9 0 -9 -7v-54h25v-55l-24 1v-73l2 -8q1 -12 7 -19q-13 -13 -10 -20v-53q0 -6 10.5 -14.5t17.5 -8.5v-57l-10 -1q-25 0 -35 26h-1q-8 -25 -34 -25q-1 0 -9 1v58q23 12 23 23v54
q0 8 -12 19q12 6 12 21l-1 78h-23v53h23l1 72q0 57 42 57q28 0 46 -18q-19 -24 -23 -68zM86 252l-6 2v42q-2 11 9 23q-9 10 -9 20v73h26v50h6v-57h-25v-65q0 -6 5 -13t5 -8q-11 -10 -12 -33q1 -17 1 -34zM119 146v69q-2 3 -7 2h-2v-63q-1 0 -6 -1h-6q-21 0 -43 18
q-13 -8 -45 -16l-2 -7l2 -2q10 0 24 7.5t20 7.5q21 -16 60 -16q3 0 5 1z" />
    <glyph glyph-name="g" unicode="g" horiz-adv-x="188" 
d="M154 418q-9 1 -13 -2q-9 -5 -9 -26q0 -57 12 -63q-14 -16 -14 -34v-93q0 -43 15 -67q-12 -16 -12 -35q0 -35 -9 -47q-11 -16 -47 -16q-4 0 -11.5 1.5t-11.5 1.5q-15 0 -29 -7.5t-14.5 -6.5t-4.5 32q-5 53 18 90h4q0 -25 3 -32q6 -14 27 -14q35 0 35 43q0 37 -3 50
q-15 -19 -32 -19q-42 0 -44 60q-1 62 0 60q-2 28 -12 37q12 13 12 45q0 57 4 72q11 39 52 39q36 0 46 -28q8 25 27 25q6 0 11 -1v-65zM93 398q0 6 -7 11.5t-14 5.5q-25 0 -25 -38l1 -92q0 -24 1 -28q3 -16 20 -16q24 1 24 45v112zM30 5q6 7 15 9q6 1 15 0q15 -1 17 -1
q71 0 77 35q1 15 2 31.5t12 24.5q-14 22 -15 40v134q0 13 11 29q-11 16 -11 36q0 64 -1 26q0 19 10 21h13v71h7v-77q-12 0 -16.5 -1t-4.5 -42q0 -11 7 -22.5t5 -14.5q-12 -15 -12 -26v-134q3 -17 18 -39q1 -3 -1 -4q-12 -8 -13 -35q-2 -30 -12 -41q-19 -20 -76 -20
q-2 0 -15 1q-9 0 -16 -1.5t-13 -6.5z" />
    <glyph glyph-name="h" unicode="h" horiz-adv-x="216" 
d="M92 577v-71q-8 -5 -10 -3v75q0 4 -3 11.5t-3 12.5l1 2q3 0 9 -11t6 -16zM172 57l-3 -3q-57 27 -57 87v259q0 24 -21 24q-26 0 -26 -23v-118q0 -38 29 -46l-1 -62h-11q-22 0 -32 24q-7 -14 -15 -21l-22 -5l-10 2l1 60q24 9 24 53q0 35 -12 47q12 15 13 43q0 -4 0 47
q0 17 -1 113q1 12 -11 15h-13l1 62h14q28 0 39 -15q8 -12 8 -41v-85l13 16q9 11 25 11q50 0 50 -100q0 -7 1 -19v-20q-1 -7 2.5 -16.5t6.5 -17.5q-11 -16 -11 -35q0 -28 12 -41q-11 -18 -13 -62q-4 -88 20 -133zM103 152l-2 -12q-16 6 -46 20q-17 -18 -34 -20l-5 8
q20 4 41 25q18 -14 46 -21zM199 60q-8 0 -17 22.5t-9 32.5l-1 97q0 9 13 26q-13 16 -13 46q0 17 12 42q-12 24 -12 51q0 87 -17 108l1 2q24 -9 24 -71q0 -5 1 -22t1 -21q0 -36 11 -50q-12 -16 -12 -42q0 -29 14 -44q-4 -5 -11 -14q-3 -7 -4 -19q1 -2 1 -26q0 -8 -1 -18v-10
q0 -35 3 -48q4 -16 18 -32z" />
    <glyph glyph-name="i" unicode="i" horiz-adv-x="129" 
d="M96 568q0 -52 -35 -52q-15 0 -24 11q1 3 3 3q1 0 7 -2.5t10 -2.5q30 0 30 49q0 4 -1.5 11t-1.5 11q12 -6 12 -28zM73 575q0 -37 -24 -37q-27 0 -27 38q0 36 24 36q27 0 27 -37zM103 307q-10 -25 -10 -45v-21l-5 4l-1 10q2 22 0 27q2 6 9 25q-12 20 -12 48v69q0 27 -12 51
l4 3q15 -20 15 -56q0 -66 -0.5 -78t12.5 -37zM94 176v57q-26 0 -26 35v33q0 11 10 20q0 1 -4.5 8.5t-4.5 17.5v59q0 38 -4 51q-8 28 -37 27q-7 1 -20 1q-1 -16 -2 -57q24 -5 24 -28v-52q0 -10 -9 -24q10 -9 10 -21v-38q0 -30 -26 -30v-59q11 -1 15 -1q23 0 29 23l1 1
q11 -24 35 -24q3 0 9 1zM114 198v17h-7v-65q-34 3 -49 23q-25 -22 -44 -23v-7q21 2 43 20q29 -21 57 -21v56z" />
    <glyph glyph-name="j" unicode="j" horiz-adv-x="125" 
d="M106 544q-11 -31 -40 -31q-11 0 -22 7l5 7q8 -5 17 -5q23 0 32 25q2 6 0 26q-2 22 -7 23l4 6q10 -3 12 -26q3 -21 -1 -32zM81 572q0 -31 -24 -31q-25 0 -25 32q0 30 25 30q24 0 24 -31zM85 322q-4 -6 -8 -16q-2 -4 -2 -15v-192q0 -54 -36 -54q-30 0 -30 49q0 -6 2 19
q-1 -1 13 -1q12 0 12 29l1 151q0 8 -2 15q0 2 -4 9t-4 8q0 2 4.5 10.5t4.5 9.5v49q0 19 -6 23q-1 1 -13 2v63h17q29 0 37 -16q3 -8 3 -43v-51q0 -22 1 -24.5t5.5 -13t4.5 -11.5zM100 290v-222q0 -46 -48 -46q-12 0 -20 5l1 1v2q1 1 1 2q2 0 7.5 -2.5t8.5 -2.5q41 0 41 44
v220q0 7 11 24q-12 34 -12 39v49q0 48 1 40q0 4 -3.5 13.5t-3.5 11.5t3 2h2q11 -7 11 -54v-66q0 -12 14 -37q-14 -14 -14 -23z" />
    <glyph glyph-name="k" unicode="k" horiz-adv-x="210" 
d="M96 501l-8 -1v22q0 49 -7 67q15 -1 15 -35v-53zM179 178h-32q-29 0 -45 76t-29 76q-6 0 -6 -16q0 -81 28 -80v-55q0 -1 -5 -2q-30 0 -39 20q-9 -14 -19 -17q-5 -2 -26 -2v36v20q24 -1 24 42q0 44 -13 57q11 17 11 29l1 150q0 20 -3 25q-5 9 -22 8l-1 65q26 1 39 1t22 -57
v-47v-94v-39q2 -13 9 -16q8 6 21 27.5t13 30.5q0 14 -21 10v58q0 3 2 3q1 0 3.5 -1t3.5 -1q24 0 32 -19q9 20 30 20q4 0 13 -1l1 -62h-4q-22 0 -38 -26q-14 -22 -14 -46q0 -4 15 -16q-5 -7 -5 -24q0 -47 35 -71q11 -8 17 -7h2v-55zM146 162q11 -5 32 -5h14l-1 60h8v-57v-9
h-15h-16q-13 0 -25 5zM15 160q26 0 40 14l4 1q17 -17 34 -17h15v32h7v-28v-10h-31.5t-26.5 16q-14 -14 -42 -14v6zM175 245q-29 23 -29 59q0 8 3 13q-15 16 -15 29q0 21 17 40.5t37 20.5l1 66h6v-64v-9q-2 1 -5 1q-18 0 -33.5 -18.5t-15.5 -36.5q0 -11 14 -26l1 -4
q-4 -4 -4 -12q0 -33 27 -53z" />
    <glyph glyph-name="l" unicode="l" horiz-adv-x="145" 
d="M120 323q-11 -10 -12 -29q1 16 1 -33q0 -6 -3 -6q-8 0 -8 8v40t2 10q0 2 3 6.5t3 5.5q-8 17 -8 21l1 251q0 3 -4.5 9t-4.5 8t6 4q10 -7 10 -26l1 -233q0 -25 13 -36zM109 182q-4 -1 -13 -1q-23 0 -35 25q-10 -25 -38 -25q-3 0 -11 3v61q24 10 24 27q0 5 -4 12q4 3 4 18
q0 20 -1 24q-4 9 -13 17q4 8 11 21q3 8 3 43q0 23 -1 71v71q0 17 -26 16v72h18q33 0 45 -28q7 -18 7 -59v-190q0 -8 4 -12t8 -7q-4 -7 -9 -17q-1 -5 -1 -18q0 -33 8 -48q5 -10 14 -12q8 -1 8 0q1 -57 -2 -64zM137 152l-33 -2q-13 0 -24.5 7.5t-9.5 7.5q4 0 -12 -7.5
t-29 -7.5q-9 0 -9 5v1q9 1 28 8q25 14 21 14q24 -20 30 -19h28q1 14 0 19q1 2 0 46q3 8 10 0v-72z" />
    <glyph glyph-name="m" unicode="m" horiz-adv-x="295" 
d="M269 310q0 -1 -4 -5.5t-5 -6.5q-2 -6 -3 -10v-37q-1 -1 -3 -1q-6 0 -5 26q0 22 2 26q0 1 2.5 5t2.5 5t-3.5 8t-3.5 8v102q0 10 -2 26q0 4 -4 13q12 -5 13 -27l1 -110q1 -10 6.5 -16zM262 187q0 -11 -2.5 -12t-14.5 -1q-26 0 -40 14q-9 9 -9 25q-2 41 -2 37v16
q-1 11 -1 79q0 52 -3.5 62.5t-17.5 10.5q-22 0 -22 -27v-19q-1 -8 -1 -7q0 -16 1 -20t6.5 -11t5.5 -8q0 4 -9 -11q-3 -5 -3 -29q0 -14 1 -19q-1 -9 3 -23q3 -3 12 -4.5t10 -4.5v-29q0 -20 -1 -31q-2 -2 -8 -2q-10 0 -16 3q-2 2 -5 4q-6 7 -16 18l-1 -2q-3 -23 -31 -23
q-6 0 -12 3q-1 11 -1 31q0 28 4.5 29t19.5 14q3 6 3 34q0 25 -2 32q-2 3 -6 7.5t-4 5.5t7 10q3 4 5 12q-1 1 0 38q0 29 -21 29q-23 0 -22 -28l1 -179q-2 -25 -14 -33q-8 -6 -30 -6q-10 0 -13 1.5t-3 4.5v14q-1 8 -1 9v33l16 6q8 3 8 16v27q0 25 -3 32q0 1 -4 5.5t-4 5.5
q11 17 11 23v38q0 9 -3 20q-1 6 -5 9q-8 0 -17 7q-1 2 -1 28q0 23 2 31q3 2 10 2q32 0 44 -30h1q8 31 39 31q32 0 42 -30q1 0 2 2q10 31 42 31q5 0 24 -6q6 -2 12 -14.5t6 -19.5v-86q0 -11 1 -17.5t9 -11.5q1 -2 3 -4q-5 -6 -11 -16q-1 -11 -1 -27q0 -35 4.5 -40t12 -4.5
t10.5 -2t3 -21.5v-31zM285 152l-3 -3q-7 0 -21 -1h-14q-24 0 -35 11v3h3q1 0 6.5 -3t7.5 -3.5t17 -0.5q28 0 30 3v30v37h5q3 -2 3 -6zM204 169q0 4 -2 -20q-1 -3 -4 -3h-90v8l1 -1h9q7 1 8 1l63 1q6 -1 7 8v14h5q3 -4 3 -8zM88 165q0 -8 -14 -15q-19 -10 -35 -10q-7 0 -9 5
q0 1 14 4t23 8q2 1 8 6.5t8 5.5q5 0 5 -4z" />
    <glyph glyph-name="n" unicode="n" horiz-adv-x="216" 
d="M191 315q-11 -21 -11 -28v-39h-6q-1 -1 -1 32q0 10 5 22q0 2 3 6t3 6q-1 3 -5 9q-7 17 -6 60v51q0 19 -7 36l5 1q9 -12 9 -27v-96q0 -12 10 -31zM185 186q0 -2 -1 -9h-33q-36 0 -36 43v180q0 20 -21 20q-22 0 -22 -33l-1 -128q7 -15 23 -22v-59q-1 -1 -8 -1q-23 0 -34 24
h-2q-6 -25 -32 -25h-7v62q5 -1 13.5 5t8.5 17v40q0 11 -5.5 21t-5.5 9q11 16 11 34v43q0 10 -7 14t-13 8q-1 16 0 57h13q22 0 27.5 -3t13.5 -22q8 11 16 20.5t27 9.5q47 0 47 -51v-81q0 -11 11 -29q0 1 -6 -7.5t-6 -19.5v-33q0 -32 28 -33zM207 147h-16q-45 0 -58 16
q1 6 2 6t8.5 -5t10.5 -6q15 -5 32 -5h13v72q6 1 8 1q-1 -2 0 -79zM120 148h-20q-7 0 -21 6t-15 8q1 -1 -13.5 -8t-16.5 -7q-1 0 -1 5q13 5 31 17q1 1 14 -7t36 -9q-1 18 0 24l6 1v-30z" />
    <glyph glyph-name="o" unicode="o" horiz-adv-x="178" 
d="M173 317q0 -3 -6.5 -11t-6.5 -15v-85q0 -30 -22.5 -45.5t-55.5 -14.5q-29 2 -42 21l2 4q26 -18 45 -18q25 0 45.5 13t20.5 37v73v17.5t12 23.5q0 2 -5 9.5t-5 8.5q0 114 -9 126l6 2q10 -16 10 -44v-77q0 -10 5.5 -16.5t5.5 -8.5zM149 331q-11 -13 -11 -24v-79
q0 -58 -55 -58q-65 0 -68 56q1 -8 1 87q0 6 -5.5 13t-5.5 9q11 17 11 28q0 6 -1 33v33q2 64 64 64q59 0 59 -66v-68q0 -15 5.5 -20.5t5.5 -7.5zM99 267v122q0 31 -23 31q-22 0 -22 -31v-123q0 -8 8 -15.5t16 -7.5q21 0 21 24z" />
    <glyph glyph-name="p" unicode="p" horiz-adv-x="198" 
d="M192 316q0 -1 -5.5 -7.5t-6.5 -10t-1 -21.5v-59q0 -30 -7 -46q-13 -26 -43 -26q-13 0 -29 6q-1 0 -3 -3v-30q0 -1 -2 -3h-3l-4 4v42l2 2h3q-2 0 9.5 -4.5t22.5 -4.5q2 0 1 -1h1q13 0 26.5 13t15 28t1.5 25q0 -5 0 21v48q0 23 9 29q-8 16 -8 17v94q0 12 1 8q-5 32 -5 27v4
q8 -6 12 -30l1 -94q1 -5 3 -14q1 -2 5 -7.5t4 -6.5zM164 330q0 -1 -4 -7.5t-5 -9.5q-3 -11 -3 -22v-63q0 -50 -39 -50q-17 0 -31 13q-8 8 -9 17q-1 1 -3 2q-1 -6 -2 -19l1 -71q2 -15 25 -17q1 0 3 -4v-27q0 -20 -1 -30q-2 -2 -8 -2q-25 0 -36 28q-2 -5 -8 -15
q-9 -12 -26 -12q-9 0 -9 9v50q5 3 14 9.5t9 18.5v187q0 5 -6 12.5t-0.5 14t5.5 9.5v54q-3 15 -10 18q-11 4 -11.5 5.5t-1.5 5.5l-2 54q0 1 21 1q19 0 27 -10q4 -5 11 -25q9 36 39 36q45 0 47 -51q2 -6 2 -7v-41q0 -34 1 -41q0 -3 5 -11t5 -9zM121 77l-1 -57q0 -9 -8 -9
q-18 0 -36 7q-21 8 -15 8q-1 0 -13.5 -6.5t-19.5 -6.5q-5 0 -7 5q7 3 19 9q24 13 20 13q1 0 7.5 -5.5t10.5 -7.5q11 -6 24 -6q8 1 8 4q1 21 2 56q2 2 4 2q5 -1 5 -6zM114 282v116q0 24 -19 24q-17 0 -22 -12q-2 -4 -5 -29l1 -112q2 -23 21 -23q24 0 24 36z" />
    <glyph glyph-name="q" unicode="q" horiz-adv-x="198" 
d="M180 82q0 -41 -4 -45h-22q-18 0 -26 21q-3 -5 -11.5 -13t-25.5 -8q-3 0 -11 4l1 32l-1 25q12 4 25 17q1 6 1 20v7.5v9.5q-1 1 -3 1q-1 0 -7 -4t-9 -5t-11 -1q-29 0 -42 24q-6 10 -6 13v4q1 1 4 1t4 -2q14 -32 34 -32q9 0 19.5 6t9.5 6q2 0 2 -1h1q2 0 3 2q1 23 1 20
q0 4 -2 7q-20 -20 -36 -20q-20 0 -33 16q-9 10 -12 35v83q-1 8 -5 16q-7 11 -7 9q0 1 4.5 8.5t5.5 10.5q2 9 2 24v46q0 67 41 67q33 0 44 -16q0 5 4 11h30q3 0 5 -4v-112q0 -27 13 -36q-4 -5 -8.5 -16t-4.5 -33v-119q0 -42 3 -46q9 -12 21 -13q4 0 7 -2q2 -10 2 -18zM197 18
q-5 -6 -17 -6q-19 0 -28 4q-2 1 -8.5 6t-7.5 5q2 0 -10 -7t-23 -7q-4 0 -9 3q9 4 25 11q20 13 17 13q4 0 10.5 -8.5t13.5 -10.5q4 -1 14 -1q13 0 16 6v18v39q1 3 5 3q2 0 2 -6v-62zM105 277v119q-3 24 -19 24q-21 0 -22 -24q0 -2 -1 -5.5t-1 -4.5v-109q0 -35 22 -35
q20 0 21 35zM174 286v-166q0 -6 -0.5 -7t-2.5 -1q-6 0 -6 4v169q0 7 4 15.5t4 9.5t-5 12t-5 12v118q0 3 4 3q2 0 4 -2q1 -7 1 -21v-53v-43q0 -6 6 -17.5t6 -12.5q-10 -15 -10 -20z" />
    <glyph glyph-name="r" unicode="r" horiz-adv-x="186" 
d="M145 453q0 -1 -2.5 -9.5t-2.5 -9.5q0 -2 2 -17.5t2 -16.5q0 -16 -5 -22q-8 -11 -21 -11q-6 0 -16.5 5t-10.5 11q0 1 4 10q2 3 2 9q0 16 -13 16t-13 -42v-8q-1 -22 5.5 -31t6.5 -9.5t-3.5 -5.5t-4.5 -7q-3 -8 -3 -33q0 -27 3.5 -33.5t14 -8t10.5 -8.5l-1 -58h-16
q-24 0 -32 24q-2 0 -3 -4.5t-5 -9.5q-9 -10 -27 -10q-5 0 -10 3q-1 6 -1.5 19t-0.5 14q0 17 2 27l2 1q22 3 22 40q-1 19 0 20q-1 11 -3 15q-3 8 -12 15q8 8 11 14t3 34q0 23 -1 28q-3 11 -12 13q-3 1 -8 2t-5 4l-1 56q0 4 5 5q3 0 10 -1t21.5 -1t25.5 -24q3 5 12.5 16.5
t23.5 11.5q22 0 37 -24q8 -10 8 -9zM122 221v-76q-6 -2 -12 -2q-17 0 -28 3q-3 1 -11 7.5t-9 6.5q3 0 -7 -5q-25 -12 -34 -12l-5 2v4l18 6q5 2 27 18q2 0 19 -15q6 -6 22 -6q12 0 12 5v71h7q0 -2 1 -7zM169 450l-2 -3q-4 -7 -4 -17l5 -48q0 -17 -12 -29.5t-28 -12.5
q-7 0 -27 8l-2 -1v-22q0 -4 4 -10.5t3.5 -7.5l-2.5 -5q-5 -9 -5 -20q0 -3 1 -8v-29h-7l-1 1q0 25 -1 35q0 11 0 8q0 5 2.5 11.5t2.5 7.5t-2.5 6.5t-2.5 7.5v40l2 1q1 -1 4 -3q19 -14 29 -14q16 0 25 13t8 26l-4 44q0 6 2 13t2 9q0 -5 -11 17v2q1 1 2 1l4 -4l4 -3q5 -5 13 -7
v-3q-1 -1 -2 -4z" />
    <glyph glyph-name="s" unicode="s" horiz-adv-x="180" 
d="M138 252q0 -47 -17 -59q-1 -2 -3 -5t-8 -7q-12 -9 -28 -9q-19 0 -36 22q-1 0 -1 -4q-4 -66 -41 -90q-3 4 -3 2t5 23q1 5 1 19v171q6 3 22 3t16 -6v-30q0 -41 26 -41q20 0 20 27q0 17 -9 34q-12 20 -30 20q-1 0 -1 -1h-2q-4 0 -5 4t-5 13q-13 13 -29 37q-10 29 -10 46
q0 62 60 66l2 2q7 30 30 30q14 0 14 -6q0 1 -4 -5.5t-4 -11.5t19 -28q5 -6 8 -16t3 -22q0 -14 -5 -26q-10 -24 -28 -26q0 -1 -3 -2t-4 -1h-12l-2 2q3 3 7.5 9.5t4.5 14.5q0 22 -18 22q-20 0 -20 -22q0 -17 15.5 -28.5t35.5 -9.5q3 -17 14 -33q25 -36 25 -78zM157 199
q-1 -6 -6 -17q-18 -35 -38 -35q-1 0 -6 -1h-6q3 0 -32 8q-8 -15 -15 -31q-13 -24 -19 -24q-2 0 -4 2q12 15 32 67h3q18 -17 33 -17q27 0 42 32q13 26 13 57q0 24 -6 49q-8 34 -29 58q-9 10 -3.5 15.5t18.5 20.5t13 36q0 17 -8 31t-17 27q-4 8 -4 14q0 10 6 10l3 -15
q2 -5 15.5 -24t13.5 -37q0 -34 -28 -63q-6 -6 -6 -7t9 -12.5t12 -16.5q19 -32 19 -82q0 -21 -5 -45z" />
    <glyph glyph-name="t" unicode="t" horiz-adv-x="159" 
d="M131 218q0 3 -7 -6.5t-34 -30.5l-15 -1l-17 3l-14 6l-13 16q-8 24 -8 35v63q0 23 -13 33q13 11 13 51q0 11 -1 25q1 4 -1 13q-1 0 -13 1q-8 1 -8 6l-1 37q0 9 3.5 12t13.5 10.5t11 20.5q1 9 1 20q0 70 2 61h37l-1 -98q0 -5 8 -6h12q4 -1 5 -3t2 -11v-9l-1 -36
q-3 -4 -13 -4t-13 -4v-66q0 -8 12 -20q0 -1 -5 -7t-6 -10.5t-1 -32.5q0 -32 4 -35h2q10 0 10 12v24q0 9 1 34q0 1 2 3t7 2q-2 0 4 0q6 -1 24 -1q4 -4 4 -6v-85q0 -1 3.5 -7.5t3.5 -8.5zM84 495q-2 0 -3 2v67q0 7 4 7q5 0 5 -4v-68q0 -3 -6 -4zM105 437q1 0 2 1q-2 2 -3 4v9
q0 11 4 11q2 0 4 -3q2 -40 2 -33q0 8 -2 -29q-2 -2 -7 -2h-2q-8 0 -12 -4v-48q0 -1 1 -4.5t1 -5.5q0 -3 -3 -3q-8 0 -8 22v47q8 -1 23 5v33zM115 162l-21 -7l-16 1l-20 9l-24 18l2 4l2 1q26 -20 48 -25h11l16 6q15 7 24 20q4 6 4 11q0 2 -2 8.5t-2 7.5v73q0 15 4 15
q5 0 5 -7v-2v-77q0 -1 2.5 -9.5t2.5 -9.5q0 -12 -36 -37z" />
    <glyph glyph-name="u" unicode="u" horiz-adv-x="214" 
d="M184 176h-25q-29 0 -38 33q-14 -35 -40 -35q-18 0 -23 4q-28 24 -28 66v70q0 6 -7 16t-7 11t6.5 12t7.5 13v38q0 20 -17 20q-4 0 -4 2l-1 59h43q5 0 13 -8t9 -14v-50q0 -45 -1 -142q0 -22 21 -22q22 0 22 22v136q0 17 -24 16l1 62h26q38 0 38 -27v-77q0 -31 13 -42
q-12 -22 -12 -21v-58q0 -18 27 -18v-66zM206 148q-48 -1 -80 23q-13 -20 -38 -20q-29 0 -51 31l2 1q26 -28 52 -24q23 3 34 22q32 -25 73 -25v66q4 -3 8 -7v-67zM183 302v-50v1q-4 0 -8 9v3v38q0 3 3.5 8.5t3.5 6.5q0 -7 -6 11q-3 10 -3 15v100q0 9 -4 15l-1 2h6q3 -1 7 -22
v-99q1 -7 5.5 -15t4.5 -9q-8 -13 -8 -14z" />
    <glyph glyph-name="v" unicode="v" horiz-adv-x="216" 
d="M81 487h15v-61q-25 -2 -25 -19q0 -8 23 -132q17 95 28 181q3 25 23 29q2 1 40 1v-62h-8q-16 0 -22 -12q-11 -24 -11 -58q0 -8 9 -25q-15 -11 -18 -31l-21 -117h-43q-11 64 -21 115q-3 18 -6 22l-13 15q8 12 8 20t-9 48q-6 26 -30 26v60h12q22 0 32 -20l2 -3q1 -4 12 9.5
t23 13.5zM205 405q-9 -1 -25 -12q-12 -20 -12 -57q0 -6 3.5 -14t3.5 -9q-1 -1 -4 -5l-3 -4q-9 -9 -25 -95q-10 -56 -11 -58h-4h-5q-12 0 -29 1l-5 6h37q3 23 11 73q8 43 17.5 64t9.5 23t-2.5 8t-2.5 10q0 5 5.5 32.5t7.5 29.5q7 10 25 14v50l8 -1v-56z" />
    <glyph glyph-name="w" unicode="w" horiz-adv-x="278" 
d="M120 151h-38v7h30l11 59l7 -1zM121 295q-8 -31 -22 -116h-36l-16 91q-2 15 -8 43q-1 7 -13 16q8 3 8 20q0 8 -11 53q-3 13 -21 18v69h16.5t21.5 -36h1h1v2q-1 7 10 26q5 9 19 9q6 0 10 -1v-68q-19 0 -19 -17q0 -1 4 -27q7 -42 15 -89l32 200h14q10 -67 34 -199l10 76
q6 37 6 40q0 19 -24 21v63q21 -1 30.5 -8.5t16.5 -28.5q12 38 46 37h4v-31v-32q-29 0 -32 -20v-1q-8 -14 -8 -47q0 -8 4 -18t4 -9q-10 -6 -13.5 -13.5t-27.5 -138.5h-34q0 9 -10 60t-12 56zM272 398q-4 1 -9 1q-19 0 -24 -19q-10 -39 -10 -52q0 -15 6 -23q-12 -18 -15 -31
t-24 -123h-36q-1 4 -1 6v1h31q7 44 15 82q3 16 11 48q1 2 5.5 10t4.5 9q-5 12 -5 17q0 34 11 67q6 17 32 17v54h8v-64z" />
    <glyph glyph-name="x" unicode="x" horiz-adv-x="212" 
d="M205 398h-31q-9 0 -20 -24t-11 -34q0 -14 15 -21q-1 -4 -1 -9q0 -18 17 -47h-9q-18 34 -18 43q0 1 1 11q-14 18 -14 22q0 15 14 41.5t28 26.5h20v53h9v-62zM184 177q-1 -1 -3 -1q-26 0 -37 20q-1 -7 -4 -21q-12 -40 -27 -41v57q0 70 -23 103q-16 -18 -16 -35
q0 -14 21 -15v-45v-22q-8 -1 -13 -1q-10 0 -20.5 10t-12.5 20q-8 -30 -45 -30v66q7 2 20 6q8 5 16 21q19 42 19 51q0 6 -7 12q11 7 11 14q0 13 -25 58q-7 14 -21 17q-3 1 -16 1v64h16q19 0 30 -28q8 18 16.5 23t28.5 5v-64h-6q-12 0 -12 -8q0 -5 16 -40q9 23 27.5 67
t42.5 44h21v-60q-1 1 -5 1q-9 0 -21 -6q-8 -4 -22 -33t-14 -39q0 -11 10 -15q-6 -7 -6 -15q0 -9 12 -34.5t19 -32t31 -4.5v-26q0 -23 -1 -44zM210 153h-18q-18 0 -31 8q-1 -1 -8 -19q-7 -14 -10 -14q-2 0 -5 3q7 13 20 40q22 -11 33 -11q5 0 9 2v63h3.5h6.5v-72zM108 151
q-2 -1 -4 -1q-5 0 -22.5 6.5t-17.5 10.5q-22 -16 -45 -16v7h1q16 -1 43 17q26 -18 45 -19v-5z" />
    <glyph glyph-name="y" unicode="y" horiz-adv-x="209" 
d="M205 400q-7 0 -15 -1q-21 -3 -21 -54q0 -12 4 -20q2 -4 4 -7q0 -2 -2 -3q-12 -8 -16 -19t-10 -54l-9 -54q-3 -21 -3 -22v-45q1 -30 1 -46q0 -58 -49 -58q-20 0 -34 7l1 6q9 -5 31 -5q16 0 22 5q19 13 19 33v11q-1 7 -1 11q0 73 1 80q5 85 22 136q1 4 9.5 11t8.5 9
q0 -1 -2 4q-6 11 -6 19q0 22 3 37l9 18q15 11 26 8l-1 63l8 -1v-69zM183 428h-5q-11 0 -15 -3q-7 -6 -13 -32q-5 -22 -5 -35q0 -8 4.5 -14.5t2.5 -8.5t-7.5 -8.5t-8 -14t-17.5 -86.5q-5 -25 -5 -39v-102q0 -44 -50 -44q-27 0 -27 10v52q5 -2 13 -2q21 0 21 25v51
q0 33 -20 131q-4 19 -22 27q11 15 11 24q0 10 -8 46q-4 18 -26 19v60l11 1q21 0 31 -20q9 20 29 19h5h11v-60q-23 1 -23 -17q0 -1 5.5 -29.5t18.5 -92.5q16 97 25 148q1 10 6.5 30t27.5 20q5 0 15 1h15v-56z" />
    <glyph glyph-name="z" unicode="z" horiz-adv-x="166" 
d="M117 327h-5q-1 1 -1 4q0 11 16 44q19 39 21 47q1 4 0 44l7 1v-45q0 -8 -17.5 -45t-20.5 -50zM136 182h-19q-23 0 -30.5 4t-18.5 22l-16 -22q-7 -5 -29 -5l-18 1v67q33 62 33 73q0 3 -2 8.5t-2 7.5q9 6 22 15q3 4 14 31t11 31q0 13 -16 13q-24 0 -24 -29l6 -21
q-5 -4 -13 -4q-11 0 -18.5 11.5t-6.5 23.5l4 48q0 6 -5 33q2 1 18 1q36 0 44 -32q5 12 10.5 22.5t39.5 9.5h13v-52q-35 -67 -35 -86l5 -18q-24 -11 -27 -18q-24 -54 -24 -59q0 -10 20 -10q22 0 25 26q0 1 -1 42q21 2 30 1h10v-135zM157 155q3 0 -30 0q-21 0 -46 13
q-17 -14 -56 -15l1 6q37 0 53 18q28 -15 51 -15q4 0 19 1l-1 129h10z" />
    <glyph glyph-name="braceleft" unicode="{" horiz-adv-x="166" 
d="M49 197v92q-3 24 -20 35q18 11 18 23v2q-15 -8 -19 -8q-19 0 -19 20q0 8 7 17q8 -8 15 -8q9 0 12 12t6 23v83l97 63l-51 -89v-242l51 -87z" />
    <glyph glyph-name="braceright" unicode="}" horiz-adv-x="189" 
d="M25 133l51 87v242l-51 89l97 -63v-83q3 -11 6.5 -23t12.5 -12q6 0 15 8q6 -9 6 -17q0 -20 -19 -20q-4 0 -19 8v-2q0 -12 18 -23q-17 -11 -20 -35v-92z" />
    <glyph glyph-name="asciitilde" unicode="~" horiz-adv-x="216" 
d="M175 684q-16 0 -48 13.5t-48 13.5q-1 0 -37 -15l-15 15q39 46 59 46q23 0 49.5 -15.5t34.5 -15.5q13 0 27.5 10t15.5 11l18 -16q-38 -47 -56 -47z" />
    <glyph glyph-name="bar" unicode="|" horiz-adv-x="265" 
d="M89 256q19 0 27 27q3 24 7 47q-2 23 -3 46q-3 27 -31 27q-13 0 -30 -15q-12 17 -12 32q0 16 10 28t26 12q13 0 21 -5l16 -10q1 1 1 3q0 24 -35 45q24 16 36 57q8 33 16 67q9 -34 17 -67q12 -41 36 -57q-35 -21 -35 -45v-3q9 5 17 10t21 5q16 0 26 -12t10 -28
q0 -15 -12 -32q-17 15 -30 15q-27 0 -32 -72q3 -24 7 -48q6 -27 25 -27q13 0 30 16q12 -18 12 -33q0 -16 -10 -28t-26 -12q-13 0 -21 5t-17 10v-2q0 -25 35 -46q-24 -16 -36 -56q-8 -34 -17 -68l-16 68q-12 40 -36 56q35 21 35 46q0 1 -1 2l-16 -10t-21 -5q-16 0 -26 12
t-10 28q0 15 12 33q17 -16 30 -16zM189 331q0 22 20 22q19 0 19 -22q0 -21 -19 -21q-20 0 -20 21zM49 331q0 22 20 22q19 0 19 -22q0 -21 -19 -21q-20 0 -20 21z" />
    <glyph glyph-name="quotesinglbase" unicode="&#x201a;" horiz-adv-x="197" 
d="M166 39q-2 -54 -61 -140l-6 7q58 83 58 131q0 52 -23 87l6 5q29 -41 26 -90zM72 -79q-7 0 -7 7q19 45 19 79q0 6 -19 25t-19 57q0 16 9.5 31.5t24.5 15.5q13 0 28 -14q22 -20 22 -65q0 -70 -46 -126q-9 -10 -12 -10z" />
    <glyph glyph-name="quotedblbase" unicode="&#x201e;" horiz-adv-x="347" 
d="M316 39q-2 -54 -61 -140l-6 7q58 83 58 131q0 52 -23 87l6 5q29 -41 26 -90zM222 -79q-7 0 -7 7q19 45 19 79q0 6 -19 25t-19 57q0 16 9.5 31.5t24.5 15.5q13 0 28 -14q22 -20 22 -65q0 -70 -46 -126q-9 -10 -12 -10zM166 39q-2 -54 -61 -140l-6 7q58 83 58 131
q0 52 -23 87l6 5q29 -41 26 -90zM72 -79q-7 0 -7 7q19 45 19 79q0 6 -19 25t-19 57q0 16 9.5 31.5t24.5 15.5q13 0 28 -14q22 -20 22 -65q0 -70 -46 -126q-9 -10 -12 -10z" />
    <glyph glyph-name="ellipsis" unicode="&#x2026;" horiz-adv-x="455" 
d="M369 221q0 -40 -23 -40h-5q-25 0 -25 39t24 39q29 0 29 -38zM393 210q0 -47 -26 -51q-1 -1 -2 -3q-4 -1 -13 -1q-12 0 -23 10q1 4 5 5q1 0 7.5 -3t8.5 -3q31 0 31 44q0 11 -3 25q-2 2 -2 4v5h8q4 -5 6 -14q3 -12 3 -18zM235 221q0 -40 -23 -40h-5q-25 0 -25 39t24 39
q29 0 29 -38zM259 210q0 -47 -26 -51q-1 -1 -2 -3q-4 -1 -13 -1q-12 0 -23 10q1 4 5 5q1 0 7.5 -3t8.5 -3q31 0 31 44q0 11 -3 25q-2 2 -2 4v5h8q4 -5 6 -14q3 -12 3 -18zM101 221q0 -40 -23 -40h-5q-25 0 -25 39t24 39q29 0 29 -38zM125 210q0 -47 -26 -51q-1 -1 -2 -3
q-4 -1 -13 -1q-12 0 -23 10q1 4 5 5q1 0 7.5 -3t8.5 -3q31 0 31 44q0 11 -3 25q-2 2 -2 4v5h8q4 -5 6 -14q3 -12 3 -18z" />
    <glyph glyph-name="quoteleft" unicode="&#x2018;" horiz-adv-x="204" 
d="M117 441q-4 0 -12 10q-47 56 -47 126q0 45 22 65q15 14 28 14q15 0 24.5 -15.5t9.5 -31.5q0 -38 -19 -57t-19 -25q0 -34 19 -79q0 -7 -6 -7zM163 640q8 -30 5 -71l-1 -2q-19 -36 -33 -49q0 -18 18 -78q0 -2 -1 -3l-20 -20l-5 5l18 18q-17 58 -17 76q0 5 2 7q12 11 32 47
q3 39 -5 69z" />
    <glyph glyph-name="quoteright" unicode="&#x2019;" horiz-adv-x="191" 
d="M166 559q-2 -54 -61 -140l-6 7q58 83 58 131q0 52 -23 87l6 5q29 -41 26 -90zM72 441q-7 0 -7 7q19 45 19 79q0 6 -19 25t-19 57q0 16 9.5 31.5t24.5 15.5q13 0 28 -14q22 -20 22 -65q0 -70 -46 -126q-9 -10 -12 -10z" />
    <glyph glyph-name="quotedblleft" unicode="&#x201c;" horiz-adv-x="344" 
d="M257 441q-4 0 -12 10q-47 56 -47 126q0 45 22 65q15 14 28 14q15 0 24.5 -15.5t9.5 -31.5q0 -38 -19 -57t-19 -25q0 -34 19 -79q0 -7 -6 -7zM303 640q8 -30 5 -71l-1 -2q-19 -36 -33 -49q0 -18 18 -78q0 -2 -1 -3l-20 -20l-5 5l18 18q-17 58 -17 76q0 5 2 7q12 11 32 47
q3 39 -5 69zM117 441q-4 0 -12 10q-47 56 -47 126q0 45 22 65q15 14 28 14q15 0 24.5 -15.5t9.5 -31.5q0 -38 -19 -57t-19 -25q0 -34 19 -79q0 -7 -6 -7zM163 640q8 -30 5 -71l-1 -2q-19 -36 -33 -49q0 -18 18 -78q0 -2 -1 -3l-20 -20l-5 5l18 18q-17 58 -17 76q0 5 2 7
q12 11 32 47q3 39 -5 69z" />
    <glyph glyph-name="quotedblright" unicode="&#x201d;" horiz-adv-x="341" 
d="M316 559q-2 -54 -61 -140l-6 7q58 83 58 131q0 52 -23 87l6 5q29 -41 26 -90zM222 441q-7 0 -7 7q19 45 19 79q0 6 -19 25t-19 57q0 16 9.5 31.5t24.5 15.5q13 0 28 -14q22 -20 22 -65q0 -70 -46 -126q-9 -10 -12 -10zM166 559q-2 -54 -61 -140l-6 7q58 83 58 131
q0 52 -23 87l6 5q29 -41 26 -90zM72 441q-7 0 -7 7q19 45 19 79q0 6 -19 25t-19 57q0 16 9.5 31.5t24.5 15.5q13 0 28 -14q22 -20 22 -65q0 -70 -46 -126q-9 -10 -12 -10z" />
    <glyph glyph-name="endash" unicode="&#x2013;" horiz-adv-x="441" 
d="M421 209h-421v55h421v-55z" />
    <glyph glyph-name="emdash" unicode="&#x2014;" horiz-adv-x="790" 
d="M770 209h-770v55h770v-55z" />
    <glyph glyph-name="afii10017" unicode="&#x410;" horiz-adv-x="306" 
d="M200 54q-14 -34 -19 -40q-11 -13 -40 -19h-5v-4q-1 -29 19 -29q-3 0 15 7q7 -3 7 -24q0 -7 -7 -14t-14 -7t-20 8q2 -9 22 -24q-16 -16 -28 -33q-15 19 -30 30q24 18 24 25l-1 2q-14 -7 -18 -7q-20 0 -20 24q0 23 10 23q1 0 5 -3t8 -3q18 0 18 30q-1 -1 -3 -1q-1 1 -4 1
q-40 5 -52 63q-13 -36 -16 -41q-12 -19 -37 -19h-11l-1 110h16q16 0 24 36q7 30 15 115q3 39 3 37q0 15 -22 30q9 5 21 21h-2q-2 0 -6.5 -1.5t-7.5 -1.5q-22 0 -22 19q0 24 14 24q2 0 4.5 -7t9.5 -7q19 0 24 50l24 228h27q-2 27 -28 44v1q26 19 34 63q9 -27 14 -37
q9 -17 21 -27q-8 -7 -17 -14q-13 -14 -15 -30h25q11 -105 37 -313l1 -2q2 1 12 10q7 6 14 6q11 0 18.5 -8.5t7.5 -19.5q0 -18 -16 -27q-2 6 -13 12q-8 1 -14.5 -7.5t-5.5 -15.5v-2q4 -29 11 -87q1 -17 6 -50q6 -37 30 -41q7 -1 19 -3v-104h-4q-55 -1 -61 54zM266 306
q0 -27 -29 -37q5 -54 18 -146q-1 0 -6 0.5t-8 28.5q-2 18 -9 77q-2 13 -4 38v2q0 5 4 7q32 15 29 40q5 -4 5 -10zM183 -32q-3 0 -5 6q15 8 42 28q31 -28 62 -28h2v97l9 -1v-107q-42 1 -72 27q-3 -1 -18 -11.5t-20 -10.5zM89 -7q-19 -32 -52 -32l-1 8q34 7 45 29zM227 365
l-29 256q-11 1 -11 2q0 -5 10 -85l20 -175q3 -1 6 -1q4 0 4 3zM147 326l-15 156l-18 -164q-1 -4 3.5 -12t8.5 -8h7q6 0 10.5 11t3.5 17zM154 257q-23 -4 -45 0l-13 -104q-2 -15 -2 -14q0 -13 9.5 -23t22.5 -8v-106h11q0 -6 0 53t0 54q27 0 27 29q0 4 -1 12zM154 203l-10 -1
q-5 -36 -11 -85l-8 2q2 28 11 90h16z" />
    <glyph glyph-name="afii10019" unicode="&#x412;" horiz-adv-x="284" 
d="M102 -64q-10 0 -21 7v-6q0 -11 19 -26q-11 -8 -25 -36q-15 29 -26 36q20 14 19 32q-8 -7 -20 -7q-22 0 -22 20q0 7 10 19q7 -8 16 -8q13 0 18 17l4 28h5v-5q-1 -39 16 -39q7 0 19 6q6 -5 6 -14q0 -24 -18 -24zM161 -4q-44 0 -57.5 21t-26.5 44q-4 -14 -8.5 -28.5
t-14.5 -22.5t-44 -10v108q24 5 25 6q18 8 18 32q0 -2 0 58v67q1 13 0 38q-2 16 -16 22q5 4 9.5 8t6.5 18q-16 -7 -19 -7q-8 0 -15.5 7t-7.5 15q0 18 15 20q9 -12 13 -12q13 0 13 18v116q0 16 -12 24.5t-28 6.5v106q1 1 6 1q57 0 64 -64q8 70 73 70q35 0 58 -24.5t23 -59.5
v-176q0 -39 -36 -63q38 -19 38 -55q0 -5 -1 -8v1v-190q0 -38 -20 -62.5t-56 -24.5zM271 257v-202q0 -41 -29.5 -70.5t-72.5 -27.5q-16 0 -47 21q1 7 4 7l8 -5q19 -13 37 -14q32 0 59 22.5t28 49.5q2 32 2 108l1 129q0 36 -25 52q1 -1 14 17q10 15 10 53q0 20 1 84q1 52 0 83
q0 11 -6 34q0 3 -4 10t-4 12q24 -12 24 -63v-178q0 -10 -7 -31q-5 -7 -14 -21q21 -17 21 -70zM183 284q0 20 -20 18q-8 5 2 15q-3 1 -6 1q-25 8 -57 20l-1 -178q0 -49 41 -49q21 0 32 23q9 19 9 42v108zM183 406v96q0 19 -11 34t-30 15q-41 0 -41 -35q1 -17 0 -46v-46
q0 -65 41 -65q19 0 30 14t11 33zM147 127q-4 -6 -7 -6q-4 0 -8.5 10t-4.5 14q0 150 1.5 149.5t9.5 -4.5v-145q2 -7 9 -18zM159 513h-11q-9 1 -9 -7v-111q-1 -8 3 -14t4 -8t-7 -2q-10 0 -10 16v110q0 30 30 25v-9zM113 704q-20 -18 -29 -63q-7 47 -30 62q17 18 29 57
q8 -31 30 -56z" />
    <glyph glyph-name="afii10022" unicode="&#x415;" horiz-adv-x="296" 
d="M107 695v-1q-18 -7 -24 -24t-11 -33l-3 1q-5 25 -9 33q-7 15 -23 25q18 8 24.5 28.5t11.5 35.5q6 -26 9 -34q6 -16 25 -31zM250 365l-1 263h12v-271h-55v9zM164 507q-24 4 -27 -9v-55h-10v67.5t37 3.5v-7zM197 317h-9v62h9v-62zM232 0h-108q-28 0 -47 55h-1
q-4 -18 -18 -35q-16 -20 -32 -20h-15v110q0 1 5 0q34 0 35 60v125q0 21 -23 31q6 0 14 11.5t8 18.5l-1 1q-11 -13 -22 -13q-22 0 -22 21q0 20 10 20q2 0 6 -4.5t9 -4.5q16 0 18 19q2 1 2 4v87q-15 16 -30 22q0 -2 0 3q0 2 1 3q13 -1 28 -19q1 11 1 14q0 42 -31 42
q-4 0 -8 -1l1 76q0 6 -1 26q6 2 12 2q44 0 47 -64h2q5 22 11 44q9 18 45 18h98v-260h-45q0 10 -1 33v33q1 60 -1 68q-6 23 -40 23q-40 0 -40 -39v-138q0 -17 10 -17q11 0 12 30v39v8h39v-207h-39v65q0 15 -12 15q-9 0 -9 -13v-144q0 -36 35 -36q32 0 41 33q3 14 3 59v105h53
v-309zM265 -36h-104q-12 0 -22 7l-4 12q6 -6 17 -10h103v295q3 0 10 -4v-300zM136 124q-1 -1 -4 -1q-7 0 -7 8l-1 82h12v-89zM121 -43v-2q2 -18 -18 -18q-10 0 -21 7v-6q0 -11 19 -26q-11 -8 -24 -37q-16 30 -27 37q20 14 20 33q-9 -8 -21 -8q-21 0 -21 21q0 6 9 18
q8 -8 17 -8q12 0 17 18q2 13 4 27h5v-5q-1 -39 17 -39q6 0 19 6q6 -5 6 -14q0 -3 -1 -4z" />
    <glyph glyph-name="afii10028" unicode="&#x41a;" horiz-adv-x="324" 
d="M170 697q-12 -8 -33 -39q-6 15 -9 19q-7 10 -22 19q18 16 32 64q4 -12 9.5 -29.5t22.5 -33.5zM299 606l1 -97q-12 1 -23 1q-18 -2 -25 -19q-23 -62 -50 -134q-6 3 -8 1q0 4 22 65.5t26 66.5q13 31 48 29v100q2 -2 9 -13zM265 113l-4 -2q-5 0 -11 20l-42 139q0 1 1.5 2
t2.5 2q18 19 18 31q0 7 -9 24h3q13 0 13 -29q0 -24 -21 -32zM304 -42q-10 -1 -15 -1q-20 0 -42.5 11.5t-30.5 1.5t-25 -10q3 0 -3 5q7 -1 19.5 8.5t16.5 17.5q49 -26 63 -25h8v108q9 1 9 -2v-114zM98 -6q5 -7 -24.5 -23.5t-38.5 -12.5l-3 5q19 3 38.5 14t24.5 21zM51 491
q1 21 -4 30q-8 17 -36 20q0 -1 0 111q36 -1 46 -12t18 -48q12 36 17 44q10 16 33 16h5v-108q-23 -1 -29 -26q-1 -13 -2 -27v-110q0 -22 16 -22q10 0 10 17q1 79 0 94q-1 11 5 24t18 13l10 -1q-1 -7 -11 -7q-15 0 -15 -33q0 -11 -1 -69q41 117 41 122q0 18 -26 24
q-1 78 -1 109q3 -1 8 0q40 0 50 -54q1 -1 1 0q5 55 63 54v-109q-12 2 -32 -19q-15 -16 -71 -188l2 -4q10 15 24 15q24 0 24 -24q-2 -13 -11 -18q-5 11 -15 9q-13 -7 -12 -15q21 -68 46 -153q5 -27 48 -49q1 -31 0 -98l-15 1q-42 0 -49 51q-6 -30 -18 -41.5t-42 -9.5v105
q22 4 22 32q0 30 -56 171q-8 0 -8 -17v-134q0 -52 28 -53v-103q-27 -3 -38 9q-6 7 -17 37q-4 -29 -22 -39q-13 -7 -45 -8q0 -1 0 17v85q26 6 34 26q5 12 5 42v115q0 26 -20 39q18 11 18 23v2q-15 -8 -19 -8q-19 0 -19 20q0 8 7 17q8 -8 15 -8q17 0 19 37v78q-10 5 -28 19
q-1 1 3 4zM135 228v-96h-10v96h10zM164 -74q-10 0 -21 7v-6q0 -11 14 -20q-12 -14 -20 -32q-9 18 -21 31q15 9 14 27q-8 -7 -20 -7q-22 0 -22 20q0 7 10 19q7 -8 16 -8q13 0 18 17l4 28h5v-5q-1 -39 16 -39q7 0 19 6q6 -5 6 -14q0 -24 -18 -24z" />
    <glyph glyph-name="afii10030" unicode="&#x41c;" horiz-adv-x="410" 
d="M304 693q-20 -9 -31 -49q-1 -3 -3 -3q-1 1 -1 2q-5 14 -11 28q-4 11 -18 23q17 15 21.5 33.5t9.5 32.5q5 -12 12 -33q5 -23 21 -34zM379 511q-38 4 -38 -12q-1 -43 0 -135l-10 3v132q0 27 40 24v107l8 -3v-116zM100 691q-20 -9 -31 -48q-1 -3 -2 -3t-2 1q-5 14 -10 27
t-19 25q18 14 22 33t10 34q5 -14 11 -35q5 -23 21 -34zM192 419q2 -14 -6 -22l-2 15q-13 74 -29 205q-1 16 -1 18h7zM377 318q0 -19 -11.5 -31.5t-22.5 -11.5v-146q-3 1 -5.5 2t-4.5 4v147q24 6 31 21q3 7 3 26q-2 4 -7 17q1 3 6 3q11 -6 11 -31zM39 503v-2q-6 5 -23 14
q-1 0 -1 4t2 4q7 0 14.5 -6.5t7.5 -13.5zM47 292q-5 22 -20 32q18 11 18 23v2q-15 -8 -19 -8q-19 0 -19 20q0 8 7 17q8 -8 15 -8q12 0 17 35v119q-4 24 -38 28v106l5 -2q26 0 40 -24q6 -16 13 -32q7 15 15 29q17 26 52 32q-7 -13 -7 -48q0 -24 23 -180.5t27 -166.5l28 170
q18 110 18 177q0 30 -4 45q27 -4 38 -17q8 -9 21 -42q6 17 11 34q11 20 42 24l10 1v-108q-35 -3 -35 -37v-165q8 11 21 11q26 0 26 -25q-4 -22 -17 -27q-2 3 -6 8t-10 4q-13 -1 -13 -36v-76q0 -64 -1 -60q10 -33 47 -35v-110q-13 -2 -16 -2q-42 0 -52 63q-9 -34 -16 -44
q-12 -17 -40 -17h-10v110q23 6 36 35q4 58 4 71l-1 264h-3l-16 -133q-1 -11 10 -24q-6 -8 -16 -30q-21 -70 -41 -295h-20q-14 102 -45 290q-1 9 -20 34q9 13 8 23q-9 71 -22 144v-326q0 -34 23 -45q2 -1 28 -5v-113l-13 1q-23 0 -36 13q-8 8 -20 33q-8 -16 -16.5 -31.5
t-35.5 -15.5h-14v120q29 -7 39 23v147zM385 -7v-26q-4 -3 -13 -3q-16 0 -37 8t-27 17q0 6 4 4q43 -18 50 -18t11 3v105h12v-90zM331 -45q0 -19 -20 -19q-4 0 -17 7l-2 -3q0 -7 9.5 -15t9.5 -10q0 2 -12 -19q-4 -9 -11 -21q-12 16 -29 43q1 3 9.5 11t8.5 11v3q-13 -9 -20 -9
t-14 6.5t-7 13.5q0 19 10 19q2 0 6 -1t5 -1q13 0 18 22q4 16 7 32h3q11 -55 26 -55q2 0 5.5 1.5t4.5 1.5q10 0 10 -18zM222 -17q0 -4 -7 -27h-71q-3 10 0 10h64l7 28q7 -8 7 -11zM120 -47q0 -19 -18 -19q-1 0 -17 7q-1 0 -1 -2q0 -7 9 -13.5t9 -8.5q-10 -13 -25 -42h-3
q-2 5 -7 15q-17 30 -17 27t18 23h-1q-6 -7 -16 -7q-21 0 -21 22q0 16 8 16q2 0 5.5 -1.5t5.5 -1.5q12 0 18 23q4 17 7 34h4l6 -32q5 -23 16 -23q2 0 6 1t5 1q9 0 9 -19z" />
    <glyph glyph-name="afii10031" unicode="&#x41d;" horiz-adv-x="327" 
d="M220 2l5 -4q20 -24 58 -32h10v109q5 0 9 -1v-117q-11 0 -41 7q-17 6 -41 27l-27 -19l-2 7q11 6 29 23zM103 -3q-4 -4 -8 -9q-21 -20 -38 -21q-3 2 -5 5q9 3 23 10q4 3 22 18zM168 694q-17 -7 -30 -33h-3q-5 20 -30 33q23 22 27 39q1 10 5 27q2 -7 5 -26q3 -15 26 -40z
M298 509q-9 -1 -26 -5q-10 -4 -11.5 -15.5t-1.5 -22.5v-28v-76q-1 1 -9 4q1 9 0 12v107q0 20 17 28q3 1 22 4v100h9v-108zM137 488v-116q0 -9 -3 -9q-6 0 -6 9v117q2 21 23 21q5 0 12 -3v-8q-24 8 -26 -11zM48 489l-2 -4q-4 5 -12 13q-5 4 -12 5l1 6q7 1 15.5 -6t9.5 -14z
M290 312q0 -25 -28 -37v-155q-1 -1 -3 -1q-7 0 -7 15v146q28 11 28 35q0 7 -3 12q-4 9 -5 10q0 1 1.5 1.5t9 -5.5t7.5 -21zM166 274q-17 -5 -28 -1v-154l-10 6v150v9q11 -6 38 -1v-9zM169 -63q-10 0 -21 7v-6q0 -11 19 -26q-11 -8 -24 -37q-16 30 -27 37q20 14 20 33
q-9 -8 -21 -8q-21 0 -21 21q0 6 9 18q7 -7 18 -7q19 0 18 34h6q-2 -12 3 -22.5t14 -12.5q8 -3 20 7q6 -5 6 -14q0 -24 -19 -24zM31 370q21 0 21 38l1 -1l-1 105q0 15 -14 24t-26 8v108h6q14 0 28 -7q18 -10 20 -28q0 -4 7 -52l5 52q2 14 18 24.5t27 10.5h8v-112
q-29 -1 -29 -35q0 10 0 -118q0 -14 1 -20q3 -15 33 -15q33 0 38 16q2 7 2 24v116q0 13 -11 23.5t-20 9.5v110h10q18 0 32 -14q11 -10 12 -19l5 -46q2 17 5.5 48.5t43.5 31.5h13v-110q-41 -9 -41 -40v-148q-1 -2 1 -7q6 7 17 7q9 0 16.5 -8t7.5 -16q0 -20 -13 -24q-3 3 -15 7
q-12 -1 -12 -26v-145q0 -15 10 -26t25 -11h8v-105q-41 -1 -53 20q-8 13 -11 38q-5 -16 -13 -39q-5 -7 -25 -17q-7 -1 -20 -1v102q28 10 28 63v150q-28 -6 -30 -6q-17 0 -22 1l-23 5v-154q0 -53 34 -59v-103q-33 0 -46 22l-12 37q-16 -43 -22 -52t-38 -7v105q1 0 4 1
q33 6 33 54v129q-5 13 -25 35q18 11 18 23v2q-15 -8 -19 -8q-19 0 -19 20q0 8 7 17q8 -8 15 -8z" />
    <glyph glyph-name="afii10032" unicode="&#x41e;" horiz-adv-x="314" 
d="M264 386q0 -6 -8 -6q-2 0 -2 3v184q0 21 -11.5 39t-24.5 34l5 4q41 -31 41 -71v-187zM294 328q0 -13 -9 -24.5t-21 -12.5v-193q0 -96 -64 -116l-4 6q31 4 47 46q11 31 11 69l1 194q31 7 31 35q0 11 -6 20q14 -1 14 -24zM49 294q-5 21 -19 30q18 11 18 23v2q-15 -8 -19 -8
q-19 0 -19 20q0 8 7 17q8 -8 15 -8q14 0 17 37v148q0 43 23.5 73.5t66.5 31.5q-11 32 -27 43q20 21 31 57q8 -31 30 -56q-15 -13 -24 -44q32 -3 55.5 -32.5t24.5 -63.5q-1 24 -1 -208l15 8q24 4 27 -25q2 -21 -18 -25q-6 12 -13 11q-10 -3 -11 -12v-203q0 -106 -78 -111
q1 -9 9 -20.5t16 -11.5q11 0 14 7q3 -8 3 -15t-6.5 -14.5t-12.5 -7.5q-15 0 -21 7q0 -16 19 -32q-11 -9 -24 -37q-8 15 -11 19q-7 13 -16 18q20 15 20 33q-9 -8 -21 -8q-21 0 -21 21q0 13 9 18q11 -8 22 -8t14 31q-56 4 -76 31q-18 23 -18 81v183zM180 500q0 46 -44 46
q-17 0 -28 -12t-11 -30v-151q11 13 26 13q8 0 15.5 -8t7.5 -17q0 -8 -7 -17t-15 -9q-3 8 -11 10q-15 0 -15 -37l-1 -127q0 -44 40 -44q18 0 29.5 13t11.5 32v129q0 26 -16 44q18 18 18 29v136zM175 506l-1 -2q-13 7 -21 7q-22 0 -22 -22v-116l-8 2v53v66q6 23 35 23
q13 0 17 -11zM165 316q-7 -26 -31 -34q1 -7 1 -145q-9 10 -9 17v134q17 8 23 16q2 3 11 24q3 -5 5 -12z" />
    <glyph glyph-name="afii10034" unicode="&#x420;" horiz-adv-x="279" 
d="M114 704q-20 -18 -29 -63q-7 44 -32 62q20 20 31 57q8 -31 30 -56zM267 396q0 -42 -24 -72q-27 -34 -70 -34q-2 0 -35 5v-174l-6 1q-3 4 -3 11v172q28 -7 44 -7q34 0 59.5 28t25.5 61v180q0 47 -42 75l5 5q39 -32 46 -84v-167zM51 293q-5 21 -20 31q18 11 18 23v2
q-15 -8 -19 -8q-19 0 -19 20q0 8 7 17q8 -8 15 -8q18 0 18 39l-1 94q-4 -2 -5.5 -0.5t-15.5 13.5q3 3 1 3q6 0 20 -15v22q-2 19 -35 16v108h12q30 0 42 -22q5 -10 11 -48q11 40 17 49q17 27 53 28q30 1 53.5 -20.5t23.5 -50.5v-122q0 -79 -6 -98t-27 -31.5t-39 -12.5
q-13 0 -53 22v-189q-2 -17 6 -31q10 -18 28 -18q3 0 10 -1v-105h-7h-6q-41 0 -54 49q-2 1 -3 0q-4 -49 -52 -49h-13v103q6 0 16 2q15 8 19 22q1 3 4 29zM181 497q0 48 -40 48t-40 -45v-83q0 -19 10.5 -33.5t28.5 -14.5q41 0 41 53v75zM175 510q1 -6 0 -6q-22 4 -15 4
q-20 0 -21 -16v-115q-7 0 -8 3v110q0 24 28 24q6 0 16 -4zM182 -45q-42 0 -68 36q0 4 5 4q1 0 5.5 -6.5t8.5 -9.5q17 -12 39 -16v120q5 -3 10 -10v-118zM122 -43q3 -20 -18 -20q-9 0 -22 8l1 -7q1 -11 19 -26q-11 -8 -24 -37q-8 14 -27 37q20 14 20 25v8q-10 -8 -21 -8
q-21 0 -21 21q0 9 9 18q8 -8 17 -8q12 0 17 18q2 14 4 27h4q1 -44 18 -44q5 0 19 6q8 -6 5 -18z" />
    <glyph glyph-name="afii10035" unicode="&#x421;" horiz-adv-x="292" 
d="M264 608v-243h-1h-2h-63v4.5v3.5h57v235h5h4zM259 72q0 -36 -17 -66q-19 -34 -50 -43l-2 9q61 26 61 108v166h8v-174zM169 503q-17 1 -14 1q-24 0 -19 -41q1 -15 -1 -104q-3 1 -8 3v123q0 26 24 26q14 0 18 -8zM169 320q0 -35 -34 -47v-153h-3q-5 0 -6 2v157q34 9 34 42
q0 13 -9 25q18 -3 18 -26zM163 714q-16 -14 -26 -49q30 -5 47 -28l3 -1l-1 16h39v-255h-49v114q0 14 -12 25.5t-27 11.5t-26 -13t-11 -28l-1 -163q23 10 22 10q26 0 26 -26q0 -17 -13 -21q-11 13 -18 13q-16 0 -16 -25l1 -138q0 -48 39 -48q34 0 35 51l-1 124l52 1v-200
q0 -97 -83 -92q3 -25 16 -25q9 0 17 6q7 -9 7 -19q0 -18 -18 -18q-10 0 -21 7v-6q0 -11 19 -26q-11 -8 -24 -37q-16 30 -27 37q20 15 20 33q-9 -8 -21 -8q-22 0 -22 20q0 6 9 18q13 -7 18 -7q14 0 19 25q-86 -2 -86 84v207q0 27 -20 40q18 11 18 23v2q-15 -8 -19 -8
q-19 0 -19 20q0 8 7 17q8 -8 15 -8q19 0 19 37v175q0 83 73 83h7q-11 36 -28 48q20 20 31 47q8 -21 30 -46z" />
    <glyph glyph-name="afii10036" unicode="&#x422;" horiz-adv-x="290" 
d="M146 704q-20 -18 -29 -63q-7 44 -32 62q20 20 31 57q8 -31 30 -56zM264 365h-64l-1 8h55v233l10 -2v-239zM79 324q18 11 18 23v2q-15 -8 -19 -8q-19 0 -19 20q0 8 7 17q8 -8 15 -8q20 0 17 37l-1 114q3 21 -13 21t-16 -18v-127h-52v255l36 1q39 0 67 -57q10 53 73 56h37
v-252h-52q1 10 0 123q-2 17 -14 17q-15 0 -15 -23v-172q0 -1 2 -1q11 10 19 10q25 0 25 -26q0 -5 -6.5 -15t-10.5 -10t-6.5 5.5t-6.5 5.5q-13 0 -14 -22v-147q0 -45 42 -46v-99h-19q-28 0 -39 16.5t-8 16.5q-1 0 -2 -1q-6 -32 -41 -32h-22l-1 100q38 18 38 45l1 147
q-4 22 -20 32zM221 314q-2 -25 -35 -42v-158q-3 1 -8 7v156q6 -1 20 12.5t15 27.5q1 2 -11 26h6q14 -17 13 -29zM223 -39q-13 -3 -16 -3q-20 0 -30 9q2 6 6 6q-1 0 4 -3.5t14 -4.5q14 0 14 3q0 1 -1 2l1 105l8 -4q1 -34 0 -110zM170 -43q3 -20 -18 -20q-9 0 -21 7v-6
q0 -11 19 -26q-11 -8 -24 -37q-8 14 -27 37q10 7 20 26v7q-10 -8 -21 -8q-21 0 -21 21q0 9 9 18q8 -8 17 -8q12 0 16 18q1 13 3 26l7 1q-1 -44 17 -44q5 0 19 6q8 -6 5 -18z" />
    <glyph glyph-name="afii10065" unicode="&#x430;" horiz-adv-x="203" 
d="M170 311q-8 -9 -8 -38q0 -13 0 -12q-6 -1 -7 0v37l7 14q-8 1 -8 86q0 57 -12 61v6q18 -2 20 -36v-79q0 -17 8 -39zM184 155l-48 -1q-16 3 -22 16q-15 -20 -42 -19q-12 1 -27 9.5t-18 19.5l4 4q-19 19 -19 61v53q0 33 -7 43q32 30 50 30q16 0 40 -16v18q0 46 -39 46
q-19 0 -39 -17v42q0 20 18 31.5t39 11.5q65 0 65 -85v-55q0 -11 10 -18q-4 -4 -11 -14v-45q0 -21 17 -21q6 0 8 1v-67h-26q-28 0 -37 20q-6 -7 -13 -15q-9 -11 -31 -11q-14 0 -22 5q12 -24 39 -24q21 0 42 22q12 -18 23 -19h14h24v70q7 0 8 1v-77zM95 268v51q0 5 -7 10.5
t-13 5.5q-19 0 -23 -19q-1 -3 -1 -33q0 -35 24 -35q6 0 13 6.5t7 13.5z" />
    <glyph glyph-name="afii10070" unicode="&#x435;" horiz-adv-x="176" 
d="M164 437q0 3 -4 -18t-4 -45q0 -27 6 -50q-10 -5 -26 -11l-2 6q7 2 20 7q-5 23 -5 51q0 10 4 30t4 29q0 4 -7 10.5t-8 8.5l4 4q18 -23 18 -22zM138 442q-7 -5 -7 -31v-42q0 -18 6 -32q-36 -18 -59 -18t-31 14q0 10 0 -40q0 -48 27 -48q28 0 28 39q0 19 27 19v-51
q0 -74 -58 -74q-51 0 -58 61v65q0 16 -14 34q14 16 14 38q0 57 0 54q7 57 63 57q23 0 41.5 -12t20.5 -33zM84 154q-46 0 -58 30l3 3q19 -26 53 -26q23 0 42 15.5t22 37.5v21q0 -7 0 47l8 2v-47q0 -26 -3 -36q-15 -47 -67 -47zM94 385q0 43 -23 43q-25 0 -25 -36
q0 -45 24 -45q17 0 22 12q2 6 2 26z" />
    <glyph glyph-name="afii10074" unicode="&#x438;" horiz-adv-x="214" 
d="M184 176h-25q-29 0 -38 33q-14 -35 -40 -35q-18 0 -23 4q-28 24 -28 66v70q0 6 -7 16t-7 11t6.5 12t7.5 13v38q0 20 -17 20q-4 0 -4 2l-1 59h43q5 0 13 -8t9 -14v-50q0 -45 -1 -142q0 -22 21 -22q22 0 22 22v136q0 17 -24 16l1 62h26q38 0 38 -27v-77q0 -31 13 -42
q-12 -22 -12 -21v-58q0 -18 27 -18v-66zM206 148q-48 -1 -80 23q-13 -20 -38 -20q-29 0 -51 31l2 1q26 -28 52 -24q23 3 34 22q32 -25 73 -25v66q4 -3 8 -7v-67zM183 302v-50v1q-4 0 -8 9v3v38q0 3 3.5 8.5t3.5 6.5q0 -7 -6 11q-3 10 -3 15v100q0 9 -4 15l-1 2h6q3 -1 7 -22
v-99q1 -7 5.5 -15t4.5 -9q-8 -13 -8 -14z" />
    <glyph glyph-name="afii10080" unicode="&#x43e;" horiz-adv-x="178" 
d="M173 317q0 -3 -6.5 -11t-6.5 -15v-85q0 -30 -22.5 -45.5t-55.5 -14.5q-29 2 -42 21l2 4q26 -18 45 -18q25 0 45.5 13t20.5 37v73v17.5t12 23.5q0 2 -5 9.5t-5 8.5q0 114 -9 126l6 2q10 -16 10 -44v-77q0 -10 5.5 -16.5t5.5 -8.5zM149 331q-11 -13 -11 -24v-79
q0 -58 -55 -58q-65 0 -68 56q1 -8 1 87q0 6 -5.5 13t-5.5 9q11 17 11 28q0 6 -1 33v33q2 64 64 64q59 0 59 -66v-68q0 -15 5.5 -20.5t5.5 -7.5zM99 267v122q0 31 -23 31q-22 0 -22 -31v-123q0 -8 8 -15.5t16 -7.5q21 0 21 24z" />
    <glyph glyph-name="afii10081" unicode="&#x43f;" horiz-adv-x="216" 
d="M191 315q-11 -21 -11 -28v-39h-6q-1 -1 -1 32q0 10 5 22q0 2 3 6t3 6q-1 3 -5 9q-7 17 -6 60v51q0 19 -7 36l5 1q9 -12 9 -27v-96q0 -12 10 -31zM185 186q0 -2 -1 -9h-33q-36 0 -36 43v180q0 20 -21 20q-22 0 -22 -33l-1 -128q7 -15 23 -22v-59q-1 -1 -8 -1q-23 0 -34 24
h-2q-6 -25 -32 -25h-7v62q5 -1 13.5 5t8.5 17v40q0 11 -5.5 21t-5.5 9q11 16 11 34v43q0 10 -7 14t-13 8q-1 16 0 57h13q22 0 27.5 -3t13.5 -22q8 11 16 20.5t27 9.5q47 0 47 -51v-81q0 -11 11 -29q0 1 -6 -7.5t-6 -19.5v-33q0 -32 28 -33zM207 147h-16q-45 0 -58 16
q1 6 2 6t8.5 -5t10.5 -6q15 -5 32 -5h13v72q6 1 8 1q-1 -2 0 -79zM120 148h-20q-7 0 -21 6t-15 8q1 -1 -13.5 -8t-16.5 -7q-1 0 -1 5q13 5 31 17q1 1 14 -7t36 -9q-1 18 0 24l6 1v-30z" />
    <glyph glyph-name="afii10082" unicode="&#x440;" horiz-adv-x="198" 
d="M192 316q0 -1 -5.5 -7.5t-6.5 -10t-1 -21.5v-59q0 -30 -7 -46q-13 -26 -43 -26q-13 0 -29 6q-1 0 -3 -3v-30q0 -1 -2 -3h-3l-4 4v42l2 2h3q-2 0 9.5 -4.5t22.5 -4.5q2 0 1 -1h1q13 0 26.5 13t15 28t1.5 25q0 -5 0 21v48q0 23 9 29q-8 16 -8 17v94q0 12 1 8q-5 32 -5 27v4
q8 -6 12 -30l1 -94q1 -5 3 -14q1 -2 5 -7.5t4 -6.5zM164 330q0 -1 -4 -7.5t-5 -9.5q-3 -11 -3 -22v-63q0 -50 -39 -50q-17 0 -31 13q-8 8 -9 17q-1 1 -3 2q-1 -6 -2 -19l1 -71q2 -15 25 -17q1 0 3 -4v-27q0 -20 -1 -30q-2 -2 -8 -2q-25 0 -36 28q-2 -5 -8 -15
q-9 -12 -26 -12q-9 0 -9 9v50q5 3 14 9.5t9 18.5v187q0 5 -6 12.5t-0.5 14t5.5 9.5v54q-3 15 -10 18q-11 4 -11.5 5.5t-1.5 5.5l-2 54q0 1 21 1q19 0 27 -10q4 -5 11 -25q9 36 39 36q45 0 47 -51q2 -6 2 -7v-41q0 -34 1 -41q0 -3 5 -11t5 -9zM121 77l-1 -57q0 -9 -8 -9
q-18 0 -36 7q-21 8 -15 8q-1 0 -13.5 -6.5t-19.5 -6.5q-5 0 -7 5q7 3 19 9q24 13 20 13q1 0 7.5 -5.5t10.5 -7.5q11 -6 24 -6q8 1 8 4q1 21 2 56q2 2 4 2q5 -1 5 -6zM114 282v116q0 24 -19 24q-17 0 -22 -12q-2 -4 -5 -29l1 -112q2 -23 21 -23q24 0 24 36z" />
    <glyph glyph-name="afii10083" unicode="&#x441;" horiz-adv-x="176" 
d="M136 445q0 -3 -2 -10.5t-2 -11.5t1 -12t1 -12q0 -35 -26 -35q-21 0 -21 18q0 2 4 9.5t4 12.5q0 21 -23 21q-16 0 -19 -23v-36q0 -23 13 -33q-12 -17 -12 -41q0 -51 22 -51q20 0 20 18v61q34 -1 38 0v-96q0 -24 -15.5 -39t-37.5 -15q-49 0 -59 41q-3 45 -6 89
q0 10 -6 20.5t0.5 18t6.5 26.5v23q-1 15 -1 23q0 80 62 79q18 0 38 -13.5t20 -31.5zM125 345q-14 0 -23 7l3 6q9 -7 21 -6q19 2 22 29q-1 -6 -1 40q0 2 1.5 6.5t1.5 6.5q0 23 -19 37l3 6q22 -17 22 -43q0 -2 -1 -5.5t-1 -5.5v-49q0 -10 -10 -19.5t-19 -9.5zM41 168
q13 -15 41 -15q67 0 67 93v27q-1 19 -1 27h7v-73q0 -81 -71 -81q-34 0 -48 18z" />
    <glyph glyph-name="afii10084" unicode="&#x442;" horiz-adv-x="295" 
d="M269 310q0 -1 -4 -5.5t-5 -6.5q-2 -6 -3 -10v-37q-1 -1 -3 -1q-6 0 -5 26q0 22 2 26q0 1 2.5 5t2.5 5t-3.5 8t-3.5 8v102q0 10 -2 26q0 4 -4 13q12 -5 13 -27l1 -110q1 -10 6.5 -16zM262 187q0 -11 -2.5 -12t-14.5 -1q-26 0 -40 14q-9 9 -9 25q-2 41 -2 37v16
q-1 11 -1 79q0 52 -3.5 62.5t-17.5 10.5q-22 0 -22 -27v-19q-1 -8 -1 -7q0 -16 1 -20t6.5 -11t5.5 -8q0 4 -9 -11q-3 -5 -3 -29q0 -14 1 -19q-1 -9 3 -23q3 -3 12 -4.5t10 -4.5v-29q0 -20 -1 -31q-2 -2 -8 -2q-10 0 -16 3q-2 2 -5 4q-6 7 -16 18l-1 -2q-3 -23 -31 -23
q-6 0 -12 3q-1 11 -1 31q0 28 4.5 29t19.5 14q3 6 3 34q0 25 -2 32q-2 3 -6 7.5t-4 5.5t7 10q3 4 5 12q-1 1 0 38q0 29 -21 29q-23 0 -22 -28l1 -179q-2 -25 -14 -33q-8 -6 -30 -6q-10 0 -13 1.5t-3 4.5v14q-1 8 -1 9v33l16 6q8 3 8 16v27q0 25 -3 32q0 1 -4 5.5t-4 5.5
q11 17 11 23v38q0 9 -3 20q-1 6 -5 9q-8 0 -17 7q-1 2 -1 28q0 23 2 31q3 2 10 2q32 0 44 -30h1q8 31 39 31q32 0 42 -30q1 0 2 2q10 31 42 31q5 0 24 -6q6 -2 12 -14.5t6 -19.5v-86q0 -11 1 -17.5t9 -11.5q1 -2 3 -4q-5 -6 -11 -16q-1 -11 -1 -27q0 -35 4.5 -40t12 -4.5
t10.5 -2t3 -21.5v-31zM285 152l-3 -3q-7 0 -21 -1h-14q-24 0 -35 11v3h3q1 0 6.5 -3t7.5 -3.5t17 -0.5q28 0 30 3v30v37h5q3 -2 3 -6zM204 169q0 4 -2 -20q-1 -3 -4 -3h-90v8l1 -1h9q7 1 8 1l63 1q6 -1 7 8v14h5q3 -4 3 -8zM88 165q0 -8 -14 -15q-19 -10 -35 -10q-7 0 -9 5
q0 1 14 4t23 8q2 1 8 6.5t8 5.5q5 0 5 -4z" />
    <glyph glyph-name="afii10085" unicode="&#x443;" horiz-adv-x="209" 
d="M205 400q-7 0 -15 -1q-21 -3 -21 -54q0 -12 4 -20q2 -4 4 -7q0 -2 -2 -3q-12 -8 -16 -19t-10 -54l-9 -54q-3 -21 -3 -22v-45q1 -30 1 -46q0 -58 -49 -58q-20 0 -34 7l1 6q9 -5 31 -5q16 0 22 5q19 13 19 33v11q-1 7 -1 11q0 73 1 80q5 85 22 136q1 4 9.5 11t8.5 9
q0 -1 -2 4q-6 11 -6 19q0 22 3 37l9 18q15 11 26 8l-1 63l8 -1v-69zM183 428h-5q-11 0 -15 -3q-7 -6 -13 -32q-5 -22 -5 -35q0 -8 4.5 -14.5t2.5 -8.5t-7.5 -8.5t-8 -14t-17.5 -86.5q-5 -25 -5 -39v-102q0 -44 -50 -44q-27 0 -27 10v52q5 -2 13 -2q21 0 21 25v51
q0 33 -20 131q-4 19 -22 27q11 15 11 24q0 10 -8 46q-4 18 -26 19v60l11 1q21 0 31 -20q9 20 29 19h5h11v-60q-23 1 -23 -17q0 -1 5.5 -29.5t18.5 -92.5q16 97 25 148q1 10 6.5 30t27.5 20q5 0 15 1h15v-56z" />
    <glyph glyph-name="afii10087" unicode="&#x445;" horiz-adv-x="219" 
d="M205 398h-31q-9 0 -20 -24t-11 -34q0 -14 15 -21q-1 -4 -1 -9q0 -18 17 -47h-9q-18 34 -18 43q0 1 1 11q-14 18 -14 22q0 15 14 41.5t28 26.5h20v53h9v-62zM184 177q-1 -1 -3 -1q-26 0 -37 20q-1 -7 -4 -21q-12 -40 -27 -41v57q0 70 -23 103q-16 -18 -16 -35
q0 -14 21 -15v-45v-22q-8 -1 -13 -1q-10 0 -20.5 10t-12.5 20q-8 -30 -45 -30v66q7 2 20 6q8 5 16 21q19 42 19 51q0 6 -7 12q11 7 11 14q0 13 -25 58q-7 14 -21 17q-3 1 -16 1v64h16q19 0 30 -28q8 18 16.5 23t28.5 5v-64h-6q-12 0 -12 -8q0 -5 16 -40q9 23 27.5 67
t42.5 44h21v-60q-1 1 -5 1q-9 0 -21 -6q-8 -4 -22 -33t-14 -39q0 -11 10 -15q-6 -7 -6 -15q0 -9 12 -34.5t19 -32t31 -4.5v-26q0 -23 -1 -44zM210 153h-18q-18 0 -31 8q-1 -1 -8 -19q-7 -14 -10 -14q-2 0 -5 3q7 13 20 40q22 -11 33 -11q5 0 9 2v63h3.5h6.5v-72zM108 151
q-2 -1 -4 -1q-5 0 -22.5 6.5t-17.5 10.5q-22 -16 -45 -16v7h1q16 -1 43 17q26 -18 45 -19v-5z" />
    <glyph glyph-name="afii10020" unicode="&#x413;" horiz-adv-x="273" 
d="M262 362h-44v9h35v233h9v-242zM173 508q-2 -4 -12 -4q-15 1 -17.5 -3t-2.5 -14q0 -50 0 -43v-82q-2 4 -9 5v124q0 15 10 19q5 2 24 2q5 0 7 -4zM177 -34h-29t-26.5 11t-16.5 19q1 0 13.5 -8.5t16.5 -9.5q12 -4 29 -4h5v111l8 1v-120zM124 -49q0 -14 -17 -18q-7 -2 -21 6
q3 -20 20 -23q-10 -8 -25 -41q-11 29 -25 41q18 21 18 24q-8 -6 -20 -6q-20 0 -20 20q0 4 2.5 11.5t5.5 5.5q10 -8 14 -8q12 0 18 23l6 32l6 -32q5 -24 16 -24q8 0 17 7q5 -13 5 -18zM105 694q-17 -17 -21 -24q-6 -10 -10 -32q-9 34 -31 56q25 44 32 66q3 -22 16 -44
q7 -10 14 -22zM40 490q-7 14 -22 19l2 7q19 -6 27 -21zM170 311q0 -23 -29 -31v-162l-9 6v161q30 9 30 29q0 10 -5 16.5t-5 9.5h4q4 0 9 -11.5t5 -17.5zM102 345q13 12 21 12q22 0 22 -23q0 -6 -3.5 -13.5t-6.5 -6.5q-18 6 -23 5q-9 -3 -9 -22l-1 -147q0 -29 17 -35
q13 -4 27 -8v-105q-3 -1 -11 -1q-43 0 -55 54q-10 -28 -17 -38q-13 -16 -37 -16h-14l1 107q28 10 29 11q12 9 12 33l-1 132h-1q0 27 -20 40q18 11 18 23v2q-15 -8 -19 -8q-19 0 -19 20q0 8 7 17q8 -8 15 -8q9 0 12.5 12t5.5 23l-1 107q0 22 -41 31v106q9 3 14 3q38 0 43 -37
q4 -32 7 -63q4 33 8 65q9 36 47 36h102v-263h-51l-1 134q0 21 -39 21q-38 0 -38 -55q0 1 0 -145z" />
    <glyph glyph-name="afii10018" unicode="&#x411;" horiz-adv-x="302" 
d="M102 -63q-10 0 -21 7v-6q0 -11 19 -26q-11 -8 -24 -37q-16 30 -27 37q20 14 19 32q-8 -7 -20 -7q-22 0 -22 20q0 7 10 19q7 -8 16 -8q13 0 18 17l4 28h5v-5q-1 -39 16 -39q7 0 19 6q6 -5 6 -14q0 -24 -18 -24zM232 455v-34h-51v34l-1 69q0 21 -39 21q-40 1 -40 -75v-46
q0 -53 41 -65q40 -13 58 -24q38 -19 38 -55q0 -5 -1 -8v1v-190q0 -38 -20 -62.5t-56 -24.5q-44 0 -57.5 21t-26.5 44q-4 -14 -8.5 -28.5t-14.5 -22.5t-44 -10v108q24 5 25 6q18 8 18 32q0 -2 0 58v67q1 13 0 38q-2 16 -16 22q5 4 9.5 8t6.5 18q-16 -7 -19 -7q-8 0 -15.5 7
t-7.5 15q0 18 15 20q9 -12 13 -12q13 0 13 18v21v93q0 22 -41 31v106q9 3 14 3q38 0 43 -37q4 -32 7 -63q4 33 8 65q9 36 47 36h102v-198zM235 338q10 -4 15 -11q21 -17 21 -70v-202q0 -41 -29.5 -70.5t-72.5 -27.5q-16 0 -47 21q1 7 4 7l8 -5q19 -13 37 -14q32 0 59 22.5
t28 49.5q2 32 2 108l1 129q0 36 -32 58q-4 7 6 5zM183 284q0 20 -20 18q-8 5 2 15q-3 1 -6 1q-25 8 -57 20l-1 -178q0 -49 41 -49q21 0 32 23q9 19 9 42v108zM147 127q-4 -6 -7 -6q-4 0 -8.5 10t-4.5 14q0 150 1.5 149.5t9.5 -4.5v-145q2 -7 9 -18zM139 488v-93q-1 -8 3 -14
t4 -8t-7 -2q-10 0 -10 16v110q3 11 14 13q5 2 24 2q5 0 7 -4q-2 -4 -12 -4q-15 1 -19.5 -3.5t-3.5 -12.5zM263 457v-64h-44v9h35v54v148h9v-147zM106 694q-17 -17 -21 -24q-6 -10 -10 -32q-9 34 -31 56q25 44 31 66q4 -22 17 -44q7 -10 14 -22zM41 490q-7 14 -22 19l2 7
q19 -6 27 -21z" />
    <glyph glyph-name="afii10029" unicode="&#x41b;" horiz-adv-x="314" 
d="M200 54q-14 -34 -19 -40q-11 -13 -40 -19h-5v-4q-1 -29 19 -29q-3 0 15 7q7 -3 7 -24q0 -7 -7 -14t-14 -7t-20 8q2 -9 22 -24q-16 -16 -28 -33q-15 19 -30 30q24 18 24 25l-1 2q-14 -7 -18 -7q-20 0 -20 24q0 23 10 23q1 0 5 -3t8 -3q18 0 18 30q-1 -1 -3 -1q-1 1 -4 1
q-40 5 -52 63q-13 -36 -16 -41q-12 -19 -37 -19h-11l-1 110h16q16 0 24 36q7 30 15 115q3 39 3 37q0 15 -22 30q9 5 21 21h-2q-2 0 -6.5 -1.5t-7.5 -1.5q-22 0 -22 19q0 24 14 24q2 0 4.5 -7t9.5 -7q19 0 24 50l24 228h27q-2 27 -28 44v1q26 19 34 63q9 -27 14 -37
q9 -17 21 -27q-8 -7 -17 -14q-13 -14 -15 -30h25q11 -105 37 -313l1 -2q2 1 12 10q7 6 14 6q11 0 18.5 -8.5t7.5 -19.5q0 -18 -16 -27q-2 6 -13 12q-8 1 -14.5 -7.5t-5.5 -15.5v-2q4 -29 11 -87q1 -17 6 -50q6 -37 30 -41q7 -1 19 -3v-104h-4q-55 -1 -61 54zM266 306
q0 -27 -29 -37q5 -54 18 -146q-1 0 -6 0.5t-8 28.5q-2 18 -9 77q-2 13 -4 38v2q0 5 4 7q32 15 29 40q5 -4 5 -10zM183 -32q-3 0 -5 6q15 8 42 28q31 -28 62 -28h2v97l9 -1v-107q-42 1 -72 27q-3 -1 -18 -11.5t-20 -10.5zM89 -7q-19 -32 -52 -32l-1 8q34 7 45 29zM227 365
l-29 256q-11 1 -11 2q0 -5 10 -85l20 -175q3 -1 6 -1q4 0 4 3zM132 482l-36 -329q-2 -15 -2 -14q0 -13 9.5 -23t22.5 -8v-106h11q0 -6 0 53t0 54q27 0 27 29q0 4 -1 12zM154 203l-10 -1q-5 -36 -11 -85l-8 2q2 28 11 90h16z" />
    <glyph glyph-name="afii10033" unicode="&#x41f;" horiz-adv-x="327" 
d="M220 2l5 -4q20 -24 58 -32h10v109q5 0 9 -1v-117q-11 0 -41 7q-17 6 -41 27l-27 -19l-2 7q11 6 29 23zM103 -3q-4 -4 -8 -9q-21 -20 -38 -21q-3 2 -5 5q9 3 23 10q4 3 22 18zM168 694q-17 -7 -30 -33h-3q-5 20 -30 33q23 22 27 39q1 10 5 27q2 -7 5 -26q3 -15 26 -40z
M298 509q-9 -1 -26 -5q-10 -4 -11.5 -15.5t-1.5 -22.5v-28v-76q-1 1 -9 4q1 9 0 12v107q0 20 17 28q3 1 22 4v100h9v-108zM128 489q2 21 23 21q5 0 12 -3v-8q-24 8 -25 -11v-369l-10 6v364zM48 489l-2 -4q-4 5 -12 13q-5 4 -12 5l1 6q7 1 15.5 -6t9.5 -14zM290 312
q0 -25 -28 -37v-155q-1 -1 -3 -1q-7 0 -7 15v146q28 11 28 35q0 7 -3 12q-4 9 -5 10q0 1 1.5 1.5t9 -5.5t7.5 -21zM169 -63q-10 0 -21 7v-6q0 -11 19 -26q-11 -8 -24 -37q-16 30 -27 37q20 14 20 33q-9 -8 -21 -8q-21 0 -21 21q0 6 9 18q7 -7 18 -7q19 0 18 34h6
q-2 -12 3 -22.5t14 -12.5q8 -3 20 7q6 -5 6 -14q0 -24 -19 -24zM144 652l11 -1q18 0 32 -14q11 -10 12 -19l5 -46q2 17 5.5 48.5t43.5 31.5h13v-110q-41 -9 -41 -40v-148q-1 -2 1 -7q6 7 17 7q9 0 16.5 -8t7.5 -16q0 -20 -13 -24q-3 3 -15 7q-12 -1 -12 -26v-145
q0 -15 10 -26t25 -11h8v-105q-41 -1 -53 20q-8 13 -11 38q-5 -16 -13 -39q-5 -7 -25 -17q-7 -1 -20 -1v102q28 10 28 63v342q0 13 -11 23.5t-20 9.5h-14q-29 -2 -30 -36q1 10 0 -343q0 -53 34 -59v-103q-33 0 -46 22l-12 37q-16 -43 -22 -52t-38 -7v105q1 0 4 1q33 6 33 54
v129q-5 13 -25 35q18 11 18 23v2q-15 -8 -19 -8q-19 0 -19 20q0 8 7 17q8 -8 15 -8q21 0 21 38l1 -1l-1 105q0 15 -14 24t-26 8v108h6q14 0 28 -7q18 -10 20 -28q0 -4 7 -52l5 52q2 14 18 24.5t27 10.5h8h13z" />
    <glyph glyph-name="afii10026" unicode="&#x418;" 
d="M224 264q1 50 14 52q12 -3 15 -7q12 3 12 24q0 25 -24 25q-6 0 -17 -9v158q2 37 28 36h10v110q-35 1 -46 -12q-8 -9 -18 -46q-9 58 -55 58v-110q31 3 30 -25q4 -7 -70 -227q-1 -3 -3 0v163v64q0 28 31 25v110q-46 0 -55 -58q-10 37 -18 46q-11 13 -46 12v-110h10
q26 1 26 -35v-16l-25 16q-4 -3 -3 -4q18 -14 28 -19v-80q-2 -35 -16 -35q-7 0 -15 8q-7 -9 -7 -17q0 -20 19 -20q4 0 19 8v-2q0 -12 -18 -23q14 -9 18 -28v-149q-1 -19 -8 -29t-28 -9v-109h27q25 0 40 46h1q15 -47 47 -46h4v109q-32 4 -32 40l73 226q2 3 3 0v-226
q0 -36 -32 -40v-109h4q32 -1 47 46h1q15 -46 40 -46h27v109q-21 -1 -29.5 9t-8.5 29v117zM163 692q-23 -18 -26 -32q-8 22 -25 32q8 10 14 28t11 40q10 -50 26 -68zM286 509h-11q-15 0 -18.5 -2t-3.5 -15v-122h-9v134q1 13 32 13v101h10v-109zM247 139v154l13 -3q16 8 18 21
q5 12 1 24q-4 10 -13 19l4 3q8 -5 13.5 -16t3.5 -26q-3 -30 -31 -34v-142h-9zM286 104v-143h-98v7h88v136h10zM117 146l10 -7q-5 13 32 117v27q-47 -133 -42 -137zM123 385l-8 -24v156h8v-132zM180 -55q0 -16 -18 -16q-10 0 -16 8q-1 -1 -2 -4q0 -12 21 -20q-22 -23 -28 -38
q-6 15 -25 36q18 6 18 25l-2 1q-12 -7 -17 -7q-21 0 -21 20q0 14 11 15l14 -5q14 1 16 14q3 23 3 24h1q3 0 7 -18.5t16 -18.5q-2 0 18 2q4 -11 4 -18zM87 -2q-5 -14 -26.5 -26.5t-37.5 -12.5l-3 6q33 13 62 37h3q1 -1 2 -4z" />
    <glyph glyph-name="afii10024" unicode="&#x416;" horiz-adv-x="478" 
d="M196 248v-26q-6 -14 -33 -92q-6 3 -8 1q0 4 18 57t23 60zM263 693q-12 -8 -33 -39q-6 15 -9 19q-7 10 -22 19q18 16 32 68q4 -16 9.5 -33.5t22.5 -33.5zM453 606l1 -97q-12 1 -23 1q-18 -2 -25 -19q-23 -62 -50 -134q-6 3 -8 1q0 4 22 65.5t26 66.5q13 31 48 29v100
q2 -2 9 -13zM419 113l-4 -2q-5 0 -11 20l-42 139q0 1 1.5 2t2.5 2q18 19 18 31q0 7 -9 24h3q13 0 13 -29q0 -24 -21 -32zM458 -42q-10 -1 -15 -1q-20 0 -42.5 11.5t-30.5 1.5t-25 -10q3 0 -3 5q7 -1 19.5 8.5t16.5 17.5q49 -26 63 -25h8v108q9 1 9 -2v-114zM102 -6
q5 -7 -24.5 -23.5t-38.5 -12.5l-3 5q19 3 38.5 14t24.5 21zM289 228v-96h-10v96h10zM258 -64q-10 0 -21 7v-6q0 -11 19 -26q-11 -8 -25 -36q-15 29 -26 36q20 14 19 32q-8 -7 -20 -7q-22 0 -22 20q0 7 10 19q7 -8 16 -8q13 0 18 17l4 28h5v-5q-1 -39 16 -39q7 0 19 6
q6 -5 6 -14q0 -24 -18 -24zM94 483q-14 7 -32 21q-1 1 3 4l26 -17q-9 23 -18 33q-20 21 -32 19v109q58 1 63 -54q0 -1 1 0q10 54 50 54h8v-108q-29 -6 -27 -25q0 -5 44 -137q8 -22 15 -23q10 0 9 22v104q-10 5 -37 22l29 -92l-4 -2q-5 0 -11 20l-23 76q-1 5 5 5q5 1 16 -6
l26 -17q1 21 -2 27q-7 25 -25 26v108q24 0 33.5 -11.5t19.5 -48.5q10 36 15 44q10 16 33 16h5v-108q-23 -1 -29 -26q-1 -13 -2 -27v-110q0 -22 16 -22q10 0 10 17q1 79 0 94q-1 11 5 24t18 13l10 -1q-1 -7 -11 -7q-15 0 -15 -33q0 -11 -1 -69q41 117 41 122q2 19 -26 24
l-1 109h8q40 0 50 -54q1 -1 1 0q5 55 63 54v-109q-12 2 -32 -19q-15 -16 -71 -188l2 -4q10 15 24 15q24 0 24 -24q-2 -13 -11 -18q-5 11 -15 9q-13 -7 -12 -15q21 -68 46 -153q5 -27 48 -49q1 -31 0 -97h-15q-42 0 -49 51q-6 -30 -18 -41.5t-42 -9.5v105q22 4 22 32
q0 30 -56 171q-8 0 -8 -17v-134q0 -52 28 -53v-104q-27 -2 -38 10q-6 7 -17 37q-4 -29 -22 -39q-13 -7 -31 -7v104q25 0 25 52v135q0 16 -8 16q-55 -141 -55 -171q0 -28 23 -32v-105q-31 -2 -43 9.5t-18 41.5q-7 -51 -49 -51h-15q-1 66 0 97q43 22 48 49q25 85 42 139
q0 26 -20 39q18 11 18 23v2q-15 -8 -19 -8q-19 0 -19 20q0 8 7 17q8 -8 15 -8q18 0 11 37q-13 40 -27 76z" />
    <glyph glyph-name="afii10023" unicode="&#x401;" horiz-adv-x="296" 
d="M250 365v263h11v-271h-56l1 9zM163 506q0 -2 -11.5 -1t-13.5 -9v-52l-13 -2v5l1 51q0 19 35 19q3 0 1 -5t1 -6zM197 317h-9v62q7 1 7.5 1t1.5 -1v-62zM232 0h-108q-28 0 -47 55h-1q-4 -18 -18 -35q-16 -20 -32 -20h-15v110q0 1 5 0q34 0 35 60v125q0 21 -23 31
q6 0 14 11.5t8 18.5l-1 1q-11 -13 -22 -13q-22 0 -22 21q0 20 10 20q2 0 6 -4.5t9 -4.5q16 0 18 19q2 1 2 4v87q-15 16 -30 22q0 -2 0 3q0 2 1 3q13 -1 28 -19q1 11 1 14q0 42 -31 42q-4 0 -8 -1l1 76q0 6 -1 26q6 2 12 2q44 0 47 -64h2q6 22 11 44q9 18 45 18h98v-260h-46
q0 11 -1 33v33q0 68 1 58q-3 33 -41 33q-40 0 -40 -39v-138q0 -17 10 -17q11 0 12 30v39l1 8h38v-207h-39v65q0 15 -12 15q-9 0 -9 -13v-144q0 -36 35 -36q32 0 41 33q3 14 3 59v105h53v-309zM265 -36h-104q-12 0 -22 7l-4 12q6 -6 17 -10h103v295q7 1 9 0zM136 124
q-1 -1 -4 -1q-7 0 -7 8l-1 82h12v-89zM122 -42q1 -18 -19 -18q-10 0 -21 7v-6q0 -11 19 -26q-11 -8 -24 -40q-16 33 -27 40q20 14 20 33q-9 -8 -21 -8q-21 0 -21 21q0 6 9 18q8 -8 17 -8q12 0 17 18q2 13 4 27h5v-5q-1 -39 17 -39q6 0 19 6q6 -5 6 -14v-6zM148 722
q0 17 10 27.5t26 10.5t26 -10.5t10 -27.5q0 -16 -10 -27t-26 -11t-26 11t-10 27zM42 722q0 17 10 27.5t26 10.5t26 -10.5t10 -27.5q0 -16 -10 -27t-26 -11t-26 11t-10 27z" />
    <glyph glyph-name="afii10071" unicode="&#x451;" horiz-adv-x="186" 
d="M177 439q0 3 -4.5 -18.5t-4.5 -45.5q0 -28 6 -51q-10 -5 -26 -11l-2 5q7 3 20 8q-5 23 -5 52q0 10 4 30.5t4 29.5q0 4 -7 10.5t-8 8.5l4 4q19 -23 19 -22zM150 444q-7 -5 -7 -31v-44q0 -17 6 -32q-37 -18 -60 -18t-32 14q0 10 0 -41q0 -48 28 -48t28 39q0 20 28 20v-52
q0 -76 -59 -76q-52 0 -60 62v67q0 16 -14 34q14 17 14 39q0 58 0 55q7 58 65 58q23 0 42 -12t21 -34zM94 151q-46 0 -59 30l3 3q20 -26 54 -26q24 0 43.5 15.5t22.5 38.5v21q0 -7 0 48l8 2l1 -48q0 -26 -4 -36q-16 -48 -69 -48zM105 386q0 44 -24 44q-25 0 -25 -37
q0 -45 24 -45q18 0 22 11q3 7 3 27zM103 542q0 27 25 27q26 0 26 -27q0 -26 -26 -26q-25 0 -25 26zM29 542q0 27 26 27q25 0 25 -27q0 -26 -25 -26q-26 0 -26 26z" />
    <glyph glyph-name="afii10075" unicode="&#x439;" horiz-adv-x="211" 
d="M184 182h-25q-29 0 -38 33q-14 -35 -40 -35q-18 0 -23 4q-28 24 -28 67v69q0 6 -7 16t-7 11t6.5 12t7.5 13v39q0 19 -17 19q-4 0 -4 2l-1 59h43q5 0 13 -8t9 -13v-51q0 -44 -1 -142q0 -22 21 -22q22 0 22 22v136q0 17 -24 17l1 61l26 1q38 0 38 -27v-78q0 -31 13 -42
q-12 -21 -12 -79q0 -18 27 -17v-67zM206 154q-48 -1 -80 23q-13 -20 -38 -20q-29 0 -51 31l2 1q26 -28 52 -24q23 3 34 23q32 -26 73 -26v66q4 -2 8 -7v-67zM183 308v-50v1q-4 0 -8 9v3v39q0 2 3.5 7.5t3.5 6.5q0 -7 -6 12q-3 9 -3 14v101q0 9 -4 14l-1 3h6q3 -2 7 -23v-99
q1 -7 5.5 -15t4.5 -8.5t-4 -7t-4 -7.5zM36 565l48 -21l47 21l6 -8l-52 -47q-68 59 -55 47z" />
    <glyph glyph-name="afii10027" unicode="&#x419;" 
d="M48 485q-10 5 -28 19q-1 1 3 4l25 -16v16q0 36 -26 35h-10v110q35 1 46 -12q8 -9 18 -46q9 58 55 58v-110q-31 3 -31 -25v-64v-163q2 -3 3 0q74 220 70 227q1 28 -30 25v110q46 0 55 -58q10 37 18 46q11 13 46 12v-110h-10q-26 1 -28 -36v-158q11 9 17 9q24 0 24 -25
q0 -21 -12 -24q-3 4 -15 7q-13 -2 -14 -52v-117q0 -19 8.5 -29t29.5 -9v-109h-27q-25 0 -40 46h-1q-15 -47 -47 -46h-4v109q32 4 32 40v226q-1 3 -3 0l-73 -226q0 -36 32 -40v-109h-4q-32 -1 -47 46h-1q-15 -46 -40 -46h-27v109q21 -1 28 9t8 29v149q-4 19 -18 28
q18 11 18 23v2q-15 -8 -19 -8q-19 0 -19 20q0 8 7 17q8 -8 15 -8q14 0 16 35v80v0zM286 509h-11q-15 0 -18.5 -2t-3.5 -15v-122h-9v134q1 13 32 13v101h10v-109zM247 139v154l13 -3q16 8 18 21q5 12 1 24q-4 10 -13 19l4 3q8 -5 13.5 -16t3.5 -26q-3 -30 -31 -34v-142h-9z
M286 104v-143h-98v7h88v136h10zM117 146q-5 4 42 137v-27q-37 -104 -32 -117l-10 7v0zM123 385l-8 -24v156h8v-132zM180 -56q0 -16 -18 -16q-10 0 -16 8q-1 -1 -2 -4q0 -12 21 -20q-22 -24 -28 -37q-4 12 -25 35q18 6 18 25l-2 1q-12 -7 -17 -7q-21 0 -21 20q0 14 11 15
l14 -5q14 1 16 14q3 23 3 24h1q3 0 7 -18.5t16 -18.5q-2 0 18 2q4 -11 4 -18zM87 -2q-5 -14 -26.5 -26.5t-37.5 -12.5l-3 6q33 13 62 37h3q1 -1 2 -4zM88 754l55 -39l67 39h25l-87 -90l-86 90h26z" />
    <glyph glyph-name="afii10040" unicode="&#x426;" horiz-adv-x="358" 
d="M220 2l5 -4q9 -10 19 -13v-10q-14 6 -24 16l-27 -19l-2 7q11 6 29 23zM103 -3q-4 -4 -8 -9q-21 -20 -38 -21q-3 2 -5 5q9 3 23 10q4 3 22 18zM172 694q-17 -7 -30 -33h-3q-5 20 -30 33q23 22 27 39q1 10 6 27q1 -7 4 -26q3 -15 26 -40zM298 509q-9 -1 -26 -5
q-10 -4 -11.5 -15.5t-1.5 -22.5v-28v-76q-1 1 -9 4q1 9 0 12v107q0 20 17 28q3 1 22 4v100h9v-108zM128 489q2 21 23 21q5 0 12 -3v-8q-24 8 -25 -11v-369l-10 6v364zM48 489l-2 -4q-4 5 -12 13q-5 4 -12 5l1 6q7 1 15.5 -6t9.5 -14zM290 312q0 -25 -28 -37v-155
q-1 -1 -3 -1q-7 0 -7 15v146q28 11 28 35q0 7 -3 12q-4 9 -5 10q0 1 1.5 1.5t9 -5.5t7.5 -21zM169 -63q-10 0 -21 7v-6q0 -11 19 -26q-11 -8 -24 -37q-16 30 -27 37q20 14 20 33q-9 -8 -21 -8q-21 0 -21 21q0 6 9 18q7 -7 18 -7q19 0 18 27h6q-2 -5 3 -15.5t14 -12.5
q8 -3 20 7q6 -5 6 -14q0 -24 -19 -24zM339 -129h-44v8h35v177h9v-185zM262 105h46v-205h-52v76q0 21 -13 24q-20 4 -26 20q-8 13 -11 38q-5 -16 -13 -39q-5 -7 -25 -17q-7 -1 -20 -2h-13q-33 0 -46 22l-12 37q-16 -43 -22 -52t-38 -7v105q1 0 4 1q33 6 33 54v129
q-5 13 -25 35q18 11 18 23v2q-15 -8 -19 -8q-19 0 -19 20q0 8 7 17q8 -8 15 -8q21 0 21 38l1 -1l-1 105q0 15 -14 24t-26 8v108h6q14 0 28 -7q18 -10 20 -28q1 -9 7 -52l5 52q2 14 18 24.5t39 10.5v-111q-33 -2 -34 -36q1 10 0 -343q0 -53 34 -59h13q28 6 28 63v342
q0 13 -11 23.5t-17 9.5v111q25 -1 39 -15q8 -6 12 -19l5 -46q2 17 5.5 48.5t43.5 31.5h13v-110q-41 -9 -41 -40v-148q-1 -2 1 -7q6 7 17 7q9 0 16.5 -8t7.5 -16q0 -20 -13 -24q-3 3 -15 7q-12 -1 -12 -26v-145q0 -15 10 -26t25 -11z" />
    <glyph glyph-name="afii10042" unicode="&#x428;" horiz-adv-x="466" 
d="M129 489q2 21 23 21q5 0 12 -3v-8q-24 8 -25 -11v-369l-10 6v364zM49 489l-2 -4q-4 5 -12 13q-5 4 -12 5l1 6q7 1 15.5 -6t9.5 -14zM357 2l5 -4q20 -24 58 -32h10v109q5 0 9 -1v-117q-11 0 -41 7q-17 6 -41 27q-10 -13 -34 -18.5t-44 -3.5l-12 3l2 8q16 -4 29 -3
q38 3 59 25zM96 -8q24 -17 53 -17l-2 -9q-42 2 -62 22q-21 -20 -38 -21q-3 2 -5 5q9 3 23 10q4 3 22 18zM241 691q-17 -7 -30 -33h-3q-5 20 -30 33q23 22 27 39q1 10 6 30q1 -10 4 -29q3 -15 26 -40zM435 509q-9 -1 -26 -5q-10 -4 -11.5 -15.5t-1.5 -22.5v-28v-76q-1 1 -9 4
q1 9 0 12v107q0 20 17 28q3 1 22 4v100h9v-108zM265 489q2 21 23 21q5 0 12 -3v-8q-24 8 -25 -11v-369l-10 6v364zM427 312q0 -25 -28 -37v-155q-1 -1 -3 -1q-7 0 -7 15v146q28 11 28 35q0 7 -3 12q-4 9 -5 10q0 1 1.5 1.5t9 -5.5t7.5 -21zM237 -60q-10 0 -21 7v-6
q0 -11 19 -26q-11 -8 -24 -40q-16 33 -27 40q20 14 20 33q-9 -8 -21 -8q-21 0 -21 21q0 6 9 18q7 -7 18 -7q19 0 18 27h6q-2 -5 3 -15.5t14 -12.5q8 -3 20 7q6 -5 6 -14q0 -24 -19 -24zM285 0h-13q-33 0 -48 26l-14 32q-12 -37 -24.5 -47.5t-36.5 -10.5h-13q-33 0 -46 22
l-12 37q-16 -43 -22 -51t-38 -8v105q1 0 4 1q33 6 33 54v129q-5 13 -25 35q18 11 18 23v2q-15 -8 -19 -8q-19 0 -19 20q0 8 7 17q8 -8 15 -8q21 0 21 38l1 -1l-1 105q0 15 -14 24t-26 8v108h6q14 0 28 -7q18 -10 20 -28q1 -9 7 -52l5 52q2 14 18 24.5t39 10.5v-111
q-30 -1 -34 -36q1 10 0 -343q0 -53 34 -59h13q33 6 33 63v340q0 19 -10 27.5t-23 7.5v111h6q14 0 28 -7q18 -10 20 -28q1 -9 7 -52l5 52q2 14 18 24.5t39 10.5v-111q-33 -2 -34 -36q1 10 0 -343q0 -53 34 -59h13q28 6 28 63v342q0 13 -11 23.5t-17 9.5v111q25 -1 39 -15
q8 -6 12 -19l5 -46q2 17 5.5 48.5t43.5 31.5h13v-110q-41 -9 -41 -40v-148q-1 -2 1 -7q6 7 17 7q9 0 16.5 -8t7.5 -16q0 -20 -13 -24q-3 3 -15 7q-12 -1 -12 -26v-145q0 -15 10 -26t25 -11h8v-105q-41 -1 -53 20q-8 13 -11 38q-5 -16 -13 -39q-5 -7 -25 -17q-7 -1 -20 -2z
" />
    <glyph glyph-name="afii10043" unicode="&#x429;" horiz-adv-x="503" 
d="M129 489q2 21 23 21q5 0 12 -3v-8q-24 8 -25 -11v-369l-10 6v364zM49 489l-2 -4q-4 5 -12 13q-5 4 -12 5l1 6q7 1 15.5 -6t9.5 -14zM96 -8q24 -17 53 -17l-2 -9q-42 2 -62 22q-21 -20 -38 -21q-3 2 -5 5q9 3 23 10q4 3 22 18zM241 691q-17 -7 -30 -33h-3q-5 20 -30 33
q23 22 27 39q1 10 6 30q1 -10 4 -29q3 -15 26 -40zM435 509q-9 -1 -26 -5q-10 -4 -11.5 -15.5t-1.5 -22.5v-28v-76q-1 1 -9 4q1 9 0 12v107q0 20 17 28q3 1 22 4v100h9v-108zM265 489q2 21 23 21q5 0 12 -3v-8q-24 8 -25 -11v-369l-10 6v364zM427 312q0 -25 -28 -37v-155
q-1 -1 -3 -1q-7 0 -7 15v146q28 11 28 35q0 7 -3 12q-4 9 -5 10q0 1 1.5 1.5t9 -5.5t7.5 -21zM237 -60q-10 0 -21 7v-6q0 -11 19 -26q-11 -8 -24 -40q-16 33 -27 40q20 14 20 33q-9 -8 -21 -8q-21 0 -21 21q0 6 9 18q7 -7 18 -7q19 0 18 27h6q-2 -5 3 -15.5t14 -12.5
q8 -3 20 7q6 -5 6 -14q0 -24 -19 -24zM357 2l5 -4q9 -10 19 -13v-10q-14 6 -24 16q-10 -13 -34 -18.5t-44 -3.5l-12 3l2 8q16 -4 29 -3q38 3 59 25zM476 -129h-44v8h35v177h9v-185zM399 105h46v-205h-52v76q0 21 -13 24q-20 4 -26 20q-8 13 -11 38q-5 -16 -13 -39
q-5 -7 -25 -17q-7 -1 -20 -2h-13q-33 0 -48 26l-14 32q-12 -37 -24.5 -47.5t-36.5 -10.5h-13q-33 0 -46 22l-12 37q-16 -43 -22 -51t-38 -8v105q1 0 4 1q33 6 33 54v129q-5 13 -25 35q18 11 18 23v2q-15 -8 -19 -8q-19 0 -19 20q0 8 7 17q8 -8 15 -8q21 0 21 38l1 -1l-1 105
q0 15 -14 24t-26 8v108h6q14 0 28 -7q18 -10 20 -28q1 -9 7 -52l5 52q2 14 18 24.5t39 10.5v-111q-30 -1 -34 -36q1 10 0 -343q0 -53 34 -59h13q33 6 33 63v340q0 19 -10 27.5t-23 7.5v111h6q14 0 28 -7q18 -10 20 -28q1 -9 7 -52l5 52q2 14 18 24.5t39 10.5v-111
q-33 -2 -34 -36q1 10 0 -343q0 -53 34 -59h13q28 6 28 63v342q0 13 -11 23.5t-17 9.5v111q25 -1 39 -15q8 -6 12 -19l5 -46q2 17 5.5 48.5t43.5 31.5h13v-110q-41 -9 -41 -40v-148q-1 -2 1 -7q6 7 17 7q9 0 16.5 -8t7.5 -16q0 -20 -13 -24q-3 3 -15 7q-12 -1 -12 -26v-145
q0 -15 10 -26t25 -11z" />
    <glyph glyph-name="afii10046" unicode="&#x42c;" horiz-adv-x="295" 
d="M102 -64q-10 0 -21 7v-6q0 -11 19 -26q-11 -8 -25 -36q-15 29 -26 36q20 14 19 32q-8 -7 -20 -7q-22 0 -22 20q0 7 10 19q7 -8 16 -8q13 0 18 17l4 28h5v-5q-1 -39 16 -39q7 0 19 6q6 -5 6 -14q0 -24 -18 -24zM235 338q10 -4 15 -11q21 -17 21 -70v-202
q0 -41 -29.5 -70.5t-72.5 -27.5q-16 0 -47 21q1 7 4 7l8 -5q19 -13 37 -14q32 0 59 22.5t28 49.5q2 32 2 108l1 129q0 36 -32 58q-4 7 6 5zM183 284q0 20 -20 18q-8 5 2 15q-3 1 -6 1q-25 8 -57 20l-1 -178q0 -49 41 -49q21 0 32 23q9 19 9 42v108zM147 127q-4 -6 -7 -6
q-4 0 -8.5 10t-4.5 14q0 150 1.5 149.5t9.5 -4.5v-145q2 -7 9 -18zM106 694q-17 -17 -21 -24q-6 -10 -10 -32q-9 34 -31 56q25 44 31 66q4 -22 17 -44q7 -10 14 -22zM41 490q-7 14 -22 19l2 7q19 -6 27 -21zM129 484q1 22 34 27l-1 105l10 -5l1 -109q-35 5 -34 -20v-87
q-1 -8 3 -14t4 -8t-7 -2q-10 0 -10 16v97zM140 652v-110q-39 -15 -39 -54v-64q0 -53 41 -65q40 -13 58 -24q38 -19 38 -55q0 -5 -1 -8v1v-190q0 -38 -20 -62.5t-56 -24.5q-44 0 -57.5 21t-26.5 44q-4 -14 -8.5 -28.5t-14.5 -22.5t-44 -10v108q24 5 25 6q18 8 18 32
q0 -2 0 58v67q1 13 0 38q-2 16 -16 22q5 4 9.5 8t6.5 18q-16 -7 -19 -7q-8 0 -15.5 7t-7.5 15q0 18 15 20q9 -12 13 -12q13 0 13 18v21v93q0 22 -41 31v106q9 3 14 3q38 0 43 -37q4 -32 7 -63q4 33 8 65q9 36 57 35z" />
    <glyph glyph-name="afii10021" unicode="&#x414;" horiz-adv-x="389" 
d="M279 -20v-9q-16 8 -27 20l-27 -19l-2 7q11 6 29 23l5 -4q13 -13 22 -18zM80 -27q13 0 27 9q4 3 22 18l6 -3q-4 -4 -8 -9q-21 -20 -38 -21v-92h-44v7h35v91zM200 694q-17 -7 -30 -33h-3q-5 20 -30 33q23 22 27 39q1 10 6 27q1 -7 4 -26q3 -15 26 -40zM330 509
q-9 -1 -26 -5q-10 -4 -11.5 -15.5t-1.5 -22.5v-28v-76q-1 1 -9 4q1 9 0 12v107q0 20 17 28q3 1 22 4v100h9v-108zM160 489q2 21 23 21q5 0 12 -3v-8q-24 8 -25 -11v-369l-10 6v364zM80 489l-2 -4q-4 5 -12 13q-5 4 -12 5l1 6q7 1 15.5 -6t9.5 -14zM322 312q0 -25 -28 -37
v-155q-1 -1 -3 -1q-7 0 -7 15v146q28 11 28 35q0 7 -3 12q-4 9 -5 10q0 1 1.5 1.5t9 -5.5t7.5 -21zM201 -63q-10 0 -21 7v-6q0 -11 19 -26q-11 -8 -24 -37q-16 30 -27 37q20 14 20 33q-9 -8 -21 -8q-21 0 -21 21q0 6 9 18q7 -7 18 -7q19 0 18 27h6q-2 -5 3 -15.5t14 -12.5
q8 -3 20 7q6 -5 6 -14q0 -24 -19 -24zM180 103q28 10 28 63v342q0 13 -11 23.5t-20 9.5h-14q-29 -2 -30 -36q1 10 0 -343q0 -53 34 -59h13zM371 -125h-44v7h35v174h9v-181zM50 105q36 7 36 55v129q-5 13 -25 35q18 11 18 23v2q-15 -8 -19 -8q-19 0 -19 20q0 8 7 17
q8 -8 15 -8q21 0 21 38l1 -1l-1 105q0 15 -14 24t-26 8v108h6q14 0 28 -7q18 -10 20 -28q0 -4 7 -52l5 52q2 14 18 24.5t27 10.5h8h13l11 -1q18 0 32 -14q11 -10 12 -19l5 -46q2 17 5.5 48.5t43.5 31.5h13v-110q-41 -9 -41 -40v-148q-1 -2 1 -7q6 7 17 7q9 0 16.5 -8
t7.5 -16q0 -20 -13 -24q-3 3 -15 7q-12 -1 -12 -26v-145q0 -15 10 -26t25 -11h46v-205h-52v76q0 21 -13 24q-20 4 -26 20q-8 13 -11 38q-5 -16 -13 -39q-5 -7 -25 -17q-7 -1 -20 -2h-13q-33 0 -46 22l-12 37q-16 -43 -22 -52t-18 -7q-13 -3 -13 -24v-76h-52v205h46z" />
    <glyph glyph-name="afii10025" unicode="&#x417;" horiz-adv-x="259" 
d="M148 697q-13 0 -27 -18q-16 -21 -21 -24q-2 16 -37 46q25 16 41 59q19 -47 44 -63zM233 142q0 -64 -7 -92q-1 -2 -13 -30q-10 -21 -38 -32l-7 6q13 5 35 24q19 30 19 124v89q0 13 -4 47q-3 11 -6 19q-8 20 -19 27q23 15 26 45v88v79q0 51 -34 91l5 3l20 -24
q19 -35 19 -69v-176q-1 -16 -20 -39q14 -15 20 -40q2 -22 3 -52zM194 431q0 -24 -3 -43q-7 -45 -29 -59q27 -20 27 -99v-46v-47q0 -76 -8 -97q-17 -43 -81 -45q3 -10 7.5 -21.5t14.5 -11.5q7 0 22 16q9 -14 9 -24q0 -24 -21 -24q-24 0 -34 37q-2 -2 -11 -24q-5 -13 -21 -13
q-22 0 -22 24q0 10 12 21q5 -10 14 -10q13 0 19 9q1 2 8 21q-88 23 -88 143q0 138 -1 127q4 1 37 0l1 -94q0 -17 19 -26q15 -8 32 -8q51 0 51 49q0 10 -19 28q2 5 12 15q7 7 7 22q0 44 -53 53v44q23 1 40.5 16.5t17.5 38.5q0 15 -19 29q19 19 19 33q0 48 -54 44
q-47 -4 -47 -52v-65h-38v146q0 38 24 73q28 39 67 39q37 0 61.5 -30.5t27.5 -71.5v-117zM72 172h-7v69h7v-69zM47 -8l-6 -8q-11 8 -21 23h10zM121 -92q-17 -17 -23 -33q-6 12 -28 33q12 3 28 30q12 -23 23 -30zM130 472l-16 4q-12 2 -21.5 -7t-9.5 -22v-85h-5h-44v8h40v76
q0 37 36 37q12 0 22 -7z" />
    <glyph glyph-name="afii10038" unicode="&#x424;" horiz-adv-x="417" 
d="M40 256l-8 -1q11 -44 69 -43q2 0 40 6v9q-24 -7 -40 -7q-29 2 -43 12.5t-18 23.5zM164 510q1 -6 0 -6q-22 4 -15 4q-20 0 -21 -16v-184q-6 3 -8 6v176q0 24 28 24q6 0 16 -4zM231 704q-20 -18 -29 -63q-7 44 -32 62q20 20 31 57q8 -31 30 -56zM340 292q-1 -7 -6.5 -15.5
t-24.5 -20.5t-37 -12q-13 0 -53 22v-111q-2 -17 6 -31q10 -18 28 -18q3 0 10 -1v-105h-7h-6q-41 0 -54 49q-2 1 -3 0q-4 -49 -52 -49h-13v103q6 0 16 2q15 8 19 22q1 3 4 29l1 110q-40 -22 -53 -22q-18 0 -35.5 11t-22 19t-10.5 22q-4 16 -20 28q18 11 18 23v2
q-15 -8 -19 -8q-19 0 -19 20q0 8 7 17q8 -8 15 -8q18 0 17 42v174q1 33 22.5 52.5t59.5 18.5q34 -1 53 -28q8 -9 16 -49q11 40 17 49q17 27 53 28q30 1 53.5 -20.5t23.5 -50.5v-242q8 8 16 8q22 0 22 -23q0 -6 -3.5 -13.5t-6.5 -6.5q-18 6 -23 5q-10 -6 -9 -22zM169 339v161
q0 45 -40 45t-40 -48v-153q0 -53 41 -53q18 0 28.5 14.5t10.5 33.5zM218 339q0 -19 10.5 -33.5t28.5 -14.5q41 0 41 53v153q0 48 -40 48t-40 -45v-161zM292 510q1 -6 0 -6q-22 4 -15 4q-20 0 -21 -16v-184q-6 3 -8 6v176q0 24 28 24q6 0 16 -4zM299 -45q-42 0 -68 36
q0 4 5 4q1 0 5.5 -6.5t8.5 -9.5q17 -12 39 -16v120q5 -3 10 -10v-118zM239 -43q3 -20 -18 -20q-9 0 -22 8l1 -7q1 -11 19 -26q-11 -8 -24 -37q-8 14 -27 37q20 14 20 25v8q-10 -8 -21 -8q-21 0 -21 21q0 9 9 18q8 -8 17 -8q12 0 17 18q2 14 4 27h4q1 -44 18 -44q5 0 19 6
q8 -6 5 -18zM370 281q26 8 26 28q0 10 -5 16.5t-5 9.5h4q4 0 9 -11.5t5 -17.5q0 -23 -27 -29q-2 -9 -17 -31q-27 -34 -70 -34q-2 0 -35 5v-96l-6 1q-3 4 -3 11v94q28 -7 44 -7q34 0 53.5 22t26.5 39zM384 367h-9v200q0 47 -42 75l5 5q39 -32 46 -84v-196z" />
    <glyph glyph-name="afii10041" unicode="&#x427;" horiz-adv-x="327" 
d="M262 -25q10 -5 21 -9h10v109q5 0 9 -1v-117q-21 -2 -41 7q2 5 1 11zM168 691q-17 -7 -30 -33h-3q-5 20 -30 33q23 22 27 39q1 10 6 30q1 -10 4 -29q3 -15 26 -40zM298 509q-9 -1 -26 -5q-10 -4 -11.5 -15.5t-1.5 -22.5v-28v-76q-1 1 -9 4q1 9 0 12v107q0 20 17 28
q3 1 22 4v100h9v-108zM137 351q0 -9 -3 -9q-6 0 -6 9v138q2 21 23 21q5 0 12 -3v-8q-24 8 -26 -11v-137zM48 489l-2 -4q-4 5 -12 13q-5 4 -12 5l1 6q7 1 15.5 -6t9.5 -14zM290 312q0 -25 -28 -37v-155q-1 -1 -3 -1q-7 0 -7 15v146q28 11 28 35q0 7 -3 12q-4 9 -5 10
q0 1 1.5 1.5t9 -5.5t7.5 -21zM166 242q-73 -11 -88 -5v11q19 -5 88 3v-9zM230 -60q-10 0 -21 7v-6q0 -11 19 -26q-11 -8 -24 -40q-16 33 -27 40q20 14 20 33q-9 -8 -21 -8q-21 0 -21 21q0 6 9 18q7 -7 18 -7q19 0 18 34h6q-2 -12 3 -22.5t14 -12.5q8 -3 20 7q10 -6 6 -14
q0 -24 -19 -24zM54 289q-5 13 -25 35q18 11 18 23v2q-15 -8 -19 -8q-19 0 -19 20q0 8 7 17q8 -8 15 -8q21 0 21 38l1 -1l-1 105q0 15 -14 24t-26 8v108h6q14 0 28 -7q18 -10 20 -28q0 -4 7 -52l5 52q2 14 18 24.5t27 10.5h8v-112q-29 -1 -29 -35q0 10 0 -150q0 -14 1 -20
q3 -15 33 -15q33 0 38 16q2 7 2 24v148q0 13 -11 23.5t-20 9.5v110h10q18 0 32 -14q11 -10 12 -19l5 -46q2 17 5.5 48.5t43.5 31.5h13v-110q-41 -9 -41 -40v-148q-1 -2 1 -7q6 7 17 7q9 0 16.5 -8t7.5 -16q0 -20 -13 -24q-3 3 -15 7q-12 -1 -12 -26v-145q0 -15 10 -26
t25 -11h8v-105q-41 -1 -53 20q-8 13 -13 39q-3 -17 -11 -40q-5 -7 -25 -17q-7 -1 -20 -1v102q28 10 28 63v118q-28 -6 -30 -6q-70 -13 -92 11z" />
    <glyph glyph-name="afii10039" unicode="&#x425;" horiz-adv-x="310" 
d="M293 504h-15q-31 -3 -38 -21q-13 -38 -38 -122l-7 4q12 43 34 117q4 14 16.5 22t27.5 9q11 1 12 105q1 1 8 0v-114zM258 128q-2 -3 -5 -3q-2 0 -5 2q-14 44 -46 147q25 19 25 32q0 10 -9 26q0 4 4 4q14 0 14 -29q0 -12 -7 -19.5t-15 -16.5zM76 44q-9 -15 -19 -29.5
t-40 -14.5q-2 0 -9 1v108q37 -3 42 25l22 74q22 73 22 86q0 14 -7.5 24t-7.5 10.5t6 8.5t7 12l-1 1q-9 -5 -18 -5q-24 0 -24 21q0 6 7.5 13t12.5 7q1 0 4.5 -4t10.5 -5q6 -1 6 11q0 4 -13.5 51.5t-16.5 47.5q-1 0 -1 -1h-1l-15 9q-9 4 -20 13q4 5 3 5q4 0 16 -8q8 -4 15 -9
q-1 -1 -1 8t-13 21.5t-23 13.5q-5 0 -18 1v113h16q23 0 35 -16q5 -8 15 -36q8 18 15 36q12 18 35 16q5 -1 12 0q1 -96 -1 -104q-4 1 -12 -1q-21 -6 -11 -36l27 -87q13 25 29 94q6 28 -21 29v105h7q37 0 50 -46q3 21 17.5 34.5t34.5 13.5q2 0 11 -1v-111q-15 0 -21 -1
q-27 -6 -38 -58q-17 -43 -38 -133q10 4 21 4q25 0 25 -23q0 -7 -5.5 -16t-12.5 -9q1 0 -3.5 6t-12.5 6t-8 -12q0 -9 44 -144q13 -43 38 -46h16v-117q-60 1 -65 45q-15 -44 -47 -44h-15v110q24 4 24 22q0 2 -4.5 21.5t-5.5 20.5q-7 -23 -18 -49q-6 -5 -6 2q0 2 7 23.5t9.5 26
t2.5 12.5q0 13 -15 46q-2 -2 -14 -48t-12 -52q0 -15 20 -25v-110q-28 4 -35 12q-8 16 -16 31zM300 -36q4 -8 0 -8q-19 0 -40 5q-12 3 -26 12.5t-14.5 9.5t-15 -9.5t-18.5 -10.5q-5 5 -2 7q38 25 35 25q2 0 19 -12q25 -17 52 -15q2 92 0 124h10v-128zM100 -7q0 -5 -24 -21
t-28 -15q-6 -2 -13 3q30 10 62 38q3 -6 3 -5zM132 512q0 -5 7 -29l2 -6q1 -1 1 -2h-7l-1 1l-1 5q-10 30 -8 32q0 2 2 6q15 6 27 -5l-4 -5q-12 10 -17 3h-1zM159 -74q-10 0 -21 7q0 -17 19 -32q-11 -8 -25 -26q-15 19 -26 26q20 14 19 32q-8 -7 -20 -7q-22 0 -22 20
q0 13 10 19q7 -8 16 -8q13 0 18 17l4 28h5v-5q-1 -39 16 -39q7 0 19 6q6 -5 6 -14q0 -24 -18 -24zM165 709q-20 -18 -29 -63q-7 47 -30 62q17 18 30 52q7 -26 29 -51z" />
    <glyph glyph-name="afii10037" unicode="&#x423;" horiz-adv-x="304" 
d="M293 504h-15q-31 -3 -38 -21q-7 -39 -17 -110l-9 2q4 33 15 107q4 14 16.5 22t38.5 11l1 103q1 1 8 0v-114zM177 109l5 23q6 46 21 153q31 6 37 18q4 9 3 27q2 4 5 2q13 -6 0 -32q-5 -11 -14.5 -15t-20.5 -8l-22 -148q-12 -43 -23.5 -72t-14.5 -31q-4 -5 -13 -5
q18 26 30 68zM105 291q-11 19 -20 28t-9 9.5t6 8.5t7 12l-1 1q-9 -5 -18 -5q-24 0 -24 21q0 6 7.5 13t12.5 7q1 0 4.5 -4t10.5 -5q6 -1 3 12q-5 25 -13 61.5t-11 36.5q-1 0 -1 -1h-1l-15 9q-9 4 -20 13q4 5 3 5q4 0 16 -8q8 -4 15 -9q-1 -1 -1 8t-13 21.5t-23 13.5
q-5 0 -18 1v113h16q23 0 35 -16q5 -8 15 -36q8 18 15 36q12 18 35 16h12q1 -96 -1 -104q-4 1 -12 -1q-21 -6 -13 -38l38 -190q14 102 20 199q6 28 -21 29v105h7q37 0 50 -46q3 21 17.5 34.5t34.5 13.5l11 -1v-111q-15 0 -21 -1q-27 -6 -31 -56q-12 -84 -17 -134q5 3 16 3
q25 0 25 -23q0 -7 -5.5 -16t-12.5 -9q1 0 -3.5 6t-12.5 6t-12 -16q-6 -56 -10.5 -92.5t-11.5 -74.5q-12 -44 -31 -92q-9 -15 -19 -29.5t-53 -14.5q-21 8 -22 24l24 87q39 -5 44 23q11 37 13 62q-3 49 -16 95zM119 -12q-1 -5 -29 -13t-31 -6q-7 0 -12 6q32 1 71 19q1 -7 1 -6
zM124 512q0 -5 18 -90l-7 -3l-14 66q-6 26 -4 28q0 2 2 6q15 6 27 -5l-4 -5q-12 10 -17 3h-1zM159 -70q-10 0 -21 7q0 -17 19 -32q-11 -8 -25 -30q-15 23 -26 30q20 14 19 32q-8 -7 -20 -7q-22 0 -22 20q0 13 10 19q7 -8 16 -8q13 0 18 17l4 28h5v-5q-1 -39 16 -39q7 0 19 6
q6 -5 6 -14q0 -24 -18 -24zM165 709q-20 -18 -29 -63q-7 47 -30 62q17 18 29 52q8 -26 30 -51z" />
    <glyph glyph-name="afii10045" unicode="&#x42b;" horiz-adv-x="417" 
d="M102 -64q-10 0 -21 7v-6q0 -11 19 -26q-11 -8 -25 -36q-15 29 -26 36q20 14 19 32q-8 -7 -20 -7q-22 0 -22 20q0 7 10 19q7 -8 16 -8q13 0 18 17l4 28h5v-5q-1 -39 16 -39q7 0 19 6q6 -5 6 -14q0 -24 -18 -24zM259 -29q-18 -7 -41 -12.5t-49 -1.5q-29 5 -47 21q1 7 4 7
l8 -5q19 -13 37 -14q23 -2 42.5 2t39.5 12q3 -4 6 -9zM183 284q0 20 -20 18q-8 5 2 15q-3 1 -6 1q-25 8 -57 20l-1 -178q0 -49 41 -49q21 0 32 23q9 19 9 42v108zM147 127q-4 -6 -7 -6q-4 0 -8.5 10t-4.5 14q0 150 1.5 149.5t9.5 -4.5v-145q2 -7 9 -18zM106 694
q-17 -17 -21 -24q-6 -10 -10 -32q-9 34 -31 56q25 44 31 66q4 -22 17 -44q7 -10 14 -22zM41 490q-7 14 -22 19l2 7q19 -6 27 -21zM129 484q1 22 34 27l-1 105l10 -5l1 -109q-35 5 -34 -20v-87q-1 -8 3 -14t4 -8t-7 -2q-10 0 -10 16v97zM237 83q0 -38 -20 -62.5t-56 -24.5
q-44 0 -57.5 21t-26.5 44q-4 -14 -8.5 -28.5t-14.5 -22.5t-44 -10v108q24 5 25 6q18 8 18 32q0 -2 0 58v67q1 13 0 38q-2 16 -16 22q5 4 9.5 8t6.5 18q-16 -7 -19 -7q-8 0 -15.5 7t-7.5 15q0 18 15 20q9 -12 13 -12q13 0 13 18v21v93q0 22 -41 31v106q9 3 14 3q38 0 43 -37
q4 -32 7 -63q4 33 8 65q9 36 57 35v-110q-39 -15 -39 -54v-64q0 -53 41 -65q40 -13 58 -24q38 -19 38 -55q0 -5 -1 -8v1v-168q10 4 21 8q17 10 17 34v324q0 4 -1 8q-9 8 -29 19l3 8q16 -3 25 -18l1 1v8q0 25 -18 37q-11 4 -21 9v108h13q37 0 44 -33q4 -23 8 -47l1 1l6 54
q7 26 44 26q4 0 12 -1v-109q-39 -15 -39 -54l1 -146q11 10 19 10q22 0 22 -23q0 -6 -3.5 -13.5t-6.5 -6.5q-18 6 -23 5q-9 -3 -9 -22v-152q0 -32 37 -37v-102q-2 -1 -5 -1q-44 0 -49 34l-7 36l-4 -35q-10 -35 -48 -35h-11v83zM333 692q-25 -8 -31 -58h-2q-2 14 -5 26
q-8 26 -26 33q13 21 32 67q7 -23 14 -36zM393 502q-35 5 -35 -20v-122q-1 0 -8 2v123q0 21 33 26l-1 105l10 -5zM388 306q0 -23 -30 -30v-162q-2 1 -8 5v161q30 9 30 29q0 10 -5 16.5t-5 9.5h4q4 0 9 -11.5t5 -17.5zM394 -38q0 -7 -10 -7q-12 0 -33 8t-28 17q0 1 4 5
q36 -23 57 -20q1 34 -1 115h10v-40q1 -75 1 -78zM343 -57q0 -21 -18 -21q-5 0 -14 6l-2 -2q1 -6 20 -19q-15 -13 -27 -32q-9 14 -26 30q9 6 19 23l-1 2q-6 -7 -16 -7q-21 0 -21 22q0 9 6 17q12 -10 21 -5q9 0 13 24l2 32l5 1l4 -34q4 -25 15 -24q6 -2 16 4q4 -12 4 -17z" />
    <glyph glyph-name="afii10044" unicode="&#x42a;" horiz-adv-x="369" 
d="M176 -64q-10 0 -21 7v-6q0 -11 19 -26q-11 -8 -25 -36q-15 29 -26 36q20 14 19 32q-8 -7 -20 -7q-22 0 -22 20q0 7 10 19q7 -8 16 -8q13 0 18 17l4 28h5v-5q-1 -39 16 -39q7 0 19 6q6 -5 6 -14q0 -24 -18 -24zM309 338q10 -4 15 -11q21 -17 21 -70v-202
q0 -41 -29.5 -70.5t-72.5 -27.5q-16 0 -47 21q1 7 4 7l8 -5q19 -13 37 -14q32 0 59 22.5t28 49.5q2 32 2 108l1 129q0 36 -32 58q-4 7 6 5zM257 176q0 -23 -9 -42q-11 -23 -32 -23q-41 0 -41 49l1 178q32 -12 57 -20q3 0 6 -1q-10 -10 -2 -15q20 2 20 -18v-108zM221 127
q-4 -6 -7 -6q-4 0 -8.5 10t-4.5 14q0 150 1.5 149.5t9.5 -4.5v-145q2 -7 9 -18zM180 694q-17 -17 -21 -24q-6 -10 -10 -32q-9 34 -31 56q25 44 32 66q3 -22 16 -44q7 -10 14 -22zM203 484q1 22 34 27l-1 105l10 -5l1 -109q-35 5 -34 -20v-87q-1 -8 3 -14t4 -8t-7 -2
q-10 0 -10 16v97zM89 542q37 -8 37 -30v-93v-21q0 -18 -13 -18q-4 0 -13 12q-15 -2 -15 -20q0 -8 7.5 -15t15.5 -7q3 0 19 7q-2 -14 -6.5 -18t-9.5 -8q14 -6 16 -22q1 -25 0 -38v-67q0 -60 0 -58q0 -24 -18 -32q-1 -1 -25 -6v-108q34 2 44 10t14.5 22.5t8.5 28.5
q13 -23 26.5 -44t57.5 -21q36 0 56 24.5t20 62.5v190v-1q1 3 1 8q0 36 -38 55q-18 11 -58 24q-41 12 -41 65v64q0 39 39 54v110q-48 1 -57 -35q-4 -32 -8 -65q-3 31 -7 63q-5 37 -43 37h-82v-263h49v134q0 21 23 19zM92 402v116q22 -8 30 -23l-7 -5q-7 14 -14 15v-99z
M69 367l3 -9h-20v9h17z" />
    <glyph glyph-name="afii10048" unicode="&#x42e;" horiz-adv-x="440" 
d="M107 694q-17 -7 -30 -33h-3q-5 20 -30 33q23 22 27 39q1 10 5 27q2 -7 5 -26q3 -15 26 -40zM137 488v-116q0 -9 -3 -9q-6 0 -6 9v117q2 21 23 21q5 0 12 -3v-8q-24 8 -26 -11zM48 489l-2 -4q-4 5 -12 13q-5 4 -12 5l1 6q7 1 15.5 -6t9.5 -14zM166 274q-17 -5 -28 -1v-154
l-10 6v150v9q11 -6 38 -1v-9zM104 -63q-10 0 -21 7v-6q0 -11 19 -26q-11 -8 -24 -37q-16 30 -27 37q20 14 20 33q-9 -8 -21 -8q-21 0 -21 21q0 6 9 18q7 -7 18 -7q19 0 18 34h6q-2 -12 3 -22.5t14 -12.5q8 -3 20 7q6 -5 6 -14q0 -24 -19 -24zM390 386q0 -6 -8 -6q-2 0 -2 3
v184q0 21 -11.5 39t-24.5 34l5 4q41 -31 41 -71v-187zM420 328q0 -13 -9 -24.5t-21 -12.5v-193q0 -96 -64 -116l-4 6q31 4 47 46q11 31 11 69l1 194q31 7 31 35q0 11 -6 20q14 -1 14 -24zM176 392l-1 163q0 43 23.5 73.5t66.5 31.5q-11 32 -27 43q20 21 31 57q8 -31 30 -56
q-15 -13 -24 -44q32 -3 55.5 -32.5t24.5 -63.5q-1 24 -1 -208l15 8q24 4 27 -25q2 -21 -18 -25q-6 12 -13 11q-10 -3 -11 -12v-203q0 -106 -78 -111q1 -9 9 -20.5t16 -11.5q11 0 14 7q3 -8 3 -15t-6.5 -14.5t-12.5 -7.5q-15 0 -21 7q0 -16 19 -32q-11 -9 -24 -37
q-8 15 -11 19q-7 13 -16 18q20 15 20 33q-9 -8 -21 -8q-21 0 -21 21q0 13 9 18q11 -8 22 -8t14 31q-56 4 -76 31q-16 24 -16 82l-1 204q-28 -6 -30 -6q-17 0 -22 1l-23 5v-154q0 -53 42 -58v-104q-41 0 -54 22l-12 37q-16 -43 -22 -52t-38 -7v105q1 0 4 1q33 6 33 54v129
q-5 13 -25 35q18 11 18 23v2q-15 -8 -19 -8q-19 0 -19 20q0 8 7 17q8 -8 15 -8q21 0 21 38l1 -1l-1 105q0 15 -14 24t-26 8v108h6q14 0 28 -7q18 -10 20 -28q0 -4 7 -52l5 52q2 14 18 24.5t27 10.5h20v-108q-41 -4 -41 -39q0 10 0 -118q0 -14 1 -20q3 -15 33 -15q33 0 38 16
q2 7 2 24zM223 363q19 3 26.5 -5t7.5 -17q0 -8 -7 -17t-15 -9q-3 8 -12 11v-165q0 -44 40 -44q18 0 29.5 13t11.5 32v129q0 26 -16 44q18 18 18 29v136q0 46 -44 46q-17 0 -28 -12t-11 -30v-141zM301 506l-1 -2q-13 7 -21 7q-22 0 -22 -22v-116l-8 2v53v66q6 23 35 23
q13 0 17 -11zM261 307v-170q-9 10 -9 17v144z" />
    <glyph glyph-name="afii10047" unicode="&#x42d;" horiz-adv-x="310" 
d="M174 697q-13 0 -27 -18q-16 -21 -21 -24q-2 16 -37 46q25 16 39 59q6 -15 11 -28q10 -19 35 -35zM98 172h-7v69h7v-69zM73 -8l-6 -8q-11 8 -21 23h10zM147 -92q-16 -19 -23 -33q-7 14 -28 33q12 3 28 25q12 -18 23 -25zM156 472l-16 4q-12 2 -21.5 -7t-9.5 -22v-85h-5
h-44v8h40v76q0 37 36 37q12 0 22 -7zM220 349v82v117q-3 41 -27.5 71.5t-61.5 30.5q-39 0 -67 -39q-24 -35 -24 -73v-146h38v65q0 48 47 52q54 4 54 -44q0 -14 -19 -33q19 -14 19 -29v-29q0 -20 -15 -20q-13 0 -13 20v41h-29v-175h29v48q0 23 13 23q15 0 15 -23v-32
q-5 -20 -12 -27q-10 -10 -12 -15q19 -18 19 -28q0 -49 -51 -49q-17 0 -32 8q-19 9 -19 26l-1 94q-33 1 -37 0q1 11 1 -127q0 -120 88 -143q-7 -19 -8 -21q-6 -9 -19 -9q-9 0 -14 10q-12 -11 -12 -21q0 -24 22 -24q16 0 21 13q9 22 11 24q10 -37 34 -37q21 0 21 24
q0 10 -9 24q-15 -16 -22 -16q-10 0 -14.5 11.5t-7.5 21.5q64 2 81 45q11 25 13 86v105v33q1 50 14 52q12 -3 15 -7q12 3 12 24q0 25 -24 25q-6 0 -17 -9zM248 293l13 -3q16 8 18 21q5 12 1 24q-4 10 -13 19l4 3q8 -5 13.5 -16t3.5 -26q-3 -30 -31 -34q0 -32 1 -51l1 -88
q0 -64 -7 -92q-1 -2 -13 -30q-10 -21 -38 -32l-7 6q13 5 35 24q19 30 19 124v89v62zM256 377l-9 3q-1 62 -2 156q0 51 -34 91l5 3l20 -24q19 -35 19 -69q1 -104 1 -160z" />
    <glyph glyph-name="afii10049" unicode="&#x42f;" horiz-adv-x="332" 
d="M268 -34l4 6q11 -8 26 -5v123h8v-130q-26 -4 -38 6zM171 300v-15q-21 -24 -37 -32v-119q-2 -12 -8 -13v138q18 7 45 41zM18 -34q12 -2 23 1.5t33 25.5q5 -3 5 -6q-29 -29 -48 -30h-13v9zM107 406q3 -12 6 -19q4 -20 28 -20q44 0 44 56l-1 78q0 18 -12.5 30t-27.5 12
q-34 0 -35.5 -22.5t-1.5 -52.5v-62zM171 508q-12 5 -20 5q-18 0 -17 -34l1 -44q0 -2 -1 -31v-26q-4 1 -8 3v112q0 7 6 17t14 10h13.5t11.5 -8v-4zM167 -43q-3 12 5 18q14 -6 19 -6q18 0 17 44h7q2 -14 3 -27q4 -18 16 -18q9 0 17 8q9 -9 9 -18q0 -21 -21 -21q-11 0 -21 8v-7
q10 -19 20 -26q-19 -23 -26 -37q-14 29 -25 37q19 15 19 26v6q-12 -7 -21 -7q-21 0 -18 20zM180 704q22 25 30 56q11 -37 31 -57q-25 -18 -32 -62q-9 45 -29 63zM308 509q-9 -1 -26 -5q-10 -4 -11.5 -15.5t-1.5 -22.5v-28v-76q-1 1 -9 4v119q0 20 17 28q3 1 22 4v100h9v-108
zM300 312q0 -25 -28 -37v-155q-1 -1 -3 -1q-7 0 -7 15v146q28 11 28 35q0 7 -3 12q-4 9 -5 10q0 1 1.5 1.5t9 -5.5t7.5 -21zM236 347q6 7 17 7q9 0 16.5 -8t7.5 -16q0 -20 -13 -24q-3 3 -15 7q-12 -1 -13 -29v-108q0 -69 41 -71v-105h-14q-30 -1 -41 17q-6 12 -12 23
q-7 -12 -14 -23q-14 -19 -41 -17h-17v102q45 -6 45 78v161q-18 -12 -27 -17q-15 -5 -23 -7q6 -8 6 -14l-12 -20q-4 11 -13 15q-7 -4 -7 -16v-183q0 -47 -11 -68q-15 -31 -58 -31h-28v108q23 1 32 10t10 34v38v83q0 40 20 52q12 5 17 6q-37 17 -37 67v129q0 42 1 48
q3 28 17 47q22 31 51 33q17 1 35 -1q46 -7 57 -54q2 20 12 33q15 20 53 19l1 -110q-24 2 -34 -6.5t-10 -23.5v-16z" />
    <glyph glyph-name="afii10069" unicode="&#x434;" horiz-adv-x="188" 
d="M154 418q-9 1 -13 -2q-9 -5 -9 -26q0 -57 12 -63q-14 -16 -14 -34v-93q0 -43 15 -67q-12 -16 -12 -35q0 -35 -9 -47q-11 -16 -47 -16q-4 0 -11.5 1.5t-11.5 1.5q-15 0 -29 -7.5t-14.5 -6.5t-4.5 32q-5 53 18 90h4q0 -25 3 -32q6 -14 27 -14q35 0 35 43q0 37 -3 50
q-15 -19 -32 -19q-42 0 -44 60q-1 62 0 60q-2 28 -12 37q12 13 12 45q0 57 4 72q11 39 52 39q36 0 46 -28q8 25 27 25q6 0 11 -1v-65zM93 398q0 6 -7 11.5t-14 5.5q-25 0 -25 -38l1 -92q0 -24 1 -28q3 -16 20 -16q24 1 24 45v112zM30 5q6 7 15 9q6 1 15 0q15 -1 17 -1
q71 0 77 35q1 15 2 31.5t12 24.5q-14 22 -15 40v134q0 13 11 29q-11 16 -11 36q0 64 -1 26q0 19 10 21h13v71h7v-77q-12 0 -16.5 -1t-4.5 -42q0 -11 7 -22.5t5 -14.5q-12 -15 -12 -26v-134q3 -17 18 -39q1 -3 -1 -4q-12 -8 -13 -35q-2 -30 -12 -41q-19 -20 -76 -20
q-2 0 -15 1q-9 0 -16 -1.5t-13 -6.5z" />
    <glyph glyph-name="mu" unicode="&#xb5;" horiz-adv-x="178" 
d="M173 317q0 -3 -6.5 -11t-6.5 -15v-85q0 -30 -22.5 -45.5t-55.5 -14.5q-29 2 -42 21l2 4q26 -18 45 -18q25 0 45.5 13t20.5 37v73v17.5t12 23.5q0 2 -5 9.5t-5 8.5q0 114 -9 126l6 2q10 -16 10 -44v-77q0 -10 5.5 -16.5t5.5 -8.5zM38 474q22 22 45 20q50 -1 55 -67v-68
q0 -15 5.5 -20.5t5.5 -7.5q-11 -13 -11 -24v-79q0 -58 -55 -58q-65 0 -68 56q1 -8 1 87q0 6 -5.5 13t-5.5 9q11 17 11 28q0 6 -1 33v33q-1 39 5 90q10 77 83 92q19 3 36 -2q-1 -78 -50 -67q-29 11 -42 -9q-10 -18 -9 -59zM99 267v122q0 31 -23 31q-22 0 -22 -31v-123
q0 -8 8 -15.5t16 -7.5q21 0 21 24zM105 518v7q45 11 48 78l6 -1q-2 -72 -54 -84z" />
    <glyph glyph-name="afii10066" unicode="&#x431;" horiz-adv-x="178" 
d="M173 317q0 -3 -6.5 -11t-6.5 -15v-85q0 -30 -22.5 -45.5t-55.5 -14.5q-29 2 -42 21l2 4q26 -18 45 -18q25 0 45.5 13t20.5 37v73v17.5t12 23.5q0 2 -5 9.5t-5 8.5q0 114 -9 126l6 2q10 -16 10 -44v-77q0 -10 5.5 -16.5t5.5 -8.5zM38 474q22 22 45 20q50 -1 55 -67v-68
q0 -15 5.5 -20.5t5.5 -7.5q-11 -13 -11 -24v-79q0 -58 -55 -58q-65 0 -68 56q1 -8 1 87q0 6 -5.5 13t-5.5 9q11 17 11 28q0 6 -1 33v33q-1 39 5 90q10 77 83 92q19 3 36 -2q-1 -78 -50 -67q-29 11 -42 -9q-10 -18 -9 -59zM99 267v122q0 31 -23 31q-22 0 -22 -31v-123
q0 -8 8 -15.5t16 -7.5q21 0 21 24zM105 518v7q45 11 48 78l6 -1q-2 -72 -54 -84z" />
    <glyph glyph-name="afii10067" unicode="&#x432;" horiz-adv-x="198" 
d="M150 350q0 -3 -3.5 -9.5t-10.5 -8.5q7 -7 9.5 -11.5t3.5 -7.5q3 -11 3 -22v-63q0 -50 -39 -50q-17 0 -31 13q-8 8 -17 21q-10 -14 -20 -24q-10 -9 -27 -9q-9 0 -9 9v50q5 3 14 9.5t9 18.5v49q0 5 -6 12.5t-0.5 14t5.5 9.5v54q-3 15 -10 18q-11 4 -11.5 5.5t-1.5 5.5
l-2 54q0 1 21 1q19 0 27 -10q4 -5 11 -25q9 36 39 36q45 0 47 -51q2 -6 2 -7v-41q0 -34 -3 -41zM179 360q-1 -12 -5 -21.5t-9 -14.5q8 -8 10.5 -14t3 -10.5t0.5 -22.5v-59q0 -30 -7 -46q-13 -26 -43 -26q-20 0 -42 8q-19 6 -26 10l-15 -7.5t-18 -5.5q-5 0 -7 5q7 3 19 9
q24 13 20 13q1 0 7.5 -4.5t20.5 -10.5q9 -4 17.5 -6t19.5 -2q2 0 1 -1h1q13 0 26.5 13t15 28t1.5 25q0 -5 0 21v48q0 23 -14 36q12 11 14 29l1 75q0 12 1 8q-5 32 -5 27v4q8 -6 12 -30v-78zM107 321q-4 5 -16 5t-23 -6v-51q3 -23 22 -23q24 0 24 32q1 16 0 26.5t-7 16.5z
M114 398q0 24 -19 24q-17 0 -22 -12q-2 -4 -5 -29v-21t3 -20q15 -3 27.5 -0.5t14.5 17.5z" />
    <glyph glyph-name="afii10068" unicode="&#x433;" horiz-adv-x="186" 
d="M122 221v-76q-6 -2 -12 -2q-17 0 -28 3q-3 1 -11 7.5t-9 6.5q3 0 -7 -5q-25 -12 -34 -12l-5 2v4l18 6q5 2 27 18q2 0 19 -15q6 -6 22 -6q12 0 12 5v71h7q0 -2 1 -7zM125 348q17 -2 34 0v80q-1 21 -5 44q3 3 9 -2l4 -40v-90h-39zM99 396v-71q0 -4 4 -10.5t3.5 -7.5
l-2.5 -5q-5 -9 -5 -20q0 -3 1 -8v-29h-7l-1 1q0 25 -1 35q0 11 0 8q0 5 2.5 11.5t2.5 7.5t-2.5 6.5t-2.5 7.5v74h8zM16 488q22 0 32 -20l2 -3q1 -4 12 9.5t23 13.5h41q14 -4 18 -41v-43q0 -20 -3 -30q-9 -6 -20 0q-4 9 -4 30q1 14 -7 14h-26q-13 0 -13 -42v-8
q-1 -22 5.5 -31t6.5 -9.5t-3.5 -5.5t-4.5 -7q-3 -8 -3 -33q0 -27 3.5 -33.5t14 -8t10.5 -8.5l-1 -58h-16q-24 0 -32 24q-2 0 -3 -4.5t-5 -9.5q-9 -10 -27 -10q-5 0 -10 3q-1 6 -1.5 19t-0.5 14q0 17 2 27l2 1q22 3 22 40q-1 19 0 20q-1 11 -3 15q-3 8 -12 15q8 8 11 14t3 34
q0 23 -1 28q-3 11 -12 13q-3 1 -8 2t-5 4l-1 56q0 4 9 9h5z" />
    <glyph glyph-name="afii10076" unicode="&#x43a;" horiz-adv-x="210" 
d="M65 426q-1 -51 -1 -52q2 -13 9 -16q8 6 21 27.5t13 30.5q0 14 -21 10v58q0 3 2 3q1 0 3.5 -1t3.5 -1q24 0 32 -19q9 20 30 20q4 0 13 -1l1 -62h-4q-22 0 -38 -26q-14 -22 -14 -46q0 -4 15 -16q-5 -7 -5 -24q0 -47 35 -71q11 -8 17 -7h2v-55h-32q-29 0 -45 76t-29 76
q-6 0 -6 -16q0 -81 28 -80v-55q0 -1 -5 -2q-30 0 -39 20q-9 -14 -19 -17q-5 -2 -26 -2v36v20q24 -1 24 42q0 44 -13 57q11 17 11 29l1 27q0 20 -3 25q-5 9 -22 8l-1 65q26 1 49 1t19 -21zM146 162q11 -5 32 -5h14l-1 60h8v-57v-9h-15h-16q-13 0 -25 5zM15 160q26 0 40 14
l4 1q17 -17 34 -17h15v32h7v-28v-10h-31.5t-26.5 16q-14 -14 -42 -14v6zM175 245q-29 23 -29 59q0 8 3 13q-15 16 -15 29q0 21 17 40.5t37 20.5l1 66h6v-64v-9q-2 1 -5 1q-18 0 -33.5 -18.5t-15.5 -36.5q0 -11 14 -26l1 -4q-4 -4 -4 -12q0 -33 27 -53z" />
    <glyph glyph-name="afii10077" unicode="&#x43b;" horiz-adv-x="221" 
d="M108 179h-15v61q25 2 25 19q0 8 -23 132q-17 -95 -28 -181q-3 -25 -23 -29q-2 -1 -40 -1v62h8q16 0 22 12q11 24 11 58q0 8 -9 25q15 11 18 31l22 120h42q11 -67 21 -118q3 -18 6 -22l13 -15q-8 -12 -8 -20t9 -48q6 -26 30 -26v-60h-12q-22 0 -32 20l-2 3q-1 4 -12 -9.5
t-23 -13.5zM99 158q21 0 42 22q12 -18 23 -19h14h24v93q-18 4 -25 14q-4 10 -6 21.5t-2 16.5q0 4 2.5 10t2.5 8t-9.5 23t-28.5 128h9q24 -128 33 -137l3 -4q3 -4 4 -5q0 -1 -3.5 -9t-3.5 -14q1 -23 7 -33q16 -11 25 -12v-106l-48 -1q-16 3 -22 16q-15 -20 -41 -18v6zM78 172
l1 -7q-13 -8 -29.5 -10t-33.5 2v6q40 -6 62 9z" />
    <glyph glyph-name="afii10078" unicode="&#x43c;" horiz-adv-x="321" 
d="M149 292q3 22 25 196h42q11 -67 21 -118q3 -18 6 -22l13 -15q-8 -12 -8 -20t9 -48q6 -26 30 -26v-60h-12q-22 0 -32 20l-2 3q-1 4 -12 -9.5t-23 -13.5h-15v61q25 2 25 19q0 8 -23 132q-12 -92 -31 -212h-36q-13 88 -36 212q-17 -95 -21 -126q6 -26 30 -26v-60h-12
q-22 0 -32 20l-2 3q-1 4 -12 -9.5t-23 -13.5h-15v61q22 3 29 22q8 16 8 50q0 8 -9 25q15 11 18 31l22 120h42zM198 158q21 0 42 22q12 -18 23 -19h14h24v93q-18 4 -25 14q-4 10 -6 21.5t-2 16.5q0 4 2.5 10t2.5 8t-9.5 23t-28.5 128h9q24 -128 33 -137l3 -4q3 -4 4 -5
q0 -1 -3.5 -9t-3.5 -14q1 -23 7 -33q16 -11 25 -12v-106l-48 -1q-16 3 -22 16q-15 -20 -41 -18v6zM73 172l1 -7q-13 -8 -29.5 -10t-33.5 2v6q40 -6 62 9zM131 158h44v-6h-44v6zM129 475h8l16 -71l-6 -8z" />
    <glyph glyph-name="afii10079" unicode="&#x43d;" horiz-adv-x="216" 
d="M180 393v-45q0 -12 10 -31l1 -2q-11 -21 -11 -28v-39h-6q-1 -1 -1 32q0 10 5 22q0 2 3 6t3 6q-1 3 -5 9q-7 17 -5 76h20v72q6 1 8 1q-1 -2 0 -79h-22zM157 402v-43q0 -11 11 -29q0 1 -6 -7.5t-6 -19.5v-33q0 -32 28 -33l1 -51q0 -2 -1 -9h-33q-36 0 -36 43v95
q-13 12 -44 -10v-46q7 -15 23 -22v-59q-1 -1 -8 -1q-23 0 -34 24h-2q-6 -25 -32 -25h-7v62q5 -1 13.5 5t8.5 17v40q0 11 -5.5 21t-5.5 9q11 16 11 34v43q0 10 -7 14t-13 8q-1 16 0 57h13q22 0 29.5 -4.5t16.5 -41.5l-1 -104q19 14 29 12.5t15 -8.5v67q-5 11 -21 18v59
q1 1 8 1q23 0 34 -24h2q6 25 32 25h7v-62q-5 1 -13 -4.5t-7 -17.5zM207 147h-16q-45 0 -58 16q1 6 2 6t8.5 -5t10.5 -6q15 -5 32 -5h13v72q6 1 8 1q-1 -2 0 -79zM120 148h-20q-7 0 -21 6t-15 8q1 -1 -13.5 -8t-16.5 -7q-1 0 -1 5q13 5 31 17q1 1 14 -7t36 -9q-1 18 0 24l6 1
v-30z" />
    <glyph glyph-name="afii10072" unicode="&#x436;" horiz-adv-x="298" 
d="M69 175q-24 -21 -52 -21v6q26 0 47 19zM155 314q0 -81 28 -80v-55q0 -1 -5 -2q-30 0 -39 20q-9 -14 -19 -17q-5 -2 -26 -2v56q24 -1 24 42q2 29 1 38q-1 16 -9 16q-13 0 -28 -75.5t-48 -75.5h-32v55h2q6 -1 17 7q35 24 35 71q0 17 -5 24q15 12 15 16q0 24 -14 46
q-16 26 -38 26h-4l1 62q9 1 13 1q21 0 30 -20q8 19 32 21q6 0 9 -3v-58q-21 4 -21 -10q0 -9 13 -30.5t21 -28.5q7 4 10 16q2 13 0 48q-1 5 -9 5v61q19 -8 25 -21q7 15 26 21v-61q-8 -1 -8 -5v-48q2 -13 9 -16q8 6 21 27.5t13 30.5q0 14 -21 10v62h9q24 -3 32 -22q9 20 30 20
q4 0 13 -1l1 -62h-4q-22 0 -38 -26q-14 -22 -14 -46q0 -4 15 -16q-5 -7 -5 -24q0 -47 35 -71q11 -8 17 -7h2v-55h-32q-29 0 -45 76t-29 76q-6 0 -6 -16zM234 162q11 -5 32 -5h14l-1 60h8v-57v-9h-15h-16q-13 0 -25 5zM103 160q26 0 40 14l4 1q17 -17 34 -17h15v32h7v-28v-10
h-31.5t-26.5 16q-14 -14 -42 -14v6zM263 245q-29 23 -29 59q0 8 3 13q-15 16 -15 29q0 21 17 40.5t37 20.5l1 66h6v-64v-9q-2 1 -5 1q-18 0 -33.5 -18.5t-15.5 -36.5q0 -11 14 -26l1 -4q-4 -4 -4 -12q0 -33 27 -53z" />
    <glyph glyph-name="afii10073" unicode="&#x437;" horiz-adv-x="176" 
d="M101 350q5 -10 12 -20q25 -36 25 -78q0 -47 -17 -59q-1 -2 -3 -5t-8 -7q-12 -9 -28 -9q-19 0 -36 22q-1 0 -1 -4q-4 -66 -41 -90q-3 4 -3 2t5 23q1 5 1 19v171q6 3 22 3t16 -6v-30q0 -41 26 -41q20 0 20 27q0 17 -9 34q-9 13 -30 20q-9 7 -12 9t-3 4q9 6 22 15q3 4 14 31
t11 31q0 13 -16 13q-24 0 -24 -29l6 -21q-5 -4 -13 -4q-11 0 -18.5 11.5t-6.5 23.5l4 48q0 6 -5 33q2 1 18 1q36 0 44 -32q5 12 10.5 22.5t39.5 9.5h13v-52q-35 -67 -35 -86zM119 347q4 9 11 25q19 39 21 47q1 4 0 44l7 1v-45q0 -8 -13 -36t-16 -35q3 -5 7 -11t7 -11
q19 -32 19 -82q0 -21 -5 -45q-1 -6 -6 -17q-18 -35 -38 -35q-1 0 -6 -1h-6q3 0 -32 8q-8 -15 -15 -31q-13 -24 -19 -24q-2 0 -4 2q12 15 32 67h3q18 -17 33 -17q27 0 42 32q13 26 13 57q0 24 -6 49q-8 34 -29 58z" />
    <glyph glyph-name="afii10086" unicode="&#x444;" horiz-adv-x="278" 
d="M197 18q-5 -6 -17 -6q-19 0 -28 4q-2 1 -8.5 6t-7.5 5q2 0 -10 -7t-23 -7q-4 0 -9 3q9 4 25 11q20 13 17 13q4 0 10.5 -8.5t13.5 -10.5q4 -1 14 -1q13 0 16 6v18v39q1 3 5 3q2 0 2 -6v-62zM105 277v119q-3 24 -19 24q-21 0 -22 -24q0 -2 -1 -5.5t-1 -4.5v-109
q0 -35 22 -35q20 0 21 35zM271 312q0 -1 -5.5 -7.5t-6.5 -10t-1 -21.5v-59q0 -30 -7 -46q-13 -26 -43 -26q-13 0 -29 6q-1 0 -3 -3v-30q0 -1 -2 -3h-3l-4 4v42l2 2h3q-2 0 9.5 -4.5t22.5 -4.5q2 0 1 -1h1q13 0 26.5 13t15 28t1.5 25q0 -5 0 21v48q0 23 9 29q-8 16 -8 17v94
q0 12 1 8q-5 32 -5 27v4q8 -6 12 -30l1 -94q1 -5 3 -14q1 -2 5 -7.5t4 -6.5zM147 470q6 16 36 16q45 0 47 -51q2 -6 2 -7v-41q0 -34 1 -41q0 -3 5 -11t5 -9t-4 -7.5t-5 -9.5q-3 -11 -3 -22v-63q0 -50 -39 -50q-25 1 -39 11q-4 2 -6 6q0 -72 3 -76q9 -12 21 -13q4 0 7 -2
q2 -10 2 -18q0 -41 -4 -45h-22q-18 0 -26 21q-3 -5 -11.5 -13t-25.5 -8q-3 0 -11 4l1 32l-1 25q12 4 25 17q1 6 1 20v7.5v9.5q-1 1 -3 1q-1 0 -7 -4t-9 -5t-11 -1q-29 0 -42 24q-6 10 -6 13v4q1 1 4 1t4 -2q14 -32 34 -32q9 0 19.5 6t9.5 6q2 0 2 -1h1q2 0 3 2q1 23 1 20
q0 4 -2 7q-20 -20 -36 -20q-20 0 -33 16q-9 10 -12 35v83q-1 8 -5 16q-7 11 -7 9q0 1 4.5 8.5t5.5 10.5q2 9 2 24v46q0 67 41 67q33 0 44 -16q0 5 4 11h30q3 0 5 -11zM193 278v116q0 24 -25 26q-21 -1 -21 -23v-119q0 -36 22 -36q24 0 24 36z" />
    <glyph glyph-name="afii10088" unicode="&#x446;" horiz-adv-x="227" 
d="M183 302v-50v1q-4 0 -8 9v3v38q0 3 3.5 8.5t3.5 6.5q0 -7 -6 11q-3 10 -3 15v100q0 9 -4 15l-1 2h6q3 -1 7 -22v-99q1 -7 5.5 -15t4.5 -9q-8 -13 -8 -14zM194 188q-3 -64 -40 -88q-3 4 -3 2t5 23q1 5 3 22v7q-10 -1 -33 17q-13 -20 -38 -20q-29 0 -51 31l2 1
q26 -28 52 -24q23 3 34 22q21 -15 34 -18v13q-29 0 -38 33q-14 -35 -40 -35q-18 0 -23 4q-28 24 -28 66v70q0 6 -7 16t-7 11t6.5 12t7.5 13v38q0 20 -17 20q-4 0 -4 2l-1 59h43q5 0 13 -8t9 -14v-50q0 -45 -1 -142q0 -22 21 -22q22 0 22 22v136q0 17 -24 16l1 62h26
q38 0 38 -27v-77q0 -31 13 -42q-12 -22 -12 -21v-58q0 -21 37 -19v-53zM221 161q-10 -22 -17 -38q-13 -24 -19 -24q-2 0 -4 2q12 15 32 67v54q4 -3 8 -7v-54z" />
    <glyph glyph-name="afii10090" unicode="&#x448;" horiz-adv-x="299" 
d="M121 209q-14 -35 -40 -35q-18 0 -23 4q-28 24 -28 66v70q0 6 -7 16t-7 11t6.5 12t7.5 13v38q0 20 -17 20q-4 0 -4 2l-1 59h43q5 0 13 -8t9 -14v-50q0 -45 -1 -142q0 -22 21 -22q22 0 22 22v133q0 20 -17 20q-4 0 -4 2l-1 59h43q5 0 13 -8t9 -14v-50l-1 -142q0 -22 21 -22
q22 0 22 22v136q0 17 -24 16l1 62h26q38 0 38 -27v-77q0 -31 13 -42q-12 -22 -12 -21v-58q0 -18 27 -18v-66h-25q-29 0 -38 33q-14 -35 -40 -35q-18 0 -23 4q-17 9 -22 31zM125 181q25 -26 51 -22q23 3 34 22q32 -25 73 -25v66q4 -3 8 -7v-67q-48 -1 -80 23q-13 -20 -38 -20
q-29 0 -47 20q-13 -20 -38 -20q-29 0 -51 31l2 1q26 -28 52 -24q23 3 34 22zM268 302v-50v1q-4 0 -8 9v3v38q0 3 3.5 8.5t3.5 6.5q0 -7 -6 11q-3 10 -3 15v100q0 9 -4 15l-1 2h6q3 -1 7 -22v-99q1 -7 5.5 -15t4.5 -9q-8 -13 -8 -14z" />
    <glyph glyph-name="afii10091" unicode="&#x449;" horiz-adv-x="312" 
d="M268 302v-50v1q-4 0 -8 9v3v38q0 3 3.5 8.5t3.5 6.5q0 -7 -6 11q-3 10 -3 15v100q0 9 -4 15l-1 2h6q3 -1 7 -22v-99q1 -7 5.5 -15t4.5 -9q-8 -13 -8 -14zM211 171q-13 -20 -38 -20q-29 0 -47 20q-13 -20 -38 -20q-29 0 -51 31l2 1q26 -28 52 -24q23 3 34 22
q25 -26 51 -22q23 3 34 22q21 -15 34 -18v13q-29 0 -38 33q-14 -35 -40 -35q-18 0 -23 4q-16 9 -22 31q-14 -35 -40 -35q-18 0 -23 4q-28 24 -28 66v70q0 6 -7 16t-7 11t6.5 12t7.5 13v38q0 20 -17 20q-4 0 -4 2l-1 59h43q5 0 13 -8t9 -14v-50l-1 -142q0 -22 21 -22
q22 0 22 22v133q0 20 -17 20q-4 0 -4 2l-1 59h43q5 0 13 -8t9 -14v-50l-1 -142q0 -22 21 -22q22 0 22 22v136q0 17 -24 16l1 62h26q38 0 38 -27v-77q0 -31 13 -42q-12 -22 -12 -21v-58q0 -21 37 -19v-53q-3 -64 -40 -88q-3 4 -3 2t5 23q1 5 3 22v7q-10 -1 -33 17zM306 161
q-10 -22 -17 -38q-13 -24 -19 -24q-2 0 -4 2q12 15 32 67v54q4 -3 8 -7v-54z" />
    <glyph glyph-name="afii10094" unicode="&#x44c;" horiz-adv-x="193" 
d="M165 324q8 -8 10.5 -14t3 -10.5t0.5 -22.5v-59q0 -30 -7 -46q-13 -26 -43 -26q-20 0 -42 8q-19 6 -26 10l-15 -7.5t-18 -5.5q-5 0 -7 5q7 3 19 9q24 13 20 13q1 0 7.5 -4.5t20.5 -10.5q9 -4 17.5 -6t19.5 -2q2 0 1 -1h1q13 0 26.5 13t15 28t1.5 25q0 -5 0 21v48
q0 23 -14 36zM107 321q-4 5 -16 5t-23 -6v-51q3 -23 22 -23q24 0 24 32q1 16 0 26.5t-7 16.5zM71 405q-3 -10 -3 -24v-21t3 -20q14 3 30 2.5t31 -8.5q11 -7 13.5 -12.5t3.5 -8.5q3 -11 3 -22v-63q0 -50 -39 -50q-17 0 -31 13q-8 8 -17 21q-10 -14 -20 -24q-10 -9 -27 -9
q-9 0 -9 9v50q5 3 14 9.5t9 18.5v49q0 5 -6 12.5t-0.5 14t5.5 9.5v56q-5 11 -21 18v59q1 1 8 1q23 0 34 -24h2q6 25 32 25h7v-62q-5 1 -13 -4.5t-9 -14.5zM96 352h-5q-4 14 -1 47h20v72q6 1 8 1q-1 -2 0 -79h-22v-41z" />
    <glyph glyph-name="afii10093" unicode="&#x44b;" horiz-adv-x="264" 
d="M150 154q-25 -2 -39 1.5t-23 7.5q-14 6 -20.5 10.5t-7.5 4.5q4 0 -20 -13q-12 -6 -19 -9q2 -5 7 -5q7 0 18 5.5l15 7.5q7 -4 26 -10q22 -8 42 -8l21 1q21 2 43 20q29 -21 57 -21v56v17h-7v-65q-34 3 -49 23q-25 -22 -44 -23zM107 321q-4 5 -16 5t-23 -6v-51q3 -23 22 -23
q24 0 24 32q1 16 0 26.5t-7 16.5zM71 405q-3 -10 -3 -24v-21t3 -20q14 3 30 2.5t31 -8.5q11 -7 13.5 -12.5t3.5 -8.5q3 -11 3 -22v-63q0 -50 -39 -50q-17 0 -31 13q-8 8 -17 21q-10 -14 -20 -24q-10 -9 -27 -9q-9 0 -9 9v50q5 3 14 9.5t9 18.5v49q0 5 -6 12.5t-0.5 14
t5.5 9.5v56q-5 11 -21 18v59q1 1 8 1q23 0 34 -24h2q6 25 32 25h7v-62q-5 1 -13 -4.5t-9 -14.5zM96 352h-5q-4 14 -1 47h20v72q6 1 8 1q-1 -2 0 -79h-22v-41zM221 402q-1 -14 1 -23q2 -6 9 -25q-12 -20 -12 -48v-43h7q0 42 -0.5 54t12.5 37q-10 26 -10 44q3 12 22 12v62h-7
v-57q-17 1 -22 -13zM204 264v50q0 10 4.5 17.5t4.5 8.5q-10 9 -10 20v33q0 35 26 35v57q-6 1 -9 1q-24 0 -35 -24l-1 1q-6 23 -29 23q-4 0 -15 -1v-59q26 0 26 -30l-1 -135q0 -41 4 -54q8 -28 37 -27q7 -1 20 -1q1 16 2 57q-24 5 -24 28z" />
    <glyph glyph-name="afii10092" unicode="&#x44a;" horiz-adv-x="225" 
d="M197 324q8 -8 10.5 -14t3 -10.5t0.5 -22.5v-59q0 -30 -7 -46q-13 -26 -43 -26q-20 0 -42 8q-19 6 -26 10l-15 -7.5t-18 -5.5q-5 0 -7 5q7 3 19 9q24 13 20 13q1 0 7.5 -4.5t20.5 -10.5q9 -4 17.5 -6t19.5 -2q2 0 1 -1h1q13 0 26.5 13t15 28t1.5 25q0 -5 0 21v48
q0 23 -14 36zM139 321q-4 5 -16 5t-23 -6v-51q3 -23 22 -23q24 0 24 32q1 16 0 26.5t-7 16.5zM20 486h29q24 -1 35 -25h2q6 25 32 25h7v-62q-5 1 -13 -4.5t-9 -14.5q-3 -10 -3 -24v-21t3 -20q14 3 30 2.5t31 -8.5q11 -7 13.5 -12.5t3.5 -8.5q3 -11 3 -22v-63q0 -50 -39 -50
q-17 0 -31 13q-8 8 -17 21q-10 -14 -20 -24q-10 -9 -27 -9q-9 0 -9 9v50q5 3 14 9.5t9 18.5v49q0 5 -6 12.5t-0.5 14t5.5 9.5v56q0 18 -15 18q-13 -2 -13 -31l6 -21q-5 -4 -13 -4q-11 0 -18.5 11.5t-6.5 23.5l4 48q0 6 -5 33q2 1 18 1zM128 352h-5q-4 14 -1 47h20v72
q6 1 8 1q-1 -2 0 -79h-22v-41z" />
    <glyph glyph-name="afii10089" unicode="&#x447;" horiz-adv-x="214" 
d="M117 221v25q-8 -12 -29 -14q-29 0 -51 31l2 1q26 -28 52 -24q17 2 26 14v34q-10 -26 -36 -26q-18 0 -23 4q-25 25 -28 48q0 6 -7 16t-7 11t6.5 12t7.5 13v38q0 20 -17 20q-4 0 -4 2l-1 59h43q5 0 13 -8t9 -14v-50q0 -45 -1 -54q0 -22 21 -22q22 0 22 22v48q0 17 -24 16
l1 62h26q38 0 38 -27v-77q0 -31 13 -42q-12 -22 -12 -21v-58q0 -18 27 -18v-66q-27 -2 -37 20q-1 -7 -4 -21q-12 -40 -27 -41zM183 302v-50v1q-4 0 -8 9v3v38q0 3 3.5 8.5t3.5 6.5q0 -7 -6 11q-3 10 -3 15v100q0 9 -4 15l-1 2h6q3 -1 7 -22v-99q1 -7 5.5 -15t4.5 -9
q-8 -13 -8 -14zM161 153l-5 -11q-7 -14 -10 -14q-2 0 -5 3q7 13 16 32q10 -7 41 -7v66q4 -3 8 -7v-67q-30 -3 -45 5z" />
    <glyph glyph-name="afii10096" unicode="&#x44e;" horiz-adv-x="281" 
d="M74 259q7 -15 23 -22v-59q-1 -1 -8 -1q-23 0 -34 24h-2q-6 -25 -32 -25h-7v62q5 -1 13.5 5t8.5 17v40q0 11 -5.5 21t-5.5 9q11 16 11 34v43q-7 13 -23 20v59q1 1 8 1q23 0 34 -24h2q6 25 32 25h7v-62q-5 1 -13.5 -5t-8.5 -17v-68q19 14 29 12.5t15 -8.5v88q1 65 63 65
q59 0 59 -66v-68q0 -15 5.5 -20.5t5.5 -7.5q-11 -13 -11 -24v-79q0 -58 -55 -58q-65 0 -67 57q0 -9 0 88q-13 12 -44 -10v-46zM123 148h-20q-7 0 -21 6t-15 8q1 -1 -13.5 -8t-16.5 -7q-1 0 -1 5q13 5 31 17q1 1 14 -7t36 -9q-1 18 0 24l6 1v-30zM275 317q0 -3 -6.5 -11
t-6.5 -15v-85q0 -30 -22.5 -45.5t-55.5 -14.5q-29 2 -42 21l2 4q26 -18 45 -18q25 0 45.5 13t20.5 37v73v17.5t12 23.5q0 2 -5 9.5t-5 8.5q0 114 -9 126l6 2q10 -16 10 -44v-77q0 -10 5.5 -16.5t5.5 -8.5zM201 267v122q0 31 -23 31q-22 0 -22 -31v-123q0 -8 8 -15.5t16 -7.5
q21 0 21 24z" />
    <glyph glyph-name="afii10097" unicode="&#x44f;" horiz-adv-x="205" 
d="M58 322q-10 3 -17 9q-7 5 -12 12q-8 13 -9 30v46q0 67 41 67q33 0 44 -16q0 5 4 11h30q3 0 5 -4v-112q0 -27 13 -36q-4 -5 -8.5 -16t-4.5 -33q0 -19 3 -23q9 -12 21 -13q4 0 7 -2q2 -10 2 -18q0 -41 -4 -45h-22q-18 0 -26 21q-3 -5 -11.5 -13t-30.5 -8v63q6 2 19 15
q1 6 1 20v7.5v9.5q0 35 0 32q0 4 -2 7q-26 -2 -30 -78t-37 -76h-32v55h2q6 -1 17 7q36 24 37 81zM194 160q-5 -6 -17 -6q-19 0 -28 4q-2 1 -8.5 6t-7.5 5q2 0 -10 -7t-23 -7q-4 0 -9 3q9 4 25 11q20 13 17 13q4 0 10.5 -8.5t13.5 -10.5q4 -1 14 -1q13 0 16 6v18v39q1 3 5 3
q2 0 2 -6v-62zM61 396q-2 -38 20 -38q20 0 21 38q-3 24 -19 24q-21 0 -22 -24zM171 286v-22q0 -8 -0.5 -9t-2.5 -1q-6 0 -6 8v23q0 7 4 15.5t4 9.5t-5 12t-5 12v118q0 3 4 3q2 0 4 -2q1 -7 1 -21v-53v-43q0 -6 6 -17.5t6 -12.5q-10 -15 -10 -20zM69 175q-24 -21 -52 -21v6
q26 0 47 19z" />
    <glyph glyph-name="afii10095" unicode="&#x44d;" horiz-adv-x="180" 
d="M164 350q0 -17 8 -39q-8 -9 -8 -38q-1 -14 -2 -27q-4 -38 -17 -63q-12 -25 -32 -36q-5 -2 -12 -1q-16 0 -32 8q-8 -15 -15 -31q-13 -24 -19 -24q-2 0 -4 2q12 15 32 67h3q18 -17 33 -17q19 -1 40 34q11 21 15 55q2 25 3 58q1 7 7 14q-6 11 -7 40q-1 32 -8 92q-4 10 1 8
t6 -8q7 -62 8 -94zM145 315q0 -20 -4 -61q-5 -38 -14.5 -52.5t-18.5 -20.5q-15 -9 -27 -8q-18 -1 -35 21q-1 0 -1 -4q-4 -66 -41 -90q-3 4 -3 2t5 23q1 5 1 19v171q6 3 22 3t16 -6v-30q0 -41 26 -41q20 0 24 27q5 28 6 58h-4q-4 -8 -14 -9q-20 3 -30 24q18 18 28 22
q10 5 20 -14q-1 34 -3 53q-6 23 -18 21q-20 0 -26 -18q-3 -13 0.5 -19t6.5 -9l-2 -2l-14 1q-23 4 -33 28q-5 12 -2 29q3 15 10 25.5t23 20.5q27 13 54 7q37 -8 42 -66q5 -38 6 -73q0 -11 10 -18q-4 -4 -10 -14z" />
    <glyph glyph-name="guillemotleft" unicode="&#xab;" horiz-adv-x="207" 
d="M103 409l-57 -79l58 -83v-20l-100 103l100 99zM182 409l-53 -79l54 -83v-20l-100 103l100 99z" />
    <glyph glyph-name="guillemotright" unicode="&#xbb;" horiz-adv-x="207" 
d="M83 429l100 -99l-100 -103v20l58 83l-57 79zM4 429l100 -99l-100 -103v20l54 83l-53 79z" />
    <glyph glyph-name="space" unicode=" " horiz-adv-x="162" 
 />
  </font>
</defs>
</svg>
